<svg xmlns="http://www.w3.org/2000/svg" xmlns:xlink="http://www.w3.org/1999/xlink" width="100" zoomAndPan="magnify" viewBox="0 0 75 74.999997" height="100" preserveAspectRatio="xMidYMid meet" version="1.0"><defs><g/></defs><g fill="#000000" fill-opacity="1"><g transform="translate(0.0314733, 41.837782)"><g><path d="M 10.742188 -11.40625 C 10.679688 -11.941406 10.46875 -12.816406 9.789062 -12.816406 C 9.273438 -12.816406 8.640625 -12.023438 8.316406 -11.683594 C 7.523438 -10.855469 6.796875 -9.933594 6.101562 -8.996094 C 4.628906 -7.007812 3.285156 -4.855469 2.265625 -2.589844 C 2.75 -4.011719 3.15625 -5.484375 3.707031 -6.875 C 3.722656 -6.941406 4.789062 -9.464844 5.03125 -9.886719 C 4.871094 -9.628906 4.386719 -8.59375 4.160156 -8.121094 C 4.578125 -9.0625 5.03125 -10 5.5 -10.90625 C 5.453125 -10.808594 5.386719 -10.648438 5.40625 -10.648438 C 5.46875 -10.628906 5.808594 -11.292969 5.761719 -11.308594 L 5.695312 -11.261719 C 5.792969 -11.40625 5.855469 -11.488281 5.777344 -11.714844 C 5.664062 -11.988281 5.355469 -12.3125 5.066406 -12.363281 C 4.628906 -12.425781 4.335938 -12.007812 4.160156 -11.667969 C 4.0625 -11.472656 3.882812 -11.359375 3.753906 -11.132812 C 3.542969 -10.792969 3.398438 -10.421875 3.253906 -10.046875 C 3.171875 -9.886719 2.296875 -7.832031 2.347656 -7.816406 L 2.394531 -7.878906 C 2.328125 -7.734375 2.296875 -7.574219 2.234375 -7.425781 C 2.214844 -7.441406 2.28125 -7.554688 2.25 -7.574219 C 2.101562 -7.605469 1.632812 -6.132812 1.617188 -6.019531 C 1.554688 -5.679688 1.472656 -5.371094 1.359375 -5.046875 C 1.277344 -4.839844 1.199219 -4.628906 1.148438 -4.402344 C 1.148438 -4.386719 1.085938 -4.046875 1.117188 -4.0625 L 1.117188 -3.980469 C 1.101562 -3.996094 1.101562 -4.027344 1.101562 -4.046875 C 1.050781 -4.027344 0.972656 -3.496094 0.953125 -3.445312 C 0.839844 -3.171875 0.710938 -2.914062 0.632812 -2.621094 C 0.40625 -1.828125 0.308594 -1.019531 0.195312 -0.210938 C 0.113281 0.308594 -0.179688 1.230469 0.144531 1.699219 C 0.371094 2.023438 1.148438 2.328125 1.457031 1.925781 C 1.585938 1.78125 1.554688 1.503906 1.585938 1.359375 C 1.683594 0.550781 1.894531 -0.113281 2.199219 -0.875 C 2.832031 -2.425781 3.609375 -3.933594 4.480469 -5.371094 C 5.210938 -6.535156 5.890625 -7.75 6.746094 -8.835938 C 7.28125 -9.515625 7.816406 -10.195312 8.398438 -10.824219 C 8.527344 -10.96875 9.09375 -11.667969 9.351562 -11.570312 C 9.675781 -11.457031 9.367188 -10.339844 9.320312 -10.113281 C 9.140625 -9.304688 8.914062 -8.496094 8.640625 -7.703125 C 8.1875 -6.40625 7.765625 -5.082031 7.214844 -3.851562 C 6.859375 -3.058594 6.457031 -2.28125 6.035156 -1.539062 C 5.679688 -0.9375 5.179688 0.0976562 4.417969 0.292969 C 3.542969 0.5 2.960938 -0.792969 2.667969 -1.425781 C 2.667969 -0.273438 3.347656 0.921875 4.578125 1.132812 C 5.824219 1.34375 6.894531 0.03125 7.523438 -0.859375 C 8.027344 -1.554688 8.480469 -2.328125 8.835938 -3.105469 C 8.914062 -3.300781 8.933594 -3.496094 8.980469 -3.671875 C 9.0625 -3.980469 9.289062 -4.273438 9.417969 -4.5625 C 9.773438 -5.371094 10.082031 -6.164062 10.324219 -7.007812 C 10.453125 -7.410156 10.566406 -7.816406 10.648438 -8.234375 C 10.679688 -8.398438 10.710938 -8.59375 10.726562 -8.753906 C 10.726562 -8.851562 10.664062 -8.996094 10.664062 -9.027344 C 10.648438 -9.417969 10.777344 -9.820312 10.792969 -10.226562 C 10.808594 -10.613281 10.792969 -11.019531 10.742188 -11.40625 Z M 1.972656 -5.648438 C 2.023438 -6.035156 2.214844 -6.457031 2.363281 -6.828125 C 2.539062 -7.3125 2.71875 -7.765625 2.960938 -8.234375 C 3.269531 -8.851562 3.558594 -9.480469 3.914062 -10.082031 C 3.882812 -10 3.867188 -9.835938 3.820312 -9.742188 C 3.753906 -9.59375 3.65625 -9.449219 3.59375 -9.289062 C 3.429688 -8.933594 3.285156 -8.574219 3.105469 -8.21875 C 2.878906 -7.75 2.667969 -7.296875 2.476562 -6.828125 C 2.363281 -6.570312 2.28125 -6.308594 2.183594 -6.050781 C 2.136719 -5.890625 2.085938 -5.550781 1.988281 -5.4375 C 1.957031 -5.40625 1.972656 -5.648438 1.972656 -5.648438 Z M 7.070312 -2.621094 C 7.023438 -2.539062 6.972656 -2.460938 6.941406 -2.378906 L 6.859375 -2.214844 C 6.84375 -2.214844 6.84375 -2.199219 6.84375 -2.183594 C 6.535156 -1.617188 6.195312 -1.035156 5.839844 -0.519531 C 5.792969 -0.453125 4.773438 0.839844 4.628906 0.5 C 4.613281 0.453125 4.953125 0.386719 4.96875 0.371094 C 5.195312 0.257812 5.386719 0.015625 5.550781 -0.179688 C 5.9375 -0.679688 6.277344 -1.246094 6.585938 -1.796875 C 6.84375 -2.25 7.085938 -2.703125 7.296875 -3.15625 L 7.167969 -2.847656 C 7.234375 -2.976562 7.28125 -3.105469 7.328125 -3.234375 L 7.425781 -3.460938 L 7.410156 -3.382812 C 7.441406 -3.460938 7.476562 -3.558594 7.523438 -3.640625 L 7.523438 -3.65625 C 7.605469 -3.820312 7.667969 -3.949219 7.6875 -3.949219 C 7.6875 -3.933594 7.136719 -2.734375 7.070312 -2.636719 Z M 8.253906 -4.351562 C 8.171875 -4.027344 8.058594 -3.707031 7.914062 -3.414062 C 7.78125 -3.171875 7.554688 -2.929688 7.476562 -2.667969 C 7.667969 -3.253906 8.007812 -3.785156 8.253906 -4.367188 Z M 2.214844 -5.292969 C 2.085938 -5.082031 2.136719 -4.839844 2.070312 -4.628906 C 2.023438 -4.53125 1.84375 -4.335938 1.8125 -4.207031 C 1.8125 -4.304688 1.84375 -4.433594 1.859375 -4.515625 C 1.875 -4.675781 1.957031 -4.742188 2.039062 -4.871094 C 2.101562 -4.96875 2.136719 -5.292969 2.265625 -5.339844 Z M 5.855469 -0.46875 C 6.082031 -0.808594 6.308594 -1.164062 6.519531 -1.554688 C 6.308594 -1.148438 6.101562 -0.792969 5.855469 -0.46875 Z M 4.140625 -10.484375 C 4.207031 -10.453125 4.191406 -10.421875 4.109375 -10.339844 C 4.078125 -10.371094 4.078125 -10.421875 4.140625 -10.484375 Z M 3.753906 -7.167969 L 3.753906 -7.152344 L 3.496094 -6.535156 L 3.914062 -7.574219 C 3.867188 -7.425781 3.820312 -7.296875 3.753906 -7.167969 Z M 6.667969 -1.84375 C 6.667969 -1.8125 6.648438 -1.796875 6.632812 -1.765625 Z M 7.347656 -3.269531 C 7.347656 -3.253906 7.347656 -3.253906 7.328125 -3.234375 C 7.328125 -3.253906 7.347656 -3.253906 7.347656 -3.269531 Z M 7.347656 -3.269531 "/></g></g></g><g fill="#000000" fill-opacity="1"><g transform="translate(9.868696, 41.837782)"><g><path d="M 8.234375 -3.898438 C 8.21875 -4.253906 7.929688 -3.949219 7.832031 -3.820312 C 7.621094 -3.511719 7.425781 -3.1875 7.234375 -2.878906 C 6.796875 -2.214844 6.359375 -1.554688 5.855469 -0.921875 C 4.191406 1.132812 5.355469 -2.523438 5.226562 -2.492188 C 5.160156 -2.476562 5.113281 -2.234375 5.097656 -2.183594 C 5.226562 -2.765625 5.46875 -3.460938 5.777344 -4.027344 C 5.953125 -4.386719 6.164062 -4.675781 5.839844 -5.066406 C 5.242188 -5.792969 4.546875 -5.128906 4.160156 -4.628906 C 3.996094 -5.242188 3.671875 -6.148438 2.878906 -6.148438 C 2.523438 -6.148438 2.3125 -5.96875 2.070312 -5.761719 C 1.925781 -5.664062 1.8125 -5.648438 1.683594 -5.535156 C 1.472656 -5.386719 1.328125 -5.160156 1.179688 -4.96875 C 0.632812 -4.160156 0.242188 -3.140625 0.0664062 -2.199219 C -0.015625 -1.746094 -0.046875 -1.246094 0.0820312 -0.792969 C 0.160156 -0.535156 0.453125 0.046875 0.824219 0 C 0.839844 0 0.808594 -0.015625 0.761719 -0.046875 C 0.988281 0.015625 1.246094 -0.015625 1.441406 -0.144531 C 1.457031 -0.113281 1.261719 -0.03125 1.261719 -0.03125 C 1.441406 0.242188 2.765625 -1.359375 2.863281 -1.503906 C 3.074219 -1.796875 3.21875 -2.101562 3.414062 -2.410156 C 3.558594 -2.636719 3.785156 -2.929688 3.949219 -3.171875 C 3.933594 -3.058594 3.933594 -2.914062 3.933594 -2.914062 C 3.640625 -1.988281 3.367188 -0.988281 3.753906 -0.03125 C 3.933594 0.453125 4.367188 0.90625 4.917969 0.808594 C 5.40625 0.726562 5.808594 0.257812 6.101562 -0.113281 C 6.457031 -0.535156 6.761719 -1.003906 7.070312 -1.488281 C 7.328125 -1.925781 7.574219 -2.363281 7.78125 -2.847656 C 7.914062 -3.15625 8.269531 -3.527344 8.234375 -3.898438 Z M 3.59375 -3.785156 C 3.511719 -3.671875 3.429688 -3.558594 3.367188 -3.445312 L 2.945312 -2.847656 C 2.667969 -2.441406 2.378906 -2.054688 2.070312 -1.683594 C 1.988281 -1.570312 1.601562 -1.066406 1.441406 -1.117188 C 1.199219 -1.199219 1.457031 -2.039062 1.488281 -2.167969 C 1.539062 -2.394531 2.394531 -4.886719 2.621094 -4.933594 C 2.328125 -4.953125 1.390625 -2.023438 1.34375 -1.78125 C 1.472656 -2.574219 1.765625 -3.347656 2.085938 -4.078125 C 2.265625 -4.449219 2.667969 -5.4375 3.203125 -5.4375 C 3.496094 -5.4375 3.558594 -4.839844 3.609375 -4.644531 C 3.59375 -4.675781 3.445312 -5.144531 3.429688 -5.128906 C 3.347656 -5.066406 3.671875 -4.175781 3.671875 -4.046875 C 3.671875 -3.914062 3.671875 -3.914062 3.59375 -3.785156 Z M 3.964844 -2.992188 C 3.964844 -2.992188 4.011719 -3.21875 4.027344 -3.269531 L 4.109375 -3.382812 Z M 3.722656 -3.996094 L 3.722656 -4.160156 C 3.769531 -4.09375 3.769531 -4.046875 3.722656 -3.996094 Z M 3.722656 -3.996094 "/></g></g></g><g fill="#000000" fill-opacity="1"><g transform="translate(16.923021, 41.837782)"><g><path d="M 8.027344 -3.980469 C 7.945312 -3.980469 7.832031 -3.820312 7.78125 -3.769531 C 7.554688 -3.542969 7.363281 -3.285156 7.167969 -3.042969 C 6.632812 -2.425781 6.101562 -1.796875 5.519531 -1.230469 C 5.371094 -1.101562 5 -0.664062 4.789062 -0.808594 C 4.660156 -0.890625 4.773438 -1.40625 4.789062 -1.519531 C 4.820312 -1.667969 5.113281 -2.425781 5.015625 -2.523438 C 4.96875 -2.554688 4.886719 -2.3125 4.871094 -2.296875 C 5.128906 -3.203125 5.648438 -4.238281 6.066406 -5.128906 C 6.308594 -5.613281 6.617188 -6.214844 6.214844 -6.714844 C 5.5 -7.589844 4.613281 -6.472656 4.125 -5.953125 C 3.914062 -5.726562 1.875 -3.234375 1.910156 -3.21875 C 1.910156 -3.21875 2.054688 -3.398438 2.265625 -3.640625 C 1.957031 -3.234375 1.667969 -2.832031 1.390625 -2.410156 C 1.570312 -3.074219 1.765625 -3.722656 1.972656 -4.367188 C 2.085938 -4.691406 2.183594 -5.03125 2.296875 -5.371094 C 2.425781 -5.726562 2.523438 -5.875 2.800781 -6.132812 C 3.269531 -6.554688 3.722656 -7.007812 4.140625 -7.492188 C 4.304688 -7.6875 4.417969 -7.914062 4.578125 -8.089844 C 4.726562 -8.234375 4.933594 -8.367188 5.097656 -8.542969 C 5.921875 -9.515625 6.585938 -10.726562 7.136719 -11.859375 C 7.378906 -12.394531 7.605469 -12.945312 7.765625 -13.511719 C 7.800781 -13.640625 8.15625 -15.128906 8.074219 -15.128906 C 8.058594 -15.128906 8.058594 -15.113281 8.042969 -15.082031 C 8.058594 -15.339844 8.042969 -15.628906 7.945312 -15.890625 C 7.960938 -15.890625 8.042969 -15.648438 8.042969 -15.648438 C 8.140625 -15.710938 7.847656 -16.214844 7.78125 -16.277344 C 7.636719 -16.421875 7.425781 -16.503906 7.214844 -16.503906 C 6.796875 -16.535156 6.40625 -16.308594 6.082031 -16.066406 C 5.46875 -15.597656 5.03125 -14.902344 4.578125 -14.269531 C 4.320312 -13.914062 4.078125 -13.558594 3.851562 -13.1875 C 3.6875 -12.945312 3.332031 -12.507812 3.332031 -12.214844 C 3.347656 -12.199219 3.367188 -12.199219 3.367188 -12.199219 L 3.171875 -11.828125 C 3.171875 -11.828125 3.269531 -12.121094 3.285156 -12.136719 C 3.203125 -12.085938 3.121094 -11.746094 3.121094 -11.730469 C 2.492188 -10.5 1.828125 -9.320312 1.390625 -8.007812 C 0.890625 -6.535156 0.519531 -5.015625 0.242188 -3.496094 C 0.113281 -2.800781 -0.046875 -2.039062 0.015625 -1.328125 C 0.015625 -1.132812 0.03125 -0.90625 0.179688 -0.746094 C 0.355469 -0.519531 0.726562 -0.4375 0.9375 -0.664062 C 1.003906 -0.746094 1.003906 -0.792969 1.035156 -0.875 L 1.328125 -1.390625 C 1.714844 -1.988281 2.183594 -2.539062 2.554688 -3.15625 C 2.605469 -3.253906 2.652344 -3.367188 2.71875 -3.445312 C 2.800781 -3.542969 2.832031 -3.496094 2.929688 -3.574219 C 3.203125 -3.800781 3.414062 -4.140625 3.640625 -4.417969 C 4.109375 -5 4.578125 -5.664062 5.179688 -6.148438 L 4.707031 -5.015625 L 4.757812 -5.066406 L 4.515625 -4.515625 C 4.5 -4.53125 4.5625 -4.675781 4.5625 -4.691406 C 4.5 -4.691406 4.191406 -4.0625 4.160156 -3.996094 C 3.964844 -3.609375 3.753906 -3.21875 3.640625 -2.816406 C 3.542969 -2.425781 3.429688 -2.039062 3.316406 -1.652344 C 3.269531 -1.40625 3.21875 -1.164062 3.234375 -0.921875 C 3.234375 -0.859375 3.367188 -0.273438 3.414062 -0.324219 L 3.414062 -0.386719 C 3.445312 -0.292969 3.480469 -0.210938 3.527344 -0.128906 L 3.429688 -0.273438 C 3.382812 -0.160156 3.820312 0.210938 3.867188 0.257812 C 4.109375 0.5 4.351562 0.664062 4.726562 0.679688 C 5.03125 0.695312 5.195312 0.582031 5.421875 0.371094 C 6.035156 -0.226562 6.472656 -1.050781 6.941406 -1.765625 C 7.199219 -2.136719 7.460938 -2.523438 7.703125 -2.914062 C 7.765625 -2.992188 8.203125 -3.898438 8.140625 -3.882812 C 8.234375 -3.898438 8.058594 -3.980469 8.027344 -3.980469 Z M 6.617188 -14.871094 L 6.617188 -14.886719 C 6.617188 -14.886719 6.632812 -14.886719 6.632812 -14.902344 L 6.632812 -14.886719 C 6.648438 -14.917969 6.667969 -14.949219 6.648438 -14.933594 C 6.78125 -15.128906 7.101562 -15.710938 7.328125 -15.515625 C 7.554688 -15.324219 7.347656 -14.644531 7.28125 -14.402344 C 7.152344 -13.898438 6.957031 -13.414062 6.761719 -12.945312 C 6.375 -12.039062 5.890625 -11.179688 5.355469 -10.339844 C 5.097656 -9.933594 4.820312 -9.53125 4.546875 -9.140625 C 4.402344 -8.949219 4.253906 -8.753906 4.09375 -8.558594 L 3.964844 -8.414062 L 4.253906 -8.707031 L 4.902344 -9.609375 C 5.257812 -10.097656 5.597656 -10.628906 5.921875 -11.164062 C 5.097656 -9.707031 4.09375 -8.332031 2.929688 -7.101562 L 3.414062 -8.382812 C 3.460938 -8.480469 3.800781 -9.433594 3.800781 -9.433594 C 3.769531 -9.417969 3.722656 -9.335938 3.671875 -9.253906 C 4.0625 -10.144531 4.5625 -11.066406 5.015625 -11.957031 C 5.519531 -12.929688 6.019531 -13.929688 6.601562 -14.855469 C 6.601562 -14.855469 6.617188 -14.855469 6.617188 -14.871094 Z M 2.554688 -6.941406 C 2.703125 -7.816406 3.105469 -8.640625 3.398438 -9.480469 C 3.65625 -10.195312 4.078125 -10.839844 4.402344 -11.519531 C 4.546875 -11.84375 6.101562 -14.804688 6.132812 -14.789062 C 6.261719 -14.707031 4.273438 -10.90625 4.0625 -10.453125 C 3.882812 -10.113281 3.722656 -9.789062 3.59375 -9.417969 C 3.480469 -9.0625 3.285156 -8.769531 3.15625 -8.429688 C 3.089844 -8.269531 2.441406 -6.570312 2.492188 -6.554688 C 2.460938 -6.554688 2.523438 -6.8125 2.539062 -6.894531 Z M 3.671875 -8.074219 C 3.707031 -8.105469 3.738281 -8.171875 3.785156 -8.21875 C 3.738281 -8.171875 3.707031 -8.121094 3.671875 -8.074219 Z M 6.617188 -14.871094 L 6.617188 -14.886719 L 6.632812 -14.886719 Z M 2.554688 -6.925781 C 2.554688 -6.910156 2.539062 -6.894531 2.539062 -6.894531 C 2.539062 -6.910156 2.554688 -6.910156 2.554688 -6.925781 Z M 2.554688 -6.925781 "/></g></g></g><g fill="#000000" fill-opacity="1"><g transform="translate(23.896447, 41.837782)"><g><path d="M 8.234375 -3.898438 C 8.21875 -4.253906 7.929688 -3.949219 7.832031 -3.820312 C 7.621094 -3.511719 7.425781 -3.1875 7.234375 -2.878906 C 6.796875 -2.214844 6.359375 -1.554688 5.855469 -0.921875 C 4.191406 1.132812 5.355469 -2.523438 5.226562 -2.492188 C 5.160156 -2.476562 5.113281 -2.234375 5.097656 -2.183594 C 5.226562 -2.765625 5.46875 -3.460938 5.777344 -4.027344 C 5.953125 -4.386719 6.164062 -4.675781 5.839844 -5.066406 C 5.242188 -5.792969 4.546875 -5.128906 4.160156 -4.628906 C 3.996094 -5.242188 3.671875 -6.148438 2.878906 -6.148438 C 2.523438 -6.148438 2.3125 -5.96875 2.070312 -5.761719 C 1.925781 -5.664062 1.8125 -5.648438 1.683594 -5.535156 C 1.472656 -5.386719 1.328125 -5.160156 1.179688 -4.96875 C 0.632812 -4.160156 0.242188 -3.140625 0.0664062 -2.199219 C -0.015625 -1.746094 -0.046875 -1.246094 0.0820312 -0.792969 C 0.160156 -0.535156 0.453125 0.046875 0.824219 0 C 0.839844 0 0.808594 -0.015625 0.761719 -0.046875 C 0.988281 0.015625 1.246094 -0.015625 1.441406 -0.144531 C 1.457031 -0.113281 1.261719 -0.03125 1.261719 -0.03125 C 1.441406 0.242188 2.765625 -1.359375 2.863281 -1.503906 C 3.074219 -1.796875 3.21875 -2.101562 3.414062 -2.410156 C 3.558594 -2.636719 3.785156 -2.929688 3.949219 -3.171875 C 3.933594 -3.058594 3.933594 -2.914062 3.933594 -2.914062 C 3.640625 -1.988281 3.367188 -0.988281 3.753906 -0.03125 C 3.933594 0.453125 4.367188 0.90625 4.917969 0.808594 C 5.40625 0.726562 5.808594 0.257812 6.101562 -0.113281 C 6.457031 -0.535156 6.761719 -1.003906 7.070312 -1.488281 C 7.328125 -1.925781 7.574219 -2.363281 7.78125 -2.847656 C 7.914062 -3.15625 8.269531 -3.527344 8.234375 -3.898438 Z M 3.59375 -3.785156 C 3.511719 -3.671875 3.429688 -3.558594 3.367188 -3.445312 L 2.945312 -2.847656 C 2.667969 -2.441406 2.378906 -2.054688 2.070312 -1.683594 C 1.988281 -1.570312 1.601562 -1.066406 1.441406 -1.117188 C 1.199219 -1.199219 1.457031 -2.039062 1.488281 -2.167969 C 1.539062 -2.394531 2.394531 -4.886719 2.621094 -4.933594 C 2.328125 -4.953125 1.390625 -2.023438 1.34375 -1.78125 C 1.472656 -2.574219 1.765625 -3.347656 2.085938 -4.078125 C 2.265625 -4.449219 2.667969 -5.4375 3.203125 -5.4375 C 3.496094 -5.4375 3.558594 -4.839844 3.609375 -4.644531 C 3.59375 -4.675781 3.445312 -5.144531 3.429688 -5.128906 C 3.347656 -5.066406 3.671875 -4.175781 3.671875 -4.046875 C 3.671875 -3.914062 3.671875 -3.914062 3.59375 -3.785156 Z M 3.964844 -2.992188 C 3.964844 -2.992188 4.011719 -3.21875 4.027344 -3.269531 L 4.109375 -3.382812 Z M 3.722656 -3.996094 L 3.722656 -4.160156 C 3.769531 -4.09375 3.769531 -4.046875 3.722656 -3.996094 Z M 3.722656 -3.996094 "/></g></g></g><g fill="#000000" fill-opacity="1"><g transform="translate(30.950772, 41.837782)"><g><path d="M 6.632812 -3.933594 C 6.535156 -4.351562 6.148438 -3.785156 6.066406 -3.6875 L 5.179688 -2.492188 L 4.304688 -1.34375 L 3.835938 -0.746094 C 3.785156 -0.679688 3.429688 -0.226562 3.460938 -0.226562 C 3.496094 -0.257812 3.542969 -0.257812 3.59375 -0.308594 C 3.347656 -0.046875 2.460938 0.761719 2.296875 0.566406 C 2.167969 0.40625 2.523438 -0.273438 2.574219 -0.4375 C 2.75 -0.90625 2.914062 -1.390625 3.105469 -1.84375 C 3.316406 -2.3125 3.558594 -2.78125 3.753906 -3.253906 C 3.949219 -3.753906 3.65625 -3.933594 3.1875 -4.046875 C 2.976562 -4.09375 2.71875 -4.09375 2.476562 -4.125 C 2.476562 -4.109375 2.492188 -4.109375 2.492188 -4.109375 C 2.703125 -4.078125 3.007812 -4.0625 3.269531 -3.980469 C 2.878906 -4.09375 2.394531 -4.046875 2.085938 -4.125 C 1.875 -4.175781 1.746094 -4.175781 1.78125 -4.417969 C 1.8125 -4.742188 2.152344 -5.082031 2.265625 -5.386719 C 2.265625 -5.371094 2.152344 -5.082031 2.167969 -5.082031 C 2.25 -5.046875 2.378906 -5.5 2.378906 -5.566406 C 2.363281 -5.648438 2.167969 -5.890625 2.152344 -5.792969 L 2.183594 -5.742188 C 1.40625 -6.277344 0.484375 -5.179688 0.648438 -4.386719 C 0.679688 -4.273438 0.746094 -4.207031 0.792969 -4.078125 C 0.824219 -3.980469 0.792969 -3.867188 0.890625 -3.738281 C 1.230469 -3.316406 1.84375 -3.300781 2.328125 -3.398438 C 2.25 -3.285156 1.390625 -1.472656 1.441406 -1.457031 L 1.328125 -1.050781 C 1.3125 -1.066406 1.375 -1.199219 1.34375 -1.199219 C 1.230469 -1.214844 1.003906 -0.273438 0.988281 -0.195312 C 0.921875 0.195312 0.9375 0.535156 1.101562 0.890625 C 1.199219 1.117188 1.3125 1.3125 1.519531 1.441406 C 1.714844 1.570312 1.957031 1.632812 2.183594 1.585938 C 2.265625 1.554688 2.574219 1.34375 2.492188 1.359375 L 2.605469 1.3125 C 2.589844 1.328125 2.574219 1.34375 2.574219 1.359375 C 2.621094 1.375 3.367188 0.777344 3.460938 0.710938 C 3.980469 0.273438 4.402344 -0.257812 4.789062 -0.792969 C 5.179688 -1.34375 5.582031 -1.894531 5.953125 -2.441406 C 6.132812 -2.703125 6.292969 -2.960938 6.421875 -3.234375 C 6.519531 -3.429688 6.683594 -3.707031 6.632812 -3.933594 Z M 1.796875 -1.988281 C 1.910156 -2.28125 2.039062 -2.554688 2.183594 -2.832031 C 2.214844 -2.878906 2.441406 -3.460938 2.554688 -3.496094 C 2.476562 -3.445312 2.136719 -2.652344 2.054688 -2.507812 L 1.746094 -1.796875 C 1.585938 -1.40625 1.40625 -1.003906 1.292969 -0.582031 C 1.40625 -1.066406 1.601562 -1.539062 1.796875 -1.988281 Z M 1.40625 1.117188 C 1.503906 1.246094 1.632812 1.375 1.8125 1.441406 C 1.667969 1.390625 1.539062 1.3125 1.441406 1.214844 C 1.457031 1.214844 1.457031 1.230469 1.457031 1.246094 C 1.359375 1.117188 1.230469 0.839844 1.214844 0.792969 C 1.164062 0.597656 1.148438 0.371094 1.164062 0.179688 C 1.164062 0.015625 1.179688 -0.113281 1.214844 -0.257812 L 1.214844 -0.242188 C 1.179688 -0.03125 1.164062 0.179688 1.179688 0.40625 L 1.179688 0.484375 C 1.164062 0.46875 1.164062 0.453125 1.164062 0.453125 C 1.164062 0.453125 1.164062 0.46875 1.179688 0.5 L 1.179688 0.519531 L 1.246094 0.859375 L 1.199219 0.648438 C 1.230469 0.746094 1.3125 0.921875 1.390625 1.101562 L 1.375 1.085938 C 1.375 1.101562 1.390625 1.117188 1.40625 1.132812 Z M 1.859375 -4.222656 C 1.941406 -4.160156 2.085938 -4.140625 2.234375 -4.125 C 2.101562 -4.140625 1.988281 -4.175781 1.910156 -4.238281 C 1.910156 -4.238281 1.8125 -4.320312 1.796875 -4.351562 C 1.796875 -4.320312 1.828125 -4.238281 1.859375 -4.222656 Z M 3.558594 -2.960938 L 3.21875 -2.25 L 3.558594 -2.976562 Z M 1.230469 -0.308594 C 1.230469 -0.292969 1.214844 -0.273438 1.214844 -0.257812 L 1.214844 -0.273438 C 1.214844 -0.292969 1.230469 -0.292969 1.230469 -0.308594 Z M 3.574219 -3.007812 L 3.574219 -2.992188 L 3.558594 -2.992188 Z M 3.574219 -3.007812 L 3.574219 -2.992188 L 3.558594 -2.992188 Z M 1.246094 -0.519531 C 1.246094 -0.535156 1.261719 -0.550781 1.261719 -0.582031 C 1.261719 -0.550781 1.246094 -0.535156 1.246094 -0.519531 Z M 1.3125 0.972656 C 1.3125 0.972656 1.328125 0.988281 1.328125 1.003906 C 1.328125 0.988281 1.3125 0.988281 1.3125 0.972656 Z M 1.8125 -4.386719 C 1.796875 -4.386719 1.796875 -4.367188 1.796875 -4.367188 Z M 1.8125 -4.386719 "/></g></g></g><g fill="#000000" fill-opacity="1"><g transform="translate(36.403312, 41.837782)"><g/></g></g><g fill="#000000" fill-opacity="1"><g transform="translate(40.933613, 41.837782)"><g><path d="M 10.0625 -11.277344 C 9.984375 -11.910156 8.785156 -11.957031 8.460938 -11.585938 C 8.414062 -11.535156 8.347656 -11.390625 8.253906 -11.308594 C 8.089844 -11.164062 8.15625 -11.230469 7.960938 -11.164062 C 7.507812 -11.035156 7.054688 -10.90625 6.601562 -10.761719 C 6.277344 -10.664062 5.90625 -10.597656 5.582031 -10.453125 C 5.386719 -10.371094 5.273438 -10.273438 5.066406 -10.210938 C 4.367188 -10.015625 3.625 -9.871094 3.027344 -9.5625 C 2.621094 -9.351562 2.121094 -9.207031 2.085938 -8.640625 C 2.085938 -8.480469 2.152344 -8.347656 2.234375 -8.203125 C 2.328125 -8.007812 2.460938 -7.945312 2.605469 -7.832031 L 2.945312 -7.523438 C 3.15625 -7.328125 3.511719 -7.054688 3.800781 -7.070312 C 3.820312 -7.070312 4.09375 -7.167969 4.109375 -7.199219 C 4.253906 -7.378906 3.753906 -7.75 3.65625 -7.878906 C 3.480469 -8.105469 3.21875 -8.460938 3.300781 -8.769531 C 3.480469 -9.367188 4.628906 -9.578125 5.144531 -9.722656 C 5.550781 -9.835938 5.9375 -10.046875 6.34375 -10.160156 C 6.796875 -10.289062 7.234375 -10.355469 7.6875 -10.535156 C 6.699219 -8.964844 6.082031 -7.152344 5.453125 -5.4375 C 4.789062 -3.640625 4.160156 -1.8125 3.300781 -0.0976562 C 3.105469 0.308594 2.605469 1.539062 1.972656 1.199219 C 1.652344 1.035156 1.488281 0.582031 1.375 0.273438 C 1.199219 -0.160156 1.050781 -0.632812 0.921875 -1.085938 C 0.679688 -1.972656 0.582031 -2.863281 0.46875 -3.785156 C 0.4375 -3.949219 0.371094 -4.449219 0.113281 -4.367188 C -0.113281 -4.289062 0.0664062 -3.027344 0.046875 -2.816406 C 0 -1.910156 0.0664062 -0.988281 0.292969 -0.0976562 C 0.5 0.746094 0.921875 1.601562 1.714844 2.039062 C 2.070312 2.234375 2.507812 2.363281 2.914062 2.363281 C 3.332031 2.363281 3.574219 2.121094 3.800781 1.8125 C 4.804688 0.519531 5.371094 -1.035156 5.988281 -2.539062 C 6.164062 -2.960938 6.261719 -3.367188 6.375 -3.769531 C 6.488281 -4.222656 6.730469 -4.660156 6.910156 -5.097656 C 7.25 -5.9375 7.589844 -6.78125 7.976562 -7.621094 L 8.65625 -8.996094 C 8.820312 -9.289062 8.835938 -9.546875 9.027344 -9.804688 C 9.320312 -10.160156 9.609375 -10.5 9.902344 -10.875 C 9.984375 -10.988281 10.082031 -11.117188 10.0625 -11.277344 Z M 6.714844 -5.855469 C 6.40625 -5.160156 6.066406 -4.578125 5.792969 -3.867188 L 6.8125 -6.535156 C 6.957031 -6.941406 7.152344 -7.3125 7.347656 -7.703125 C 7.101562 -7.136719 6.972656 -6.40625 6.714844 -5.855469 Z M 6.714844 -5.855469 "/></g></g></g><g fill="#000000" fill-opacity="1"><g transform="translate(48.45715, 41.837782)"><g><path d="M 7.441406 -4.027344 C 7.441406 -4.027344 7.460938 -4.011719 7.441406 -4.046875 C 7.363281 -4.160156 7.25 -4.078125 7.136719 -4.046875 C 6.667969 -3.949219 6.179688 -3.835938 5.695312 -3.753906 C 5.875 -4.335938 6.050781 -4.953125 6.117188 -5.550781 C 6.148438 -5.777344 6.164062 -6.019531 6.117188 -6.246094 C 6.082031 -6.390625 6.035156 -6.535156 5.953125 -6.667969 C 5.953125 -6.667969 5.761719 -6.910156 5.808594 -6.78125 L 5.792969 -6.796875 L 5.726562 -6.925781 L 5.792969 -6.859375 C 5.808594 -6.957031 5.535156 -7.136719 5.535156 -7.136719 C 5.128906 -7.539062 4.578125 -7.847656 4.027344 -7.539062 C 3.6875 -7.347656 3.414062 -7.023438 3.1875 -6.699219 C 3.105469 -6.585938 3.027344 -6.457031 2.960938 -6.328125 C 2.894531 -6.195312 2.800781 -5.777344 2.703125 -5.710938 C 2.621094 -5.648438 2.378906 -5.628906 2.265625 -5.566406 C 2.101562 -5.5 1.957031 -5.421875 1.828125 -5.324219 C 1.519531 -5.128906 1.277344 -4.855469 1.050781 -4.578125 C 0.664062 -4.0625 0.46875 -3.480469 0.195312 -2.960938 C -0.324219 -1.972656 0.242188 -0.679688 1.199219 -0.210938 C 1.503906 -0.0664062 1.859375 0 2.183594 -0.03125 C 2.523438 -0.0820312 2.847656 -0.257812 3.105469 -0.453125 C 3.347656 -0.632812 3.882812 -0.953125 3.980469 -1.230469 C 3.980469 -1.246094 3.949219 -1.230469 3.898438 -1.179688 L 4.367188 -1.730469 C 4.386719 -1.714844 4.253906 -1.554688 4.253906 -1.554688 C 4.367188 -1.503906 4.953125 -2.363281 5.015625 -2.425781 C 5.128906 -2.621094 5.242188 -2.832031 5.371094 -3.027344 C 5.484375 -3.171875 5.453125 -3.15625 5.613281 -3.21875 C 5.597656 -3.203125 5.808594 -3.269531 5.839844 -3.269531 C 6.019531 -3.300781 7.914062 -3.429688 7.441406 -4.027344 Z M 1.84375 -0.761719 L 1.828125 -0.761719 C 0.484375 -0.566406 2.039062 -3.414062 2.070312 -3.574219 L 1.972656 -3.429688 C 2.214844 -3.914062 2.441406 -4.304688 2.554688 -4.433594 C 2.734375 -3.625 3.609375 -3.316406 4.320312 -3.21875 C 3.851562 -2.28125 2.976562 -0.972656 1.84375 -0.761719 Z M 5.03125 -5.242188 C 4.917969 -4.789062 4.820312 -4.191406 4.578125 -3.785156 C 4.5 -3.625 4.546875 -3.671875 4.386719 -3.640625 C 4.289062 -3.609375 4.078125 -3.640625 3.980469 -3.65625 C 3.800781 -3.671875 3.59375 -3.707031 3.460938 -3.820312 C 3.234375 -4.011719 3.269531 -4.320312 3.300781 -4.59375 C 3.332031 -4.871094 3.414062 -5.128906 3.511719 -5.386719 C 3.558594 -5.484375 3.867188 -6.003906 3.820312 -6.101562 C 3.800781 -6.148438 3.625 -5.855469 3.609375 -5.839844 C 3.707031 -6.019531 3.800781 -6.117188 3.882812 -6.230469 C 3.867188 -6.230469 3.882812 -6.246094 3.898438 -6.277344 L 3.898438 -6.261719 L 3.914062 -6.292969 C 3.914062 -6.292969 3.914062 -6.308594 3.933594 -6.308594 C 4.175781 -6.632812 4.773438 -7.363281 5.097656 -6.859375 C 5.339844 -6.441406 5.113281 -5.648438 5.03125 -5.242188 Z M 3.914062 -6.292969 L 3.933594 -6.308594 C 3.933594 -6.292969 3.914062 -6.292969 3.914062 -6.292969 Z M 3.914062 -6.292969 "/></g></g></g><g fill="#000000" fill-opacity="1"><g transform="translate(54.78339, 41.837782)"><g><path d="M 8.253906 -3.882812 C 8.1875 -4.351562 7.71875 -3.882812 7.574219 -3.753906 C 7.296875 -3.542969 7.007812 -3.367188 6.730469 -3.15625 C 6.359375 -2.894531 6.003906 -2.605469 5.648438 -2.3125 C 5.5 -2.199219 4.613281 -1.375 4.53125 -1.425781 C 4.789062 -2.234375 5.242188 -3.042969 5.679688 -3.800781 C 6.082031 -4.480469 5.257812 -5.066406 4.59375 -4.773438 C 4.402344 -4.691406 4.191406 -4.335938 4.0625 -4.160156 C 3.753906 -3.722656 3.460938 -3.253906 3.15625 -2.816406 L 2.71875 -2.152344 C 2.667969 -2.085938 2.363281 -1.632812 2.410156 -1.632812 C 2.425781 -1.632812 2.441406 -1.652344 2.460938 -1.667969 C 2.136719 -1.230469 1.667969 -0.679688 1.246094 -0.371094 C 0.664062 0.0820312 1.003906 -1.277344 1.085938 -1.503906 C 1.328125 -2.234375 1.730469 -2.929688 2.167969 -3.558594 C 2.234375 -3.65625 3.121094 -4.789062 3.414062 -5.066406 C 3.121094 -4.820312 2.25 -3.738281 2.101562 -3.558594 C 2.621094 -4.304688 3.445312 -5.484375 4.417969 -5.648438 L 4.207031 -5.566406 C 4.402344 -5.597656 4.839844 -5.582031 4.839844 -5.582031 L 4.789062 -5.628906 C 4.871094 -5.582031 4.917969 -5.519531 5.015625 -5.519531 C 5.421875 -5.535156 5.324219 -6.179688 5.144531 -6.375 C 4.902344 -6.699219 4.320312 -6.828125 3.933594 -6.730469 C 3.820312 -6.699219 3.769531 -6.632812 3.640625 -6.617188 C 3.496094 -6.585938 3.382812 -6.617188 3.203125 -6.519531 C 2.878906 -6.359375 2.605469 -6.132812 2.347656 -5.875 C 2.183594 -5.726562 0.632812 -4.0625 0.746094 -3.996094 C 0.777344 -3.996094 0.808594 -4.027344 0.824219 -4.046875 L 0.550781 -3.640625 C 0.535156 -3.65625 0.613281 -3.769531 0.597656 -3.769531 C 0.535156 -3.800781 0.210938 -3.269531 0.195312 -3.21875 C 0.03125 -2.960938 -0.0976562 -2.667969 -0.144531 -2.363281 C -0.210938 -2.023438 -0.226562 -1.652344 -0.226562 -1.3125 C -0.226562 -1.085938 -0.210938 -0.859375 -0.144531 -0.648438 C -0.128906 -0.613281 0.0664062 -0.242188 0.03125 -0.40625 L 0.0820312 -0.292969 C 0.0664062 -0.292969 0.046875 -0.308594 0.03125 -0.324219 C -0.03125 -0.210938 0.582031 0.339844 0.695312 0.386719 C 0.9375 0.5 1.164062 0.4375 1.40625 0.292969 C 1.941406 -0.03125 2.3125 -0.648438 2.6875 -1.164062 C 3.089844 -1.714844 3.542969 -2.28125 3.882812 -2.894531 L 3.527344 -1.632812 C 3.382812 -1.164062 3.300781 -0.46875 3.007812 -0.0976562 C 2.703125 0.273438 2.25 0.597656 1.910156 0.921875 C 1.554688 1.246094 1.199219 1.570312 0.875 1.941406 C 0.40625 2.476562 -0.03125 3.058594 -0.4375 3.640625 C -0.90625 4.320312 -1.230469 5.046875 -0.90625 5.839844 C -0.613281 6.535156 0.046875 7.183594 0.859375 6.988281 C 1.554688 6.8125 1.8125 6.230469 2.121094 5.679688 C 3.089844 3.996094 3.574219 2.054688 4.125 0.195312 C 4.207031 -0.0820312 4.253906 -0.355469 4.449219 -0.566406 C 4.644531 -0.761719 4.886719 -0.9375 5.113281 -1.117188 C 5.566406 -1.519531 6.035156 -1.894531 6.519531 -2.28125 L 7.832031 -3.285156 C 8.042969 -3.445312 8.316406 -3.574219 8.253906 -3.882812 Z M 2.523438 1.617188 C 2.523438 1.601562 2.441406 1.828125 2.460938 1.796875 C 2.121094 2.78125 1.796875 3.769531 1.34375 4.707031 C 1.117188 5.179688 0.046875 7.121094 -0.339844 5.695312 C -0.597656 4.789062 0.273438 3.753906 0.777344 3.089844 C 1.390625 2.296875 2.023438 1.585938 2.75 0.90625 C 2.6875 1.148438 2.605469 1.390625 2.523438 1.617188 Z M 2.460938 2.75 C 2.363281 3.105469 2.25 3.460938 2.101562 3.800781 C 1.957031 4.078125 1.765625 4.320312 1.617188 4.578125 C 1.910156 3.949219 2.214844 3.347656 2.460938 2.703125 Z M 1.652344 -3.234375 C 1.554688 -3.058594 1.40625 -2.894531 1.277344 -2.71875 C 1.40625 -3.007812 1.539062 -3.269531 1.78125 -3.527344 C 1.828125 -3.574219 1.910156 -3.65625 1.957031 -3.738281 Z M 1.632812 -2.816406 L 1.488281 -2.605469 C 1.585938 -2.78125 1.699219 -2.960938 1.828125 -3.140625 Z M 1.632812 -2.816406 "/></g></g></g><g fill="#000000" fill-opacity="1"><g transform="translate(61.853892, 41.837782)"><g><path d="M 5.242188 -3.558594 C 5.324219 -3.65625 5.355469 -3.835938 5.308594 -3.964844 C 5.179688 -4.320312 4.773438 -3.882812 4.613281 -3.753906 C 4.367188 -3.574219 4.09375 -3.414062 3.835938 -3.234375 C 3.058594 -2.71875 2.328125 -2.152344 1.601562 -1.570312 C 1.894531 -2.394531 2.425781 -3.121094 2.800781 -3.882812 C 3.171875 -4.628906 1.859375 -5.226562 1.457031 -4.628906 C 1.40625 -4.546875 1.390625 -4.351562 1.34375 -4.238281 C 1.246094 -3.980469 1.164062 -3.6875 1.066406 -3.414062 C 0.890625 -2.847656 0.710938 -2.265625 0.519531 -1.699219 L 0.210938 -0.746094 C 0.144531 -0.535156 0.0976562 -0.371094 -0.046875 -0.226562 C -0.160156 -0.0976562 -0.324219 0.015625 -0.453125 0.144531 C -0.988281 0.613281 -1.519531 1.101562 -2.007812 1.601562 C -2.363281 1.957031 -2.667969 2.363281 -2.945312 2.75 C -3.285156 3.234375 -3.671875 3.671875 -3.964844 4.191406 C -4.5 5.144531 -4.773438 6.457031 -3.445312 6.941406 C -2.863281 7.152344 -2.234375 7.023438 -1.78125 6.617188 C -1.40625 6.277344 -1.179688 5.742188 -0.9375 5.308594 C -0.632812 4.773438 -0.355469 4.238281 -0.144531 3.65625 C 0.144531 2.945312 0.386719 2.199219 0.648438 1.472656 C 0.90625 0.777344 1.035156 -0.324219 1.617188 -0.808594 C 2.25 -1.34375 2.894531 -1.859375 3.558594 -2.363281 C 4.078125 -2.765625 4.613281 -3.21875 5.195312 -3.542969 C 5.160156 -3.542969 5.144531 -3.558594 5.128906 -3.59375 C 5.210938 -3.640625 5.179688 -3.59375 5.242188 -3.558594 Z M -1.066406 2.847656 L -1.066406 2.800781 C -1.101562 2.863281 -1.132812 2.992188 -1.148438 3.007812 C -1.503906 3.898438 -1.875 4.773438 -2.394531 5.566406 C -2.554688 5.808594 -2.878906 6.292969 -3.234375 6.214844 C -3.625 6.117188 -3.6875 5.550781 -3.640625 5.226562 C -3.496094 4.304688 -2.765625 3.496094 -2.199219 2.800781 C -1.617188 2.085938 -1.019531 1.441406 -0.324219 0.839844 L -1.035156 2.765625 C -1.035156 2.75 -1.035156 2.765625 -1.066406 2.847656 Z M 2.28125 -5.875 C 2.296875 -5.890625 2.328125 -5.808594 2.347656 -5.824219 C 2.460938 -5.875 2.507812 -5.90625 2.621094 -5.988281 C 2.78125 -6.148438 2.914062 -6.34375 3.074219 -6.488281 C 3.121094 -6.535156 3.007812 -6.503906 3.027344 -6.503906 C 3.140625 -6.632812 3.269531 -6.570312 3.414062 -6.78125 C 3.527344 -6.925781 3.558594 -7.234375 3.609375 -7.347656 L 3.640625 -7.347656 C 3.671875 -7.523438 3.785156 -7.507812 3.882812 -7.6875 C 3.964844 -7.847656 3.949219 -8.074219 3.882812 -8.253906 C 3.851562 -8.316406 3.820312 -8.382812 3.769531 -8.429688 C 3.542969 -8.671875 2.976562 -8.707031 2.652344 -8.625 C 2.574219 -8.609375 2.460938 -8.59375 2.378906 -8.542969 C 2.3125 -8.511719 2.199219 -8.445312 2.183594 -8.347656 C 2.183594 -8.300781 2.25 -8.027344 2.328125 -8.140625 C 2.347656 -8.15625 2.328125 -8.1875 2.3125 -8.203125 C 2.476562 -8.089844 2.492188 -8.089844 2.476562 -7.863281 C 2.476562 -7.765625 2.296875 -6.988281 2.152344 -6.617188 L 2.296875 -6.875 C 2.183594 -6.617188 2.070312 -6.375 1.925781 -6.148438 C 2.023438 -6.375 1.84375 -6.101562 1.84375 -6.066406 C 1.765625 -6.082031 1.746094 -5.96875 1.765625 -5.90625 C 1.828125 -5.550781 2.136719 -5.839844 2.28125 -5.875 Z M -0.0820312 1.632812 C -0.113281 1.894531 -0.324219 2.152344 -0.4375 2.410156 C -0.386719 2.28125 -0.339844 1.925781 -0.242188 1.84375 C -0.179688 1.796875 -0.144531 1.699219 -0.0820312 1.632812 Z M -0.308594 2.976562 L -0.355469 3.074219 L -0.355469 3.058594 L -0.40625 3.171875 L -0.453125 3.253906 L -0.5 3.382812 L -0.550781 3.527344 C -0.535156 3.445312 -0.535156 3.367188 -0.5 3.285156 C -0.46875 3.121094 -0.371094 2.992188 -0.308594 2.863281 L -0.308594 2.945312 L -0.242188 2.75 C -0.242188 2.734375 -0.242188 2.71875 -0.226562 2.703125 C -0.242188 2.800781 -0.273438 2.894531 -0.308594 2.976562 Z M -0.160156 2.539062 C -0.113281 2.363281 -0.0664062 2.152344 0.03125 2.054688 L 0.0664062 2.023438 L 0.015625 2.121094 C -0.03125 2.265625 -0.0976562 2.441406 -0.160156 2.589844 L -0.160156 2.574219 L -0.179688 2.574219 C -0.179688 2.554688 -0.160156 2.539062 -0.160156 2.539062 Z M 2.023438 -6.40625 C 2.054688 -6.390625 2.085938 -6.441406 2.121094 -6.554688 C 2.070312 -6.472656 2.023438 -6.40625 2.023438 -6.40625 Z M -0.0976562 2.394531 L -0.0664062 2.296875 C -0.0820312 2.328125 -0.0976562 2.363281 -0.0976562 2.394531 Z M -0.046875 2.234375 C -0.0664062 2.25 -0.0664062 2.265625 -0.0664062 2.296875 Z M -0.179688 2.605469 L -0.195312 2.605469 L -0.179688 2.589844 Z M 1.875 -6.066406 L 1.875 -6.050781 L 1.859375 -6.050781 C 1.859375 -6.050781 1.875 -6.050781 1.875 -6.066406 Z M 1.875 -6.066406 "/></g></g></g><g fill="#000000" fill-opacity="1"><g transform="translate(65.99588, 41.837782)"><g><path d="M 8.234375 -3.898438 C 8.21875 -4.253906 7.929688 -3.949219 7.832031 -3.820312 C 7.621094 -3.511719 7.425781 -3.1875 7.234375 -2.878906 C 6.796875 -2.214844 6.359375 -1.554688 5.855469 -0.921875 C 4.191406 1.132812 5.355469 -2.523438 5.226562 -2.492188 C 5.160156 -2.476562 5.113281 -2.234375 5.097656 -2.183594 C 5.226562 -2.765625 5.46875 -3.460938 5.777344 -4.027344 C 5.953125 -4.386719 6.164062 -4.675781 5.839844 -5.066406 C 5.242188 -5.792969 4.546875 -5.128906 4.160156 -4.628906 C 3.996094 -5.242188 3.671875 -6.148438 2.878906 -6.148438 C 2.523438 -6.148438 2.3125 -5.96875 2.070312 -5.761719 C 1.925781 -5.664062 1.8125 -5.648438 1.683594 -5.535156 C 1.472656 -5.386719 1.328125 -5.160156 1.179688 -4.96875 C 0.632812 -4.160156 0.242188 -3.140625 0.0664062 -2.199219 C -0.015625 -1.746094 -0.046875 -1.246094 0.0820312 -0.792969 C 0.160156 -0.535156 0.453125 0.046875 0.824219 0 C 0.839844 0 0.808594 -0.015625 0.761719 -0.046875 C 0.988281 0.015625 1.246094 -0.015625 1.441406 -0.144531 C 1.457031 -0.113281 1.261719 -0.03125 1.261719 -0.03125 C 1.441406 0.242188 2.765625 -1.359375 2.863281 -1.503906 C 3.074219 -1.796875 3.21875 -2.101562 3.414062 -2.410156 C 3.558594 -2.636719 3.785156 -2.929688 3.949219 -3.171875 C 3.933594 -3.058594 3.933594 -2.914062 3.933594 -2.914062 C 3.640625 -1.988281 3.367188 -0.988281 3.753906 -0.03125 C 3.933594 0.453125 4.367188 0.90625 4.917969 0.808594 C 5.40625 0.726562 5.808594 0.257812 6.101562 -0.113281 C 6.457031 -0.535156 6.761719 -1.003906 7.070312 -1.488281 C 7.328125 -1.925781 7.574219 -2.363281 7.78125 -2.847656 C 7.914062 -3.15625 8.269531 -3.527344 8.234375 -3.898438 Z M 3.59375 -3.785156 C 3.511719 -3.671875 3.429688 -3.558594 3.367188 -3.445312 L 2.945312 -2.847656 C 2.667969 -2.441406 2.378906 -2.054688 2.070312 -1.683594 C 1.988281 -1.570312 1.601562 -1.066406 1.441406 -1.117188 C 1.199219 -1.199219 1.457031 -2.039062 1.488281 -2.167969 C 1.539062 -2.394531 2.394531 -4.886719 2.621094 -4.933594 C 2.328125 -4.953125 1.390625 -2.023438 1.34375 -1.78125 C 1.472656 -2.574219 1.765625 -3.347656 2.085938 -4.078125 C 2.265625 -4.449219 2.667969 -5.4375 3.203125 -5.4375 C 3.496094 -5.4375 3.558594 -4.839844 3.609375 -4.644531 C 3.59375 -4.675781 3.445312 -5.144531 3.429688 -5.128906 C 3.347656 -5.066406 3.671875 -4.175781 3.671875 -4.046875 C 3.671875 -3.914062 3.671875 -3.914062 3.59375 -3.785156 Z M 3.964844 -2.992188 C 3.964844 -2.992188 4.011719 -3.21875 4.027344 -3.269531 L 4.109375 -3.382812 Z M 3.722656 -3.996094 L 3.722656 -4.160156 C 3.769531 -4.09375 3.769531 -4.046875 3.722656 -3.996094 Z M 3.722656 -3.996094 "/></g></g></g></svg>