<svg xmlns="http://www.w3.org/2000/svg" xmlns:xlink="http://www.w3.org/1999/xlink" width="2240" zoomAndPan="magnify" viewBox="0 0 1680 749.999995" height="1000" preserveAspectRatio="xMidYMid meet" version="1.0"><defs><g/></defs><g fill="#000000" fill-opacity="1"><g transform="translate(4.011981, 462.218297)"><g><path d="M 241.699219 -256.625 C 240.242188 -268.636719 235.511719 -288.292969 220.222656 -288.292969 C 208.574219 -288.292969 194.378906 -270.457031 187.097656 -262.8125 C 169.261719 -244.246094 152.882812 -223.5 137.230469 -202.386719 C 104.105469 -157.613281 73.894531 -109.203125 50.960938 -58.242188 C 61.878906 -90.273438 70.980469 -123.398438 83.355469 -154.703125 C 83.722656 -156.15625 107.746094 -212.941406 113.207031 -222.40625 C 109.566406 -216.582031 98.644531 -193.285156 93.550781 -182.730469 C 103.011719 -203.84375 113.207031 -224.957031 123.761719 -245.339844 C 122.667969 -243.15625 121.214844 -239.515625 121.578125 -239.515625 C 123.035156 -239.152344 130.679688 -254.074219 129.585938 -254.441406 L 128.128906 -253.347656 C 130.3125 -256.625 131.769531 -258.445312 129.949219 -263.539062 C 127.402344 -269.726562 120.484375 -277.007812 113.933594 -278.101562 C 104.105469 -279.554688 97.554688 -270.089844 93.550781 -262.449219 C 91.367188 -258.078125 87.359375 -255.53125 84.449219 -250.433594 C 79.71875 -242.792969 76.441406 -234.417969 73.164062 -226.046875 C 71.34375 -222.40625 51.6875 -176.179688 52.78125 -175.8125 L 53.871094 -177.269531 C 52.417969 -173.996094 51.6875 -170.355469 50.234375 -167.078125 C 49.867188 -167.441406 51.324219 -169.992188 50.597656 -170.355469 C 47.320312 -171.082031 36.765625 -137.957031 36.402344 -135.410156 C 34.945312 -127.765625 33.125 -120.851562 30.578125 -113.570312 C 28.757812 -108.835938 26.9375 -104.105469 25.84375 -99.007812 C 25.84375 -98.644531 24.386719 -91 25.117188 -91.367188 L 25.117188 -89.546875 C 24.753906 -89.910156 24.753906 -90.636719 24.753906 -91 C 23.660156 -90.636719 21.839844 -78.625 21.476562 -77.53125 C 18.929688 -71.34375 16.015625 -65.519531 14.195312 -58.96875 C 9.101562 -41.132812 6.917969 -22.933594 4.367188 -4.730469 C 2.546875 6.917969 -4.003906 27.664062 3.277344 38.21875 C 8.371094 45.5 25.84375 52.417969 32.761719 43.316406 C 35.671875 40.039062 34.945312 33.851562 35.671875 30.578125 C 37.855469 12.375 42.589844 -2.546875 49.503906 -19.65625 C 63.699219 -54.601562 81.171875 -88.453125 100.828125 -120.851562 C 117.210938 -147.058594 132.496094 -174.359375 151.789062 -198.746094 C 163.800781 -214.035156 175.8125 -229.324219 188.917969 -243.519531 C 191.832031 -246.796875 204.570312 -262.449219 210.394531 -260.261719 C 217.675781 -257.714844 210.757812 -232.597656 209.667969 -227.503906 C 205.664062 -209.304688 200.566406 -191.101562 194.378906 -173.265625 C 184.1875 -144.144531 174.722656 -114.296875 162.347656 -86.632812 C 154.339844 -68.796875 145.238281 -51.324219 135.773438 -34.582031 C 127.765625 -21.113281 116.480469 2.183594 99.375 6.550781 C 79.71875 11.285156 66.613281 -17.835938 60.0625 -32.03125 C 60.0625 -6.1875 75.347656 20.75 103.011719 25.480469 C 131.042969 30.210938 155.066406 0.726562 169.261719 -19.292969 C 180.546875 -34.945312 190.738281 -52.417969 198.746094 -69.890625 C 200.566406 -74.257812 200.929688 -78.625 202.023438 -82.628906 C 203.84375 -89.546875 208.9375 -96.097656 211.851562 -102.648438 C 219.859375 -120.851562 226.773438 -138.6875 232.234375 -157.613281 C 235.148438 -166.714844 237.695312 -175.8125 239.515625 -185.277344 C 240.242188 -188.917969 240.972656 -193.285156 241.335938 -196.925781 C 241.335938 -199.109375 239.878906 -202.386719 239.878906 -203.113281 C 239.515625 -211.851562 242.425781 -220.949219 242.792969 -230.050781 C 243.15625 -238.789062 242.792969 -247.886719 241.699219 -256.625 Z M 44.410156 -127.039062 C 45.5 -135.773438 49.867188 -145.238281 53.144531 -153.609375 C 57.148438 -164.53125 61.152344 -174.722656 66.613281 -185.277344 C 73.527344 -199.109375 80.082031 -213.308594 88.089844 -226.773438 C 87.359375 -224.957031 86.996094 -221.316406 85.90625 -219.132812 C 84.449219 -215.855469 82.265625 -212.578125 80.808594 -208.9375 C 77.167969 -200.929688 73.894531 -192.921875 69.890625 -184.914062 C 64.792969 -174.359375 60.0625 -164.167969 55.691406 -153.609375 C 53.144531 -147.785156 51.324219 -141.960938 49.140625 -136.136719 C 48.046875 -132.496094 46.957031 -124.855469 44.773438 -122.304688 C 44.042969 -121.578125 44.410156 -127.039062 44.410156 -127.039062 Z M 159.070312 -58.96875 C 157.976562 -57.148438 156.886719 -55.328125 156.15625 -53.507812 L 154.339844 -49.867188 C 153.972656 -49.867188 153.972656 -49.503906 153.972656 -49.140625 C 147.058594 -36.402344 139.414062 -23.296875 131.40625 -11.648438 C 130.3125 -10.191406 107.382812 18.929688 104.105469 11.285156 C 103.742188 10.191406 111.386719 8.734375 111.75 8.371094 C 116.84375 5.824219 121.214844 0.363281 124.855469 -4.003906 C 133.589844 -15.289062 141.234375 -28.027344 148.148438 -40.40625 C 153.972656 -50.597656 159.433594 -60.789062 164.167969 -70.980469 L 161.253906 -64.066406 C 162.710938 -66.976562 163.800781 -69.890625 164.894531 -72.800781 L 167.078125 -77.898438 L 166.714844 -76.078125 C 167.441406 -77.898438 168.171875 -80.082031 169.261719 -81.902344 L 169.261719 -82.265625 C 171.082031 -85.90625 172.539062 -88.816406 172.902344 -88.816406 C 172.902344 -88.453125 160.527344 -61.515625 159.070312 -59.332031 Z M 185.640625 -97.917969 C 183.824219 -90.636719 181.273438 -83.355469 178 -76.804688 C 175.085938 -71.34375 169.992188 -65.886719 168.171875 -60.0625 C 172.539062 -73.164062 180.183594 -85.175781 185.640625 -98.28125 Z M 49.867188 -119.03125 C 46.957031 -114.296875 48.046875 -108.835938 46.59375 -104.105469 C 45.5 -101.921875 41.496094 -97.554688 40.769531 -94.640625 C 40.769531 -96.824219 41.496094 -99.738281 41.859375 -101.558594 C 42.222656 -105.199219 44.042969 -106.652344 45.863281 -109.566406 C 47.320312 -111.75 48.046875 -119.03125 50.960938 -120.121094 Z M 131.769531 -10.554688 C 136.867188 -18.199219 141.960938 -26.207031 146.695312 -34.945312 C 141.960938 -25.84375 137.230469 -17.835938 131.769531 -10.554688 Z M 93.183594 -235.875 C 94.640625 -235.148438 94.277344 -234.417969 92.457031 -232.597656 C 91.730469 -233.328125 91.730469 -234.417969 93.183594 -235.875 Z M 84.449219 -161.253906 L 84.449219 -160.890625 L 78.625 -147.058594 L 88.089844 -170.355469 C 86.996094 -167.078125 85.90625 -164.167969 84.449219 -161.253906 Z M 149.96875 -41.496094 C 149.96875 -40.769531 149.605469 -40.40625 149.242188 -39.675781 Z M 165.257812 -73.527344 C 165.257812 -73.164062 165.257812 -73.164062 164.894531 -72.800781 C 164.894531 -73.164062 165.257812 -73.164062 165.257812 -73.527344 Z M 165.257812 -73.527344 "/></g></g></g><g fill="#000000" fill-opacity="1"><g transform="translate(225.326673, 462.218297)"><g><path d="M 185.277344 -87.726562 C 184.914062 -95.734375 178.363281 -88.816406 176.179688 -85.90625 C 171.445312 -78.988281 167.078125 -71.710938 162.710938 -64.792969 C 152.882812 -49.867188 143.054688 -34.945312 131.769531 -20.75 C 94.277344 25.480469 120.484375 -56.785156 117.574219 -56.058594 C 116.117188 -55.691406 115.027344 -50.234375 114.660156 -49.140625 C 117.574219 -62.246094 123.035156 -77.898438 129.949219 -90.636719 C 133.953125 -98.644531 138.6875 -105.199219 131.40625 -113.933594 C 117.9375 -130.3125 102.285156 -115.390625 93.550781 -104.105469 C 89.910156 -117.9375 82.628906 -138.320312 64.792969 -138.320312 C 56.785156 -138.320312 52.050781 -134.316406 46.59375 -129.585938 C 43.316406 -127.402344 40.769531 -127.039062 37.855469 -124.488281 C 33.125 -121.214844 29.847656 -116.117188 26.574219 -111.75 C 14.195312 -93.550781 5.460938 -70.617188 1.457031 -49.503906 C -0.363281 -39.3125 -1.09375 -28.027344 1.820312 -17.835938 C 3.640625 -12.011719 10.191406 1.09375 18.5625 0 C 18.929688 0 18.199219 -0.363281 17.109375 -1.09375 C 22.203125 0.363281 28.027344 -0.363281 32.394531 -3.277344 C 32.761719 -2.546875 28.390625 -0.726562 28.390625 -0.726562 C 32.394531 5.460938 62.246094 -30.578125 64.429688 -33.851562 C 69.160156 -40.40625 72.4375 -47.320312 76.804688 -54.238281 C 80.082031 -59.332031 85.175781 -65.886719 88.816406 -71.34375 C 88.453125 -68.796875 88.453125 -65.519531 88.453125 -65.519531 C 81.902344 -44.773438 75.714844 -22.203125 84.449219 -0.726562 C 88.453125 10.191406 98.28125 20.382812 110.65625 18.199219 C 121.578125 16.378906 130.679688 5.824219 137.230469 -2.546875 C 145.238281 -12.011719 152.152344 -22.566406 159.070312 -33.488281 C 164.894531 -43.316406 170.355469 -53.144531 175.085938 -64.066406 C 178 -70.980469 186.007812 -79.351562 185.277344 -87.726562 Z M 80.808594 -85.175781 C 78.988281 -82.628906 77.167969 -80.082031 75.714844 -77.53125 L 66.25 -64.066406 C 60.0625 -54.964844 53.507812 -46.230469 46.59375 -37.855469 C 44.773438 -35.308594 36.035156 -24.023438 32.394531 -25.117188 C 26.9375 -26.9375 32.761719 -45.863281 33.488281 -48.777344 C 34.582031 -53.871094 53.871094 -109.929688 58.96875 -111.023438 C 52.417969 -111.386719 31.304688 -45.5 30.210938 -40.039062 C 33.125 -57.875 39.675781 -75.347656 46.957031 -91.730469 C 50.960938 -100.101562 60.0625 -122.304688 72.074219 -122.304688 C 78.625 -122.304688 80.082031 -108.835938 81.171875 -104.46875 C 80.808594 -105.199219 77.53125 -115.753906 77.167969 -115.390625 C 75.347656 -113.933594 82.628906 -93.914062 82.628906 -91 C 82.628906 -88.089844 82.628906 -88.089844 80.808594 -85.175781 Z M 89.179688 -67.339844 C 89.179688 -67.339844 90.273438 -72.4375 90.636719 -73.527344 L 92.457031 -76.078125 Z M 83.722656 -89.910156 L 83.722656 -93.550781 C 84.8125 -92.09375 84.8125 -91 83.722656 -89.910156 Z M 83.722656 -89.910156 "/></g></g></g><g fill="#000000" fill-opacity="1"><g transform="translate(384.03253, 462.218297)"><g><path d="M 180.546875 -89.546875 C 178.726562 -89.546875 176.179688 -85.90625 175.085938 -84.8125 C 169.992188 -79.71875 165.621094 -73.894531 161.253906 -68.433594 C 149.242188 -54.601562 137.230469 -40.40625 124.125 -27.664062 C 120.851562 -24.753906 112.476562 -14.925781 107.746094 -18.199219 C 104.832031 -20.019531 107.382812 -31.667969 107.746094 -34.214844 C 108.472656 -37.492188 115.027344 -54.601562 112.839844 -56.785156 C 111.75 -57.511719 109.929688 -52.050781 109.566406 -51.6875 C 115.390625 -72.074219 127.039062 -95.371094 136.5 -115.390625 C 141.960938 -126.308594 148.878906 -139.777344 139.777344 -151.0625 C 123.761719 -170.71875 103.742188 -145.601562 92.820312 -133.953125 C 88.089844 -128.859375 42.222656 -72.800781 42.953125 -72.4375 C 42.953125 -72.4375 46.230469 -76.441406 50.960938 -81.902344 C 44.042969 -72.800781 37.492188 -63.699219 31.304688 -54.238281 C 35.308594 -69.160156 39.675781 -83.722656 44.410156 -98.28125 C 46.957031 -105.5625 49.140625 -113.207031 51.6875 -120.851562 C 54.601562 -128.859375 56.785156 -132.132812 62.972656 -137.957031 C 73.527344 -147.421875 83.722656 -157.613281 93.183594 -168.535156 C 96.824219 -172.902344 99.375 -178 103.011719 -182.003906 C 106.289062 -185.277344 111.023438 -188.191406 114.660156 -192.195312 C 133.226562 -214.035156 148.148438 -241.335938 160.527344 -266.816406 C 165.984375 -278.828125 171.082031 -291.203125 174.722656 -303.945312 C 175.449219 -306.855469 183.457031 -340.34375 181.636719 -340.34375 C 181.273438 -340.34375 181.273438 -339.980469 180.910156 -339.253906 C 181.273438 -345.078125 180.910156 -351.628906 178.726562 -357.453125 C 179.089844 -357.453125 180.910156 -351.992188 180.910156 -351.992188 C 183.09375 -353.449219 176.542969 -364.734375 175.085938 -366.1875 C 171.808594 -369.464844 167.078125 -371.285156 162.347656 -371.285156 C 152.882812 -372.011719 144.144531 -366.917969 136.867188 -361.457031 C 123.035156 -350.902344 113.207031 -335.25 103.011719 -321.050781 C 97.1875 -313.042969 91.730469 -305.035156 86.632812 -296.664062 C 82.992188 -291.203125 74.984375 -281.375 74.984375 -274.824219 C 75.347656 -274.460938 75.714844 -274.460938 75.714844 -274.460938 L 71.34375 -266.085938 C 71.34375 -266.085938 73.527344 -272.640625 73.894531 -273.003906 C 72.074219 -271.910156 70.253906 -264.269531 70.253906 -263.902344 C 56.058594 -236.238281 41.132812 -209.667969 31.304688 -180.183594 C 20.019531 -147.058594 11.648438 -112.839844 5.460938 -78.625 C 2.546875 -62.972656 -1.09375 -45.863281 0.363281 -29.847656 C 0.363281 -25.480469 0.726562 -20.382812 4.003906 -16.746094 C 8.007812 -11.648438 16.378906 -9.828125 21.113281 -14.925781 C 22.566406 -16.746094 22.566406 -17.835938 23.296875 -19.65625 L 29.847656 -31.304688 C 38.585938 -44.773438 49.140625 -57.148438 57.511719 -70.980469 C 58.605469 -73.164062 59.695312 -75.714844 61.152344 -77.53125 C 62.972656 -79.71875 63.699219 -78.625 65.886719 -80.445312 C 72.074219 -85.542969 76.804688 -93.183594 81.902344 -99.375 C 92.457031 -112.476562 103.011719 -127.402344 116.480469 -138.320312 L 105.925781 -112.839844 L 107.015625 -113.933594 L 101.558594 -101.558594 C 101.195312 -101.921875 102.648438 -105.199219 102.648438 -105.5625 C 101.195312 -105.5625 94.277344 -91.367188 93.550781 -89.910156 C 89.179688 -81.171875 84.449219 -72.4375 81.902344 -63.335938 C 79.71875 -54.601562 77.167969 -45.863281 74.621094 -37.128906 C 73.527344 -31.667969 72.4375 -26.207031 72.800781 -20.75 C 72.800781 -19.292969 75.714844 -6.1875 76.804688 -7.28125 L 76.804688 -8.734375 C 77.53125 -6.550781 78.261719 -4.730469 79.351562 -2.910156 L 77.167969 -6.1875 C 76.078125 -3.640625 85.90625 4.730469 86.996094 5.824219 C 92.457031 11.285156 97.917969 14.925781 106.289062 15.289062 C 113.207031 15.652344 116.84375 13.105469 121.941406 8.371094 C 135.773438 -5.097656 145.601562 -23.660156 156.15625 -39.675781 C 161.980469 -48.046875 167.804688 -56.785156 173.265625 -65.519531 C 174.722656 -67.339844 184.550781 -87.726562 183.09375 -87.359375 C 185.277344 -87.726562 181.273438 -89.546875 180.546875 -89.546875 Z M 148.878906 -334.519531 L 148.878906 -334.882812 C 148.878906 -334.882812 149.242188 -334.882812 149.242188 -335.25 L 149.242188 -334.882812 C 149.605469 -335.613281 149.96875 -336.339844 149.605469 -335.976562 C 152.519531 -340.34375 159.796875 -353.449219 164.894531 -349.082031 C 169.992188 -344.710938 165.257812 -329.425781 163.800781 -323.964844 C 160.890625 -312.679688 156.523438 -301.761719 152.152344 -291.203125 C 143.417969 -270.820312 132.496094 -251.527344 120.484375 -232.597656 C 114.660156 -223.5 108.472656 -214.398438 102.285156 -205.664062 C 99.007812 -201.292969 95.734375 -196.925781 92.09375 -192.558594 L 89.179688 -189.28125 L 95.734375 -195.835938 L 110.292969 -216.21875 C 118.300781 -227.140625 125.945312 -239.152344 133.226562 -251.164062 C 114.660156 -218.402344 92.09375 -187.460938 65.886719 -159.796875 L 76.804688 -188.554688 C 77.898438 -190.738281 85.542969 -212.214844 85.542969 -212.214844 C 84.8125 -211.851562 83.722656 -210.03125 82.628906 -208.210938 C 91.367188 -228.230469 102.648438 -248.980469 112.839844 -269 C 124.125 -290.839844 135.410156 -313.410156 148.515625 -334.15625 C 148.515625 -334.15625 148.878906 -334.15625 148.878906 -334.519531 Z M 57.511719 -156.15625 C 60.789062 -175.8125 69.890625 -194.378906 76.441406 -213.308594 C 82.265625 -229.324219 91.730469 -243.882812 99.007812 -259.171875 C 102.285156 -266.453125 137.230469 -333.066406 137.957031 -332.699219 C 140.871094 -330.878906 96.097656 -245.339844 91.367188 -235.148438 C 87.359375 -227.503906 83.722656 -220.222656 80.808594 -211.851562 C 78.261719 -203.84375 73.894531 -197.289062 70.980469 -189.648438 C 69.523438 -186.007812 54.964844 -147.785156 56.058594 -147.421875 C 55.328125 -147.421875 56.785156 -153.246094 57.148438 -155.066406 Z M 82.628906 -181.636719 C 83.355469 -182.367188 84.085938 -183.824219 85.175781 -184.914062 C 84.085938 -183.824219 83.355469 -182.730469 82.628906 -181.636719 Z M 148.878906 -334.519531 L 148.878906 -334.882812 L 149.242188 -334.882812 Z M 57.511719 -155.792969 C 57.511719 -155.429688 57.148438 -155.066406 57.148438 -155.066406 C 57.148438 -155.429688 57.511719 -155.429688 57.511719 -155.792969 Z M 57.511719 -155.792969 "/></g></g></g><g fill="#000000" fill-opacity="1"><g transform="translate(540.918385, 462.218297)"><g><path d="M 185.277344 -87.726562 C 184.914062 -95.734375 178.363281 -88.816406 176.179688 -85.90625 C 171.445312 -78.988281 167.078125 -71.710938 162.710938 -64.792969 C 152.882812 -49.867188 143.054688 -34.945312 131.769531 -20.75 C 94.277344 25.480469 120.484375 -56.785156 117.574219 -56.058594 C 116.117188 -55.691406 115.027344 -50.234375 114.660156 -49.140625 C 117.574219 -62.246094 123.035156 -77.898438 129.949219 -90.636719 C 133.953125 -98.644531 138.6875 -105.199219 131.40625 -113.933594 C 117.9375 -130.3125 102.285156 -115.390625 93.550781 -104.105469 C 89.910156 -117.9375 82.628906 -138.320312 64.792969 -138.320312 C 56.785156 -138.320312 52.050781 -134.316406 46.59375 -129.585938 C 43.316406 -127.402344 40.769531 -127.039062 37.855469 -124.488281 C 33.125 -121.214844 29.847656 -116.117188 26.574219 -111.75 C 14.195312 -93.550781 5.460938 -70.617188 1.457031 -49.503906 C -0.363281 -39.3125 -1.09375 -28.027344 1.820312 -17.835938 C 3.640625 -12.011719 10.191406 1.09375 18.5625 0 C 18.929688 0 18.199219 -0.363281 17.109375 -1.09375 C 22.203125 0.363281 28.027344 -0.363281 32.394531 -3.277344 C 32.761719 -2.546875 28.390625 -0.726562 28.390625 -0.726562 C 32.394531 5.460938 62.246094 -30.578125 64.429688 -33.851562 C 69.160156 -40.40625 72.4375 -47.320312 76.804688 -54.238281 C 80.082031 -59.332031 85.175781 -65.886719 88.816406 -71.34375 C 88.453125 -68.796875 88.453125 -65.519531 88.453125 -65.519531 C 81.902344 -44.773438 75.714844 -22.203125 84.449219 -0.726562 C 88.453125 10.191406 98.28125 20.382812 110.65625 18.199219 C 121.578125 16.378906 130.679688 5.824219 137.230469 -2.546875 C 145.238281 -12.011719 152.152344 -22.566406 159.070312 -33.488281 C 164.894531 -43.316406 170.355469 -53.144531 175.085938 -64.066406 C 178 -70.980469 186.007812 -79.351562 185.277344 -87.726562 Z M 80.808594 -85.175781 C 78.988281 -82.628906 77.167969 -80.082031 75.714844 -77.53125 L 66.25 -64.066406 C 60.0625 -54.964844 53.507812 -46.230469 46.59375 -37.855469 C 44.773438 -35.308594 36.035156 -24.023438 32.394531 -25.117188 C 26.9375 -26.9375 32.761719 -45.863281 33.488281 -48.777344 C 34.582031 -53.871094 53.871094 -109.929688 58.96875 -111.023438 C 52.417969 -111.386719 31.304688 -45.5 30.210938 -40.039062 C 33.125 -57.875 39.675781 -75.347656 46.957031 -91.730469 C 50.960938 -100.101562 60.0625 -122.304688 72.074219 -122.304688 C 78.625 -122.304688 80.082031 -108.835938 81.171875 -104.46875 C 80.808594 -105.199219 77.53125 -115.753906 77.167969 -115.390625 C 75.347656 -113.933594 82.628906 -93.914062 82.628906 -91 C 82.628906 -88.089844 82.628906 -88.089844 80.808594 -85.175781 Z M 89.179688 -67.339844 C 89.179688 -67.339844 90.273438 -72.4375 90.636719 -73.527344 L 92.457031 -76.078125 Z M 83.722656 -89.910156 L 83.722656 -93.550781 C 84.8125 -92.09375 84.8125 -91 83.722656 -89.910156 Z M 83.722656 -89.910156 "/></g></g></g><g fill="#000000" fill-opacity="1"><g transform="translate(699.624265, 462.218297)"><g><path d="M 149.242188 -88.453125 C 147.058594 -97.917969 138.320312 -85.175781 136.5 -82.992188 L 116.480469 -56.058594 L 96.824219 -30.210938 L 86.269531 -16.746094 C 85.175781 -15.289062 77.167969 -5.097656 77.898438 -5.097656 C 78.625 -5.824219 79.71875 -5.824219 80.808594 -6.917969 C 75.347656 -1.09375 55.328125 17.109375 51.6875 12.738281 C 48.777344 9.101562 56.785156 -6.1875 57.875 -9.828125 C 61.878906 -20.382812 65.519531 -31.304688 69.890625 -41.496094 C 74.621094 -52.050781 80.082031 -62.609375 84.449219 -73.164062 C 88.816406 -84.449219 82.265625 -88.453125 71.710938 -91 C 66.976562 -92.09375 61.152344 -92.09375 55.691406 -92.820312 C 55.691406 -92.457031 56.058594 -92.457031 56.058594 -92.457031 C 60.789062 -91.730469 67.703125 -91.367188 73.527344 -89.546875 C 64.792969 -92.09375 53.871094 -91 46.957031 -92.820312 C 42.222656 -93.914062 39.3125 -93.914062 40.039062 -99.375 C 40.769531 -106.652344 48.414062 -114.296875 50.960938 -121.214844 C 50.960938 -120.851562 48.414062 -114.296875 48.777344 -114.296875 C 50.597656 -113.570312 53.507812 -123.761719 53.507812 -125.21875 C 53.144531 -127.039062 48.777344 -132.496094 48.414062 -130.3125 L 49.140625 -129.222656 C 31.667969 -141.234375 10.921875 -116.480469 14.558594 -98.644531 C 15.289062 -96.097656 16.746094 -94.640625 17.835938 -91.730469 C 18.5625 -89.546875 17.835938 -86.996094 20.019531 -84.085938 C 27.664062 -74.621094 41.496094 -74.257812 52.417969 -76.441406 C 50.597656 -73.894531 31.304688 -33.125 32.394531 -32.761719 L 29.847656 -23.660156 C 29.484375 -24.023438 30.941406 -26.9375 30.210938 -26.9375 C 27.664062 -27.300781 22.566406 -6.1875 22.203125 -4.367188 C 20.75 4.367188 21.113281 12.011719 24.753906 20.019531 C 26.9375 25.117188 29.484375 29.484375 34.214844 32.394531 C 38.585938 35.308594 44.042969 36.765625 49.140625 35.671875 C 50.960938 34.945312 57.875 30.210938 56.058594 30.578125 L 58.605469 29.484375 C 58.242188 29.847656 57.875 30.210938 57.875 30.578125 C 58.96875 30.941406 75.714844 17.472656 77.898438 16.015625 C 89.546875 6.1875 99.007812 -5.824219 107.746094 -17.835938 C 116.480469 -30.210938 125.582031 -42.589844 133.953125 -54.964844 C 137.957031 -60.789062 141.597656 -66.613281 144.511719 -72.800781 C 146.695312 -77.167969 150.335938 -83.355469 149.242188 -88.453125 Z M 40.40625 -44.773438 C 42.953125 -51.324219 45.863281 -57.511719 49.140625 -63.699219 C 49.867188 -64.792969 54.964844 -77.898438 57.511719 -78.625 C 55.691406 -77.53125 48.046875 -59.695312 46.230469 -56.421875 L 39.3125 -40.40625 C 35.671875 -31.667969 31.667969 -22.566406 29.121094 -13.105469 C 31.667969 -24.023438 36.035156 -34.582031 40.40625 -44.773438 Z M 31.667969 25.117188 C 33.851562 28.027344 36.765625 30.941406 40.769531 32.394531 C 37.492188 31.304688 34.582031 29.484375 32.394531 27.300781 C 32.761719 27.300781 32.761719 27.664062 32.761719 28.027344 C 30.578125 25.117188 27.664062 18.929688 27.300781 17.835938 C 26.207031 13.46875 25.84375 8.371094 26.207031 4.003906 C 26.207031 0.363281 26.574219 -2.546875 27.300781 -5.824219 L 27.300781 -5.460938 C 26.574219 -0.726562 26.207031 4.003906 26.574219 9.101562 L 26.574219 10.921875 C 26.207031 10.554688 26.207031 10.191406 26.207031 10.191406 C 26.207031 10.191406 26.207031 10.554688 26.574219 11.285156 L 26.574219 11.648438 L 28.027344 19.292969 L 26.9375 14.558594 C 27.664062 16.746094 29.484375 20.75 31.304688 24.753906 L 30.941406 24.386719 C 30.941406 24.753906 31.304688 25.117188 31.667969 25.480469 Z M 41.859375 -95.003906 C 43.679688 -93.550781 46.957031 -93.183594 50.234375 -92.820312 C 47.320312 -93.183594 44.773438 -93.914062 42.953125 -95.371094 C 42.953125 -95.371094 40.769531 -97.1875 40.40625 -97.917969 C 40.40625 -97.1875 41.132812 -95.371094 41.859375 -95.003906 Z M 80.082031 -66.613281 L 72.4375 -50.597656 L 80.082031 -66.976562 Z M 27.664062 -6.917969 C 27.664062 -6.550781 27.300781 -6.1875 27.300781 -5.824219 L 27.300781 -6.1875 C 27.300781 -6.550781 27.664062 -6.550781 27.664062 -6.917969 Z M 80.445312 -67.703125 L 80.445312 -67.339844 L 80.082031 -67.339844 Z M 80.445312 -67.703125 L 80.445312 -67.339844 L 80.082031 -67.339844 Z M 28.027344 -11.648438 C 28.027344 -12.011719 28.390625 -12.375 28.390625 -13.105469 C 28.390625 -12.375 28.027344 -12.011719 28.027344 -11.648438 Z M 29.484375 21.839844 C 29.484375 21.839844 29.847656 22.203125 29.847656 22.566406 C 29.847656 22.203125 29.484375 22.203125 29.484375 21.839844 Z M 40.769531 -98.644531 C 40.40625 -98.644531 40.40625 -98.28125 40.40625 -98.28125 Z M 40.769531 -98.644531 "/></g></g></g><g fill="#000000" fill-opacity="1"><g transform="translate(822.293707, 462.218297)"><g/></g></g><g fill="#000000" fill-opacity="1"><g transform="translate(924.214875, 462.218297)"><g><path d="M 226.410156 -253.710938 C 224.589844 -267.90625 197.65625 -269 190.375 -260.628906 C 189.28125 -259.535156 187.828125 -256.257812 185.640625 -254.441406 C 182.003906 -251.164062 183.457031 -252.621094 179.089844 -251.164062 C 168.898438 -248.25 158.707031 -245.339844 148.515625 -242.0625 C 141.234375 -239.878906 132.863281 -238.421875 125.582031 -235.148438 C 121.214844 -233.328125 118.664062 -231.144531 113.933594 -229.6875 C 98.28125 -225.320312 81.539062 -222.042969 68.070312 -215.128906 C 58.96875 -210.394531 47.683594 -207.117188 46.957031 -194.378906 C 46.957031 -190.738281 48.414062 -187.828125 50.234375 -184.550781 C 52.417969 -180.183594 55.328125 -178.726562 58.605469 -176.179688 L 66.25 -169.261719 C 70.980469 -164.894531 78.988281 -158.707031 85.542969 -159.070312 C 85.90625 -159.070312 92.09375 -161.253906 92.457031 -161.980469 C 95.734375 -165.984375 84.449219 -174.359375 82.265625 -177.269531 C 78.261719 -182.367188 72.4375 -190.375 74.257812 -197.289062 C 78.261719 -210.757812 104.105469 -215.492188 115.753906 -218.765625 C 124.855469 -221.316406 133.589844 -226.046875 142.691406 -228.59375 C 152.882812 -231.507812 162.710938 -232.964844 172.902344 -236.96875 C 150.699219 -201.660156 136.867188 -160.890625 122.667969 -122.304688 C 107.746094 -81.902344 93.550781 -40.769531 74.257812 -2.183594 C 69.890625 6.917969 58.605469 34.582031 44.410156 26.9375 C 37.128906 23.296875 33.488281 13.105469 30.941406 6.1875 C 26.9375 -3.640625 23.660156 -14.195312 20.75 -24.386719 C 15.289062 -44.410156 13.105469 -64.429688 10.554688 -85.175781 C 9.828125 -88.816406 8.371094 -100.101562 2.546875 -98.28125 C -2.546875 -96.460938 1.457031 -68.070312 1.09375 -63.335938 C 0 -42.953125 1.457031 -22.203125 6.550781 -2.183594 C 11.285156 16.746094 20.75 36.035156 38.585938 45.863281 C 46.59375 50.234375 56.421875 53.144531 65.519531 53.144531 C 74.984375 53.144531 80.445312 47.683594 85.542969 40.769531 C 108.109375 11.648438 120.851562 -23.296875 134.683594 -57.148438 C 138.6875 -66.613281 140.871094 -75.714844 143.417969 -84.8125 C 145.964844 -95.003906 151.425781 -104.832031 155.429688 -114.660156 C 163.074219 -133.589844 170.71875 -152.519531 179.453125 -171.445312 L 194.742188 -202.386719 C 198.382812 -208.9375 198.746094 -214.761719 203.113281 -220.585938 C 209.667969 -228.59375 216.21875 -236.238281 222.769531 -244.613281 C 224.589844 -247.160156 226.773438 -250.070312 226.410156 -253.710938 Z M 151.0625 -131.769531 C 144.144531 -116.117188 136.5 -103.011719 130.3125 -86.996094 L 153.246094 -147.058594 C 156.523438 -156.15625 160.890625 -164.53125 165.257812 -173.265625 C 159.796875 -160.527344 156.886719 -144.144531 151.0625 -131.769531 Z M 151.0625 -131.769531 "/></g></g></g><g fill="#000000" fill-opacity="1"><g transform="translate(1093.476922, 462.218297)"><g><path d="M 167.441406 -90.636719 C 167.441406 -90.636719 167.804688 -90.273438 167.441406 -91 C 165.621094 -93.550781 163.074219 -91.730469 160.527344 -91 C 149.96875 -88.816406 139.050781 -86.269531 128.128906 -84.449219 C 132.132812 -97.554688 136.136719 -111.386719 137.59375 -124.855469 C 138.320312 -129.949219 138.6875 -135.410156 137.59375 -140.507812 C 136.867188 -143.78125 135.773438 -147.058594 133.953125 -149.96875 C 133.953125 -149.96875 129.585938 -155.429688 130.679688 -152.519531 L 130.3125 -152.882812 L 128.859375 -155.792969 L 130.3125 -154.339844 C 130.679688 -156.523438 124.488281 -160.527344 124.488281 -160.527344 C 115.390625 -169.625 103.011719 -176.542969 90.636719 -169.625 C 82.992188 -165.257812 76.804688 -157.976562 71.710938 -150.699219 C 69.890625 -148.148438 68.070312 -145.238281 66.613281 -142.324219 C 65.15625 -139.414062 62.972656 -129.949219 60.789062 -128.492188 C 58.96875 -127.039062 53.507812 -126.671875 50.960938 -125.21875 C 47.320312 -123.761719 44.042969 -121.941406 41.132812 -119.757812 C 34.214844 -115.390625 28.757812 -109.203125 23.660156 -103.011719 C 14.925781 -91.367188 10.554688 -78.261719 4.367188 -66.613281 C -7.28125 -44.410156 5.460938 -15.289062 26.9375 -4.730469 C 33.851562 -1.457031 41.859375 0 49.140625 -0.726562 C 56.785156 -1.820312 64.066406 -5.824219 69.890625 -10.191406 C 75.347656 -14.195312 87.359375 -21.476562 89.546875 -27.664062 C 89.546875 -28.027344 88.816406 -27.664062 87.726562 -26.574219 L 98.28125 -38.949219 C 98.644531 -38.585938 95.734375 -34.945312 95.734375 -34.945312 C 98.28125 -33.851562 111.386719 -53.144531 112.839844 -54.601562 C 115.390625 -58.96875 117.9375 -63.699219 120.851562 -68.070312 C 123.398438 -71.34375 122.667969 -70.980469 126.308594 -72.4375 C 125.945312 -72.074219 130.679688 -73.527344 131.40625 -73.527344 C 135.410156 -74.257812 178 -77.167969 167.441406 -90.636719 Z M 41.496094 -17.109375 L 41.132812 -17.109375 C 10.921875 -12.738281 45.863281 -76.804688 46.59375 -80.445312 L 44.410156 -77.167969 C 49.867188 -88.089844 54.964844 -96.824219 57.511719 -99.738281 C 61.515625 -81.539062 81.171875 -74.621094 97.1875 -72.4375 C 86.632812 -51.324219 66.976562 -21.839844 41.496094 -17.109375 Z M 113.207031 -117.9375 C 110.65625 -107.746094 108.472656 -94.277344 103.011719 -85.175781 C 101.195312 -81.539062 102.285156 -82.628906 98.644531 -81.902344 C 96.460938 -81.171875 91.730469 -81.902344 89.546875 -82.265625 C 85.542969 -82.628906 80.808594 -83.355469 77.898438 -85.90625 C 72.800781 -90.273438 73.527344 -97.1875 74.257812 -103.378906 C 74.984375 -109.566406 76.804688 -115.390625 78.988281 -121.214844 C 80.082031 -123.398438 86.996094 -135.046875 85.90625 -137.230469 C 85.542969 -138.320312 81.539062 -131.769531 81.171875 -131.40625 C 83.355469 -135.410156 85.542969 -137.59375 87.359375 -140.140625 C 86.996094 -140.140625 87.359375 -140.507812 87.726562 -141.234375 L 87.726562 -140.871094 L 88.089844 -141.597656 C 88.089844 -141.597656 88.089844 -141.960938 88.453125 -141.960938 C 93.914062 -149.242188 107.382812 -165.621094 114.660156 -154.339844 C 120.121094 -144.875 115.027344 -127.039062 113.207031 -117.9375 Z M 88.089844 -141.597656 L 88.453125 -141.960938 C 88.453125 -141.597656 88.089844 -141.597656 88.089844 -141.597656 Z M 88.089844 -141.597656 "/></g></g></g><g fill="#000000" fill-opacity="1"><g transform="translate(1235.8026, 462.218297)"><g><path d="M 185.640625 -87.359375 C 184.1875 -97.917969 173.628906 -87.359375 170.355469 -84.449219 C 164.167969 -79.71875 157.613281 -75.714844 151.425781 -70.980469 C 143.054688 -65.15625 135.046875 -58.605469 127.039062 -52.050781 C 123.761719 -49.503906 103.742188 -30.941406 101.921875 -32.03125 C 107.746094 -50.234375 117.9375 -68.433594 127.765625 -85.542969 C 136.867188 -100.828125 118.300781 -113.933594 103.378906 -107.382812 C 99.007812 -105.5625 94.277344 -97.554688 91.367188 -93.550781 C 84.449219 -83.722656 77.898438 -73.164062 70.980469 -63.335938 L 61.152344 -48.414062 C 60.0625 -46.957031 53.144531 -36.765625 54.238281 -36.765625 C 54.601562 -36.765625 54.964844 -37.128906 55.328125 -37.492188 C 48.046875 -27.664062 37.492188 -15.289062 28.027344 -8.371094 C 14.925781 1.820312 22.566406 -28.757812 24.386719 -33.851562 C 29.847656 -50.234375 38.949219 -65.886719 48.777344 -80.082031 C 50.234375 -82.265625 70.253906 -107.746094 76.804688 -113.933594 C 70.253906 -108.472656 50.597656 -84.085938 47.320312 -80.082031 C 58.96875 -96.824219 77.53125 -123.398438 99.375 -127.039062 L 94.640625 -125.21875 C 99.007812 -125.945312 108.835938 -125.582031 108.835938 -125.582031 L 107.746094 -126.671875 C 109.566406 -125.582031 110.65625 -124.125 112.839844 -124.125 C 121.941406 -124.488281 119.757812 -139.050781 115.753906 -143.417969 C 110.292969 -150.699219 97.1875 -153.609375 88.453125 -151.425781 C 85.90625 -150.699219 84.8125 -149.242188 81.902344 -148.878906 C 78.625 -148.148438 76.078125 -148.878906 72.074219 -146.695312 C 64.792969 -143.054688 58.605469 -137.957031 52.78125 -132.132812 C 49.140625 -128.859375 14.195312 -91.367188 16.746094 -89.910156 C 17.472656 -89.910156 18.199219 -90.636719 18.5625 -91 L 12.375 -81.902344 C 12.011719 -82.265625 13.832031 -84.8125 13.46875 -84.8125 C 12.011719 -85.542969 4.730469 -73.527344 4.367188 -72.4375 C 0.726562 -66.613281 -2.183594 -60.0625 -3.277344 -53.144531 C -4.730469 -45.5 -5.097656 -37.128906 -5.097656 -29.484375 C -5.097656 -24.386719 -4.730469 -19.292969 -3.277344 -14.558594 C -2.910156 -13.832031 1.457031 -5.460938 0.726562 -9.101562 L 1.820312 -6.550781 C 1.457031 -6.550781 1.09375 -6.917969 0.726562 -7.28125 C -0.726562 -4.730469 13.105469 7.644531 15.652344 8.734375 C 21.113281 11.285156 26.207031 9.828125 31.667969 6.550781 C 43.679688 -0.726562 52.050781 -14.558594 60.425781 -26.207031 C 69.523438 -38.585938 79.71875 -51.324219 87.359375 -65.15625 L 79.351562 -36.765625 C 76.078125 -26.207031 74.257812 -10.554688 67.703125 -2.183594 C 60.789062 6.1875 50.597656 13.46875 42.953125 20.75 C 34.945312 28.027344 26.9375 35.308594 19.65625 43.679688 C 9.101562 55.691406 -0.726562 68.796875 -9.828125 81.902344 C -20.382812 97.1875 -27.664062 113.570312 -20.382812 131.40625 C -13.832031 147.058594 1.09375 161.617188 19.292969 157.25 C 34.945312 153.246094 40.769531 140.140625 47.683594 127.765625 C 69.523438 89.910156 80.445312 46.230469 92.820312 4.367188 C 94.640625 -1.820312 95.734375 -8.007812 100.101562 -12.738281 C 104.46875 -17.109375 109.929688 -21.113281 115.027344 -25.117188 C 125.21875 -34.214844 135.773438 -42.589844 146.695312 -51.324219 L 176.179688 -73.894531 C 180.910156 -77.53125 187.097656 -80.445312 185.640625 -87.359375 Z M 56.785156 36.402344 C 56.785156 36.035156 54.964844 41.132812 55.328125 40.40625 C 47.683594 62.609375 40.40625 84.8125 30.210938 105.925781 C 25.117188 116.480469 1.09375 160.164062 -7.644531 128.128906 C -13.46875 107.746094 6.1875 84.449219 17.472656 69.523438 C 31.304688 51.6875 45.5 35.671875 61.878906 20.382812 C 60.425781 25.84375 58.605469 31.304688 56.785156 36.402344 Z M 55.328125 61.878906 C 53.144531 69.890625 50.597656 77.898438 47.320312 85.542969 C 44.042969 91.730469 39.675781 97.1875 36.402344 103.011719 C 42.953125 88.816406 49.867188 75.347656 55.328125 60.789062 Z M 37.128906 -72.800781 C 34.945312 -68.796875 31.667969 -65.15625 28.757812 -61.152344 C 31.667969 -67.703125 34.582031 -73.527344 40.039062 -79.351562 C 41.132812 -80.445312 42.953125 -82.265625 44.042969 -84.085938 Z M 36.765625 -63.335938 L 33.488281 -58.605469 C 35.671875 -62.609375 38.21875 -66.613281 41.132812 -70.617188 Z M 36.765625 -63.335938 "/></g></g></g><g fill="#000000" fill-opacity="1"><g transform="translate(1394.872537, 462.218297)"><g><path d="M 117.9375 -80.082031 C 119.757812 -82.265625 120.484375 -86.269531 119.394531 -89.179688 C 116.480469 -97.1875 107.382812 -87.359375 103.742188 -84.449219 C 98.28125 -80.445312 92.09375 -76.804688 86.269531 -72.800781 C 68.796875 -61.152344 52.417969 -48.414062 36.035156 -35.308594 C 42.589844 -53.871094 54.601562 -70.253906 62.972656 -87.359375 C 71.34375 -104.105469 41.859375 -117.574219 32.761719 -104.105469 C 31.667969 -102.285156 31.304688 -97.917969 30.210938 -95.371094 C 28.027344 -89.546875 26.207031 -82.992188 24.023438 -76.804688 C 20.019531 -64.066406 16.015625 -50.960938 11.648438 -38.21875 L 4.730469 -16.746094 C 3.277344 -12.011719 2.183594 -8.371094 -1.09375 -5.097656 C -3.640625 -2.183594 -7.28125 0.363281 -10.191406 3.277344 C -22.203125 13.832031 -34.214844 24.753906 -45.136719 36.035156 C -53.144531 44.042969 -60.0625 53.144531 -66.25 61.878906 C -73.894531 72.800781 -82.628906 82.628906 -89.179688 94.277344 C -101.195312 115.753906 -107.382812 145.238281 -77.53125 156.15625 C -64.429688 160.890625 -50.234375 157.976562 -40.039062 148.878906 C -31.667969 141.234375 -26.574219 129.222656 -21.113281 119.394531 C -14.195312 107.382812 -8.007812 95.371094 -3.277344 82.265625 C 3.277344 66.25 8.734375 49.503906 14.558594 33.125 C 20.382812 17.472656 23.296875 -7.28125 36.402344 -18.199219 C 50.597656 -30.210938 65.15625 -41.859375 80.082031 -53.144531 C 91.730469 -62.246094 103.742188 -72.4375 116.84375 -79.71875 C 116.117188 -79.71875 115.753906 -80.082031 115.390625 -80.808594 C 117.210938 -81.902344 116.480469 -80.808594 117.9375 -80.082031 Z M -24.023438 64.066406 L -24.023438 62.972656 C -24.753906 64.429688 -25.480469 67.339844 -25.84375 67.703125 C -33.851562 87.726562 -42.222656 107.382812 -53.871094 125.21875 C -57.511719 130.679688 -64.792969 141.597656 -72.800781 139.777344 C -81.539062 137.59375 -82.992188 124.855469 -81.902344 117.574219 C -78.625 96.824219 -62.246094 78.625 -49.503906 62.972656 C -36.402344 46.957031 -22.933594 32.394531 -7.28125 18.929688 L -23.296875 62.246094 C -23.296875 61.878906 -23.296875 62.246094 -24.023438 64.066406 Z M 51.324219 -132.132812 C 51.6875 -132.496094 52.417969 -130.679688 52.78125 -131.042969 C 55.328125 -132.132812 56.421875 -132.863281 58.96875 -134.683594 C 62.609375 -138.320312 65.519531 -142.691406 69.160156 -145.964844 C 70.253906 -147.058594 67.703125 -146.328125 68.070312 -146.328125 C 70.617188 -149.242188 73.527344 -147.785156 76.804688 -152.519531 C 79.351562 -155.792969 80.082031 -162.710938 81.171875 -165.257812 L 81.902344 -165.257812 C 82.628906 -169.261719 85.175781 -168.898438 87.359375 -172.902344 C 89.179688 -176.542969 88.816406 -181.636719 87.359375 -185.640625 C 86.632812 -187.097656 85.90625 -188.554688 84.8125 -189.648438 C 79.71875 -195.105469 66.976562 -195.835938 59.695312 -194.015625 C 57.875 -193.652344 55.328125 -193.285156 53.507812 -192.195312 C 52.050781 -191.464844 49.503906 -190.011719 49.140625 -187.828125 C 49.140625 -186.734375 50.597656 -180.546875 52.417969 -183.09375 C 52.78125 -183.457031 52.417969 -184.1875 52.050781 -184.550781 C 55.691406 -182.003906 56.058594 -182.003906 55.691406 -176.90625 C 55.691406 -174.722656 51.6875 -157.25 48.414062 -148.878906 L 51.6875 -154.703125 C 49.140625 -148.878906 46.59375 -143.417969 43.316406 -138.320312 C 45.5 -143.417969 41.496094 -137.230469 41.496094 -136.5 C 39.675781 -136.867188 39.3125 -134.316406 39.675781 -132.863281 C 41.132812 -124.855469 48.046875 -131.40625 51.324219 -132.132812 Z M -1.820312 36.765625 C -2.546875 42.589844 -7.28125 48.414062 -9.828125 54.238281 C -8.734375 51.324219 -7.644531 43.316406 -5.460938 41.496094 C -4.003906 40.40625 -3.277344 38.21875 -1.820312 36.765625 Z M -6.917969 66.976562 L -8.007812 69.160156 L -8.007812 68.796875 L -9.101562 71.34375 L -10.191406 73.164062 L -11.285156 76.078125 L -12.375 79.351562 C -12.011719 77.53125 -12.011719 75.714844 -11.285156 73.894531 C -10.554688 70.253906 -8.371094 67.339844 -6.917969 64.429688 L -6.917969 66.25 L -5.460938 61.878906 C -5.460938 61.515625 -5.460938 61.152344 -5.097656 60.789062 C -5.460938 62.972656 -6.1875 65.15625 -6.917969 66.976562 Z M -3.640625 57.148438 C -2.546875 53.144531 -1.457031 48.414062 0.726562 46.230469 L 1.457031 45.5 L 0.363281 47.683594 C -0.726562 50.960938 -2.183594 54.964844 -3.640625 58.242188 L -3.640625 57.875 L -4.003906 57.875 C -4.003906 57.511719 -3.640625 57.148438 -3.640625 57.148438 Z M 45.5 -144.144531 C 46.230469 -143.78125 46.957031 -144.875 47.683594 -147.421875 C 46.59375 -145.601562 45.5 -144.144531 45.5 -144.144531 Z M -2.183594 53.871094 L -1.457031 51.6875 C -1.820312 52.417969 -2.183594 53.144531 -2.183594 53.871094 Z M -1.09375 50.234375 C -1.457031 50.597656 -1.457031 50.960938 -1.457031 51.6875 Z M -4.003906 58.605469 L -4.367188 58.605469 L -4.003906 58.242188 Z M 42.222656 -136.5 L 42.222656 -136.136719 L 41.859375 -136.136719 C 41.859375 -136.136719 42.222656 -136.136719 42.222656 -136.5 Z M 42.222656 -136.5 "/></g></g></g><g fill="#000000" fill-opacity="1"><g transform="translate(1488.057652, 462.218297)"><g><path d="M 185.277344 -87.726562 C 184.914062 -95.734375 178.363281 -88.816406 176.179688 -85.90625 C 171.445312 -78.988281 167.078125 -71.710938 162.710938 -64.792969 C 152.882812 -49.867188 143.054688 -34.945312 131.769531 -20.75 C 94.277344 25.480469 120.484375 -56.785156 117.574219 -56.058594 C 116.117188 -55.691406 115.027344 -50.234375 114.660156 -49.140625 C 117.574219 -62.246094 123.035156 -77.898438 129.949219 -90.636719 C 133.953125 -98.644531 138.6875 -105.199219 131.40625 -113.933594 C 117.9375 -130.3125 102.285156 -115.390625 93.550781 -104.105469 C 89.910156 -117.9375 82.628906 -138.320312 64.792969 -138.320312 C 56.785156 -138.320312 52.050781 -134.316406 46.59375 -129.585938 C 43.316406 -127.402344 40.769531 -127.039062 37.855469 -124.488281 C 33.125 -121.214844 29.847656 -116.117188 26.574219 -111.75 C 14.195312 -93.550781 5.460938 -70.617188 1.457031 -49.503906 C -0.363281 -39.3125 -1.09375 -28.027344 1.820312 -17.835938 C 3.640625 -12.011719 10.191406 1.09375 18.5625 0 C 18.929688 0 18.199219 -0.363281 17.109375 -1.09375 C 22.203125 0.363281 28.027344 -0.363281 32.394531 -3.277344 C 32.761719 -2.546875 28.390625 -0.726562 28.390625 -0.726562 C 32.394531 5.460938 62.246094 -30.578125 64.429688 -33.851562 C 69.160156 -40.40625 72.4375 -47.320312 76.804688 -54.238281 C 80.082031 -59.332031 85.175781 -65.886719 88.816406 -71.34375 C 88.453125 -68.796875 88.453125 -65.519531 88.453125 -65.519531 C 81.902344 -44.773438 75.714844 -22.203125 84.449219 -0.726562 C 88.453125 10.191406 98.28125 20.382812 110.65625 18.199219 C 121.578125 16.378906 130.679688 5.824219 137.230469 -2.546875 C 145.238281 -12.011719 152.152344 -22.566406 159.070312 -33.488281 C 164.894531 -43.316406 170.355469 -53.144531 175.085938 -64.066406 C 178 -70.980469 186.007812 -79.351562 185.277344 -87.726562 Z M 80.808594 -85.175781 C 78.988281 -82.628906 77.167969 -80.082031 75.714844 -77.53125 L 66.25 -64.066406 C 60.0625 -54.964844 53.507812 -46.230469 46.59375 -37.855469 C 44.773438 -35.308594 36.035156 -24.023438 32.394531 -25.117188 C 26.9375 -26.9375 32.761719 -45.863281 33.488281 -48.777344 C 34.582031 -53.871094 53.871094 -109.929688 58.96875 -111.023438 C 52.417969 -111.386719 31.304688 -45.5 30.210938 -40.039062 C 33.125 -57.875 39.675781 -75.347656 46.957031 -91.730469 C 50.960938 -100.101562 60.0625 -122.304688 72.074219 -122.304688 C 78.625 -122.304688 80.082031 -108.835938 81.171875 -104.46875 C 80.808594 -105.199219 77.53125 -115.753906 77.167969 -115.390625 C 75.347656 -113.933594 82.628906 -93.914062 82.628906 -91 C 82.628906 -88.089844 82.628906 -88.089844 80.808594 -85.175781 Z M 89.179688 -67.339844 C 89.179688 -67.339844 90.273438 -72.4375 90.636719 -73.527344 L 92.457031 -76.078125 Z M 83.722656 -89.910156 L 83.722656 -93.550781 C 84.8125 -92.09375 84.8125 -91 83.722656 -89.910156 Z M 83.722656 -89.910156 "/></g></g></g></svg>