<svg xmlns="http://www.w3.org/2000/svg" xmlns:xlink="http://www.w3.org/1999/xlink" width="1080" zoomAndPan="magnify" viewBox="0 0 810 540.000001" height="720" preserveAspectRatio="xMidYMid meet" version="1.0"><defs><g/></defs><g fill="#000000" fill-opacity="1"><g transform="translate(5.574182, 299.858241)"><g><path d="M 114.683594 -121.765625 C 113.992188 -127.464844 111.746094 -136.792969 104.492188 -136.792969 C 98.964844 -136.792969 92.230469 -128.328125 88.777344 -124.703125 C 80.3125 -115.894531 72.539062 -106.046875 65.113281 -96.03125 C 49.398438 -74.785156 35.0625 -51.816406 24.179688 -27.632812 C 29.363281 -42.832031 33.679688 -58.550781 39.550781 -73.40625 C 39.726562 -74.09375 51.125 -101.039062 53.714844 -105.53125 C 51.988281 -102.765625 46.804688 -91.710938 44.386719 -86.703125 C 48.878906 -96.722656 53.714844 -106.738281 58.722656 -116.410156 C 58.207031 -115.375 57.515625 -113.648438 57.6875 -113.648438 C 58.378906 -113.476562 62.003906 -120.554688 61.488281 -120.730469 L 60.796875 -120.210938 C 61.832031 -121.765625 62.523438 -122.628906 61.660156 -125.046875 C 60.449219 -127.984375 57.167969 -131.4375 54.058594 -131.957031 C 49.398438 -132.644531 46.289062 -128.15625 44.386719 -124.527344 C 43.351562 -122.457031 41.453125 -121.246094 40.070312 -118.828125 C 37.824219 -115.203125 36.269531 -111.230469 34.714844 -107.257812 C 33.851562 -105.53125 24.527344 -83.59375 25.042969 -83.421875 L 25.5625 -84.113281 C 24.871094 -82.558594 24.527344 -80.832031 23.835938 -79.277344 C 23.664062 -79.449219 24.351562 -80.660156 24.007812 -80.832031 C 22.453125 -81.175781 17.445312 -65.460938 17.273438 -64.25 C 16.582031 -60.625 15.71875 -57.34375 14.507812 -53.886719 C 13.644531 -51.640625 12.78125 -49.398438 12.261719 -46.980469 C 12.261719 -46.804688 11.570312 -43.179688 11.917969 -43.351562 L 11.917969 -42.488281 C 11.746094 -42.660156 11.746094 -43.007812 11.746094 -43.179688 C 11.226562 -43.007812 10.363281 -37.308594 10.191406 -36.789062 C 8.980469 -33.851562 7.597656 -31.089844 6.734375 -27.980469 C 4.316406 -19.515625 3.28125 -10.882812 2.074219 -2.246094 C 1.210938 3.28125 -1.898438 13.125 1.554688 18.136719 C 3.972656 21.589844 12.261719 24.871094 15.542969 20.554688 C 16.925781 19 16.582031 16.0625 16.925781 14.507812 C 17.960938 5.871094 20.207031 -1.210938 23.488281 -9.328125 C 30.226562 -25.90625 38.515625 -41.96875 47.84375 -57.34375 C 55.613281 -69.777344 62.867188 -82.730469 72.023438 -94.304688 C 77.722656 -101.558594 83.421875 -108.8125 89.640625 -115.546875 C 91.023438 -117.101562 97.066406 -124.527344 99.828125 -123.492188 C 103.285156 -122.28125 100.003906 -110.367188 99.484375 -107.949219 C 97.585938 -99.3125 95.167969 -90.675781 92.230469 -82.214844 C 87.394531 -68.394531 82.902344 -54.234375 77.03125 -41.105469 C 73.230469 -32.644531 68.914062 -24.351562 64.421875 -16.40625 C 60.625 -10.015625 55.269531 1.035156 47.152344 3.109375 C 37.824219 5.355469 31.605469 -8.464844 28.5 -15.199219 C 28.5 -2.9375 35.753906 9.84375 48.878906 12.089844 C 62.179688 14.335938 73.578125 0.34375 80.3125 -9.152344 C 85.667969 -16.582031 90.503906 -24.871094 94.304688 -33.160156 C 95.167969 -35.234375 95.339844 -37.308594 95.859375 -39.207031 C 96.722656 -42.488281 99.140625 -45.597656 100.519531 -48.707031 C 104.320312 -57.34375 107.601562 -65.804688 110.191406 -74.785156 C 111.574219 -79.105469 112.785156 -83.421875 113.648438 -87.914062 C 113.992188 -89.640625 114.339844 -91.710938 114.511719 -93.441406 C 114.511719 -94.476562 113.820312 -96.03125 113.820312 -96.375 C 113.648438 -100.519531 115.027344 -104.839844 115.203125 -109.15625 C 115.375 -113.300781 115.203125 -117.621094 114.683594 -121.765625 Z M 21.070312 -60.277344 C 21.589844 -64.421875 23.664062 -68.914062 25.214844 -72.886719 C 27.117188 -78.066406 29.015625 -82.902344 31.605469 -87.914062 C 34.890625 -94.476562 37.996094 -101.210938 41.796875 -107.601562 C 41.453125 -106.738281 41.277344 -105.011719 40.761719 -103.976562 C 40.070312 -102.421875 39.035156 -100.867188 38.34375 -99.140625 C 36.617188 -95.339844 35.0625 -91.539062 33.160156 -87.738281 C 30.742188 -82.730469 28.5 -77.894531 26.425781 -72.886719 C 25.214844 -70.121094 24.351562 -67.359375 23.316406 -64.597656 C 22.796875 -62.867188 22.28125 -59.242188 21.242188 -58.03125 C 20.898438 -57.6875 21.070312 -60.277344 21.070312 -60.277344 Z M 75.476562 -27.980469 C 74.957031 -27.117188 74.441406 -26.253906 74.09375 -25.390625 L 73.230469 -23.664062 C 73.058594 -23.664062 73.058594 -23.488281 73.058594 -23.316406 C 69.777344 -17.273438 66.148438 -11.054688 62.351562 -5.527344 C 61.832031 -4.835938 50.953125 8.980469 49.398438 5.355469 C 49.222656 4.835938 52.851562 4.144531 53.023438 3.972656 C 55.441406 2.761719 57.515625 0.171875 59.242188 -1.898438 C 63.386719 -7.253906 67.015625 -13.300781 70.296875 -19.171875 C 73.058594 -24.007812 75.648438 -28.84375 77.894531 -33.679688 L 76.511719 -30.398438 C 77.203125 -31.78125 77.722656 -33.160156 78.242188 -34.542969 L 79.277344 -36.960938 L 79.105469 -36.097656 C 79.449219 -36.960938 79.796875 -37.996094 80.3125 -38.859375 L 80.3125 -39.035156 C 81.175781 -40.761719 81.867188 -42.144531 82.039062 -42.144531 C 82.039062 -41.96875 76.167969 -29.1875 75.476562 -28.152344 Z M 88.085938 -46.460938 C 87.222656 -43.007812 86.011719 -39.550781 84.457031 -36.441406 C 83.078125 -33.851562 80.660156 -31.261719 79.796875 -28.5 C 81.867188 -34.714844 85.496094 -40.414062 88.085938 -46.632812 Z M 23.664062 -56.476562 C 22.28125 -54.234375 22.796875 -51.640625 22.109375 -49.398438 C 21.589844 -48.359375 19.691406 -46.289062 19.34375 -44.90625 C 19.34375 -45.941406 19.691406 -47.324219 19.863281 -48.1875 C 20.035156 -49.914062 20.898438 -50.605469 21.761719 -51.988281 C 22.453125 -53.023438 22.796875 -56.476562 24.179688 -56.996094 Z M 62.523438 -5.007812 C 64.941406 -8.636719 67.359375 -12.4375 69.605469 -16.582031 C 67.359375 -12.261719 65.113281 -8.464844 62.523438 -5.007812 Z M 44.214844 -111.921875 C 44.90625 -111.574219 44.734375 -111.230469 43.871094 -110.367188 C 43.523438 -110.710938 43.523438 -111.230469 44.214844 -111.921875 Z M 40.070312 -76.511719 L 40.070312 -76.339844 L 37.308594 -69.777344 L 41.796875 -80.832031 C 41.277344 -79.277344 40.761719 -77.894531 40.070312 -76.511719 Z M 71.160156 -19.691406 C 71.160156 -19.34375 70.988281 -19.171875 70.8125 -18.824219 Z M 78.414062 -34.890625 C 78.414062 -34.714844 78.414062 -34.714844 78.242188 -34.542969 C 78.242188 -34.714844 78.414062 -34.714844 78.414062 -34.890625 Z M 78.414062 -34.890625 "/></g></g></g><g fill="#000000" fill-opacity="1"><g transform="translate(110.579521, 299.858241)"><g><path d="M 87.914062 -41.625 C 87.738281 -45.425781 84.632812 -42.144531 83.59375 -40.761719 C 81.347656 -37.480469 79.277344 -34.023438 77.203125 -30.742188 C 72.539062 -23.664062 67.878906 -16.582031 62.523438 -9.84375 C 44.734375 12.089844 57.167969 -26.945312 55.789062 -26.597656 C 55.097656 -26.425781 54.578125 -23.835938 54.40625 -23.316406 C 55.789062 -29.535156 58.378906 -36.960938 61.660156 -43.007812 C 63.558594 -46.804688 65.804688 -49.914062 62.351562 -54.058594 C 55.960938 -61.832031 48.535156 -54.75 44.386719 -49.398438 C 42.660156 -55.960938 39.207031 -65.632812 30.742188 -65.632812 C 26.945312 -65.632812 24.699219 -63.730469 22.109375 -61.488281 C 20.554688 -60.449219 19.34375 -60.277344 17.960938 -59.070312 C 15.71875 -57.515625 14.164062 -55.097656 12.609375 -53.023438 C 6.734375 -44.386719 2.589844 -33.507812 0.691406 -23.488281 C -0.171875 -18.652344 -0.519531 -13.300781 0.863281 -8.464844 C 1.726562 -5.699219 4.835938 0.519531 8.808594 0 C 8.980469 0 8.636719 -0.171875 8.117188 -0.519531 C 10.535156 0.171875 13.300781 -0.171875 15.371094 -1.554688 C 15.542969 -1.210938 13.472656 -0.34375 13.472656 -0.34375 C 15.371094 2.589844 29.535156 -14.507812 30.570312 -16.0625 C 32.816406 -19.171875 34.371094 -22.453125 36.441406 -25.734375 C 37.996094 -28.152344 40.414062 -31.261719 42.144531 -33.851562 C 41.96875 -32.644531 41.96875 -31.089844 41.96875 -31.089844 C 38.859375 -21.242188 35.925781 -10.535156 40.070312 -0.34375 C 41.96875 4.835938 46.632812 9.671875 52.503906 8.636719 C 57.6875 7.773438 62.003906 2.761719 65.113281 -1.210938 C 68.914062 -5.699219 72.195312 -10.707031 75.476562 -15.890625 C 78.242188 -20.554688 80.832031 -25.214844 83.078125 -30.398438 C 84.457031 -33.679688 88.257812 -37.652344 87.914062 -41.625 Z M 38.34375 -40.414062 C 37.480469 -39.207031 36.617188 -37.996094 35.925781 -36.789062 L 31.433594 -30.398438 C 28.5 -26.082031 25.390625 -21.933594 22.109375 -17.960938 C 21.242188 -16.753906 17.097656 -11.398438 15.371094 -11.917969 C 12.78125 -12.78125 15.542969 -21.761719 15.890625 -23.144531 C 16.40625 -25.5625 25.5625 -52.160156 27.980469 -52.679688 C 24.871094 -52.851562 14.855469 -21.589844 14.335938 -19 C 15.71875 -27.460938 18.824219 -35.753906 22.28125 -43.523438 C 24.179688 -47.496094 28.5 -58.03125 34.199219 -58.03125 C 37.308594 -58.03125 37.996094 -51.640625 38.515625 -49.570312 C 38.34375 -49.914062 36.789062 -54.921875 36.617188 -54.75 C 35.753906 -54.058594 39.207031 -44.5625 39.207031 -43.179688 C 39.207031 -41.796875 39.207031 -41.796875 38.34375 -40.414062 Z M 42.316406 -31.953125 C 42.316406 -31.953125 42.832031 -34.371094 43.007812 -34.890625 L 43.871094 -36.097656 Z M 39.726562 -42.660156 L 39.726562 -44.386719 C 40.242188 -43.695312 40.242188 -43.179688 39.726562 -42.660156 Z M 39.726562 -42.660156 "/></g></g></g><g fill="#000000" fill-opacity="1"><g transform="translate(185.879415, 299.858241)"><g><path d="M 85.667969 -42.488281 C 84.804688 -42.488281 83.59375 -40.761719 83.078125 -40.242188 C 80.660156 -37.824219 78.585938 -35.0625 76.511719 -32.46875 C 70.8125 -25.90625 65.113281 -19.171875 58.894531 -13.125 C 57.34375 -11.746094 53.371094 -7.082031 51.125 -8.636719 C 49.742188 -9.5 50.953125 -15.027344 51.125 -16.234375 C 51.46875 -17.789062 54.578125 -25.90625 53.542969 -26.945312 C 53.023438 -27.289062 52.160156 -24.699219 51.988281 -24.527344 C 54.75 -34.199219 60.277344 -45.25 64.769531 -54.75 C 67.359375 -59.933594 70.640625 -66.324219 66.324219 -71.675781 C 58.722656 -81.003906 49.222656 -69.085938 44.042969 -63.558594 C 41.796875 -61.140625 20.035156 -34.542969 20.378906 -34.371094 C 20.378906 -34.371094 21.933594 -36.269531 24.179688 -38.859375 C 20.898438 -34.542969 17.789062 -30.226562 14.855469 -25.734375 C 16.753906 -32.816406 18.824219 -39.726562 21.070312 -46.632812 C 22.28125 -50.085938 23.316406 -53.714844 24.527344 -57.34375 C 25.90625 -61.140625 26.945312 -62.695312 29.878906 -65.460938 C 34.890625 -69.949219 39.726562 -74.785156 44.214844 -79.96875 C 45.941406 -82.039062 47.152344 -84.457031 48.878906 -86.359375 C 50.433594 -87.914062 52.679688 -89.292969 54.40625 -91.195312 C 63.214844 -101.558594 70.296875 -114.511719 76.167969 -126.601562 C 78.757812 -132.300781 81.175781 -138.171875 82.902344 -144.21875 C 83.25 -145.601562 87.050781 -161.488281 86.183594 -161.488281 C 86.011719 -161.488281 86.011719 -161.316406 85.839844 -160.972656 C 86.011719 -163.734375 85.839844 -166.84375 84.804688 -169.609375 C 84.976562 -169.609375 85.839844 -167.015625 85.839844 -167.015625 C 86.875 -167.707031 83.765625 -173.0625 83.078125 -173.753906 C 81.523438 -175.308594 79.277344 -176.171875 77.03125 -176.171875 C 72.539062 -176.515625 68.394531 -174.097656 64.941406 -171.507812 C 58.378906 -166.5 53.714844 -159.070312 48.878906 -152.335938 C 46.117188 -148.535156 43.523438 -144.738281 41.105469 -140.765625 C 39.378906 -138.171875 35.578125 -133.511719 35.578125 -130.402344 C 35.753906 -130.226562 35.925781 -130.226562 35.925781 -130.226562 L 33.851562 -126.253906 C 33.851562 -126.253906 34.890625 -129.363281 35.0625 -129.539062 C 34.199219 -129.019531 33.335938 -125.390625 33.335938 -125.21875 C 26.597656 -112.09375 19.515625 -99.484375 14.855469 -85.496094 C 9.5 -69.777344 5.527344 -53.542969 2.589844 -37.308594 C 1.210938 -29.878906 -0.519531 -21.761719 0.171875 -14.164062 C 0.171875 -12.089844 0.34375 -9.671875 1.898438 -7.945312 C 3.800781 -5.527344 7.773438 -4.664062 10.015625 -7.082031 C 10.707031 -7.945312 10.707031 -8.464844 11.054688 -9.328125 L 14.164062 -14.855469 C 18.308594 -21.242188 23.316406 -27.117188 27.289062 -33.679688 C 27.808594 -34.714844 28.324219 -35.925781 29.015625 -36.789062 C 29.878906 -37.824219 30.226562 -37.308594 31.261719 -38.171875 C 34.199219 -40.589844 36.441406 -44.214844 38.859375 -47.152344 C 43.871094 -53.371094 48.878906 -60.449219 55.269531 -65.632812 L 50.261719 -53.542969 L 50.777344 -54.058594 L 48.1875 -48.1875 C 48.015625 -48.359375 48.707031 -49.914062 48.707031 -50.085938 C 48.015625 -50.085938 44.734375 -43.351562 44.386719 -42.660156 C 42.316406 -38.515625 40.070312 -34.371094 38.859375 -30.050781 C 37.824219 -25.90625 36.617188 -21.761719 35.40625 -17.617188 C 34.890625 -15.027344 34.371094 -12.4375 34.542969 -9.84375 C 34.542969 -9.152344 35.925781 -2.9375 36.441406 -3.453125 L 36.441406 -4.144531 C 36.789062 -3.109375 37.132812 -2.246094 37.652344 -1.382812 L 36.617188 -2.9375 C 36.097656 -1.726562 40.761719 2.246094 41.277344 2.761719 C 43.871094 5.355469 46.460938 7.082031 50.433594 7.253906 C 53.714844 7.425781 55.441406 6.21875 57.859375 3.972656 C 64.421875 -2.417969 69.085938 -11.226562 74.09375 -18.824219 C 76.859375 -22.796875 79.621094 -26.945312 82.214844 -31.089844 C 82.902344 -31.953125 87.566406 -41.625 86.875 -41.453125 C 87.914062 -41.625 86.011719 -42.488281 85.667969 -42.488281 Z M 70.640625 -158.726562 L 70.640625 -158.898438 C 70.640625 -158.898438 70.8125 -158.898438 70.8125 -159.070312 L 70.8125 -158.898438 C 70.988281 -159.246094 71.160156 -159.589844 70.988281 -159.417969 C 72.367188 -161.488281 75.824219 -167.707031 78.242188 -165.636719 C 80.660156 -163.5625 78.414062 -156.308594 77.722656 -153.71875 C 76.339844 -148.363281 74.269531 -143.183594 72.195312 -138.171875 C 68.050781 -128.5 62.867188 -119.347656 57.167969 -110.367188 C 54.40625 -106.046875 51.46875 -101.730469 48.535156 -97.585938 C 46.980469 -95.511719 45.425781 -93.441406 43.695312 -91.367188 L 42.316406 -89.8125 L 45.425781 -92.921875 L 52.332031 -102.59375 C 56.132812 -107.773438 59.761719 -113.476562 63.214844 -119.175781 C 54.40625 -103.628906 43.695312 -88.949219 31.261719 -75.824219 L 36.441406 -89.46875 C 36.960938 -90.503906 40.589844 -100.695312 40.589844 -100.695312 C 40.242188 -100.519531 39.726562 -99.65625 39.207031 -98.792969 C 43.351562 -108.292969 48.707031 -118.136719 53.542969 -127.636719 C 58.894531 -138 64.25 -148.707031 70.46875 -158.554688 C 70.46875 -158.554688 70.640625 -158.554688 70.640625 -158.726562 Z M 27.289062 -74.09375 C 28.84375 -83.421875 33.160156 -92.230469 36.269531 -101.210938 C 39.035156 -108.8125 43.523438 -115.71875 46.980469 -122.972656 C 48.535156 -126.429688 65.113281 -158.035156 65.460938 -157.863281 C 66.839844 -157 45.597656 -116.410156 43.351562 -111.574219 C 41.453125 -107.949219 39.726562 -104.492188 38.34375 -100.519531 C 37.132812 -96.722656 35.0625 -93.613281 33.679688 -89.984375 C 32.988281 -88.257812 26.082031 -70.121094 26.597656 -69.949219 C 26.253906 -69.949219 26.945312 -72.714844 27.117188 -73.578125 Z M 39.207031 -86.183594 C 39.550781 -86.53125 39.898438 -87.222656 40.414062 -87.738281 C 39.898438 -87.222656 39.550781 -86.703125 39.207031 -86.183594 Z M 70.640625 -158.726562 L 70.640625 -158.898438 L 70.8125 -158.898438 Z M 27.289062 -73.921875 C 27.289062 -73.75 27.117188 -73.578125 27.117188 -73.578125 C 27.117188 -73.75 27.289062 -73.75 27.289062 -73.921875 Z M 27.289062 -73.921875 "/></g></g></g><g fill="#000000" fill-opacity="1"><g transform="translate(260.315759, 299.858241)"><g><path d="M 87.914062 -41.625 C 87.738281 -45.425781 84.632812 -42.144531 83.59375 -40.761719 C 81.347656 -37.480469 79.277344 -34.023438 77.203125 -30.742188 C 72.539062 -23.664062 67.878906 -16.582031 62.523438 -9.84375 C 44.734375 12.089844 57.167969 -26.945312 55.789062 -26.597656 C 55.097656 -26.425781 54.578125 -23.835938 54.40625 -23.316406 C 55.789062 -29.535156 58.378906 -36.960938 61.660156 -43.007812 C 63.558594 -46.804688 65.804688 -49.914062 62.351562 -54.058594 C 55.960938 -61.832031 48.535156 -54.75 44.386719 -49.398438 C 42.660156 -55.960938 39.207031 -65.632812 30.742188 -65.632812 C 26.945312 -65.632812 24.699219 -63.730469 22.109375 -61.488281 C 20.554688 -60.449219 19.34375 -60.277344 17.960938 -59.070312 C 15.71875 -57.515625 14.164062 -55.097656 12.609375 -53.023438 C 6.734375 -44.386719 2.589844 -33.507812 0.691406 -23.488281 C -0.171875 -18.652344 -0.519531 -13.300781 0.863281 -8.464844 C 1.726562 -5.699219 4.835938 0.519531 8.808594 0 C 8.980469 0 8.636719 -0.171875 8.117188 -0.519531 C 10.535156 0.171875 13.300781 -0.171875 15.371094 -1.554688 C 15.542969 -1.210938 13.472656 -0.34375 13.472656 -0.34375 C 15.371094 2.589844 29.535156 -14.507812 30.570312 -16.0625 C 32.816406 -19.171875 34.371094 -22.453125 36.441406 -25.734375 C 37.996094 -28.152344 40.414062 -31.261719 42.144531 -33.851562 C 41.96875 -32.644531 41.96875 -31.089844 41.96875 -31.089844 C 38.859375 -21.242188 35.925781 -10.535156 40.070312 -0.34375 C 41.96875 4.835938 46.632812 9.671875 52.503906 8.636719 C 57.6875 7.773438 62.003906 2.761719 65.113281 -1.210938 C 68.914062 -5.699219 72.195312 -10.707031 75.476562 -15.890625 C 78.242188 -20.554688 80.832031 -25.214844 83.078125 -30.398438 C 84.457031 -33.679688 88.257812 -37.652344 87.914062 -41.625 Z M 38.34375 -40.414062 C 37.480469 -39.207031 36.617188 -37.996094 35.925781 -36.789062 L 31.433594 -30.398438 C 28.5 -26.082031 25.390625 -21.933594 22.109375 -17.960938 C 21.242188 -16.753906 17.097656 -11.398438 15.371094 -11.917969 C 12.78125 -12.78125 15.542969 -21.761719 15.890625 -23.144531 C 16.40625 -25.5625 25.5625 -52.160156 27.980469 -52.679688 C 24.871094 -52.851562 14.855469 -21.589844 14.335938 -19 C 15.71875 -27.460938 18.824219 -35.753906 22.28125 -43.523438 C 24.179688 -47.496094 28.5 -58.03125 34.199219 -58.03125 C 37.308594 -58.03125 37.996094 -51.640625 38.515625 -49.570312 C 38.34375 -49.914062 36.789062 -54.921875 36.617188 -54.75 C 35.753906 -54.058594 39.207031 -44.5625 39.207031 -43.179688 C 39.207031 -41.796875 39.207031 -41.796875 38.34375 -40.414062 Z M 42.316406 -31.953125 C 42.316406 -31.953125 42.832031 -34.371094 43.007812 -34.890625 L 43.871094 -36.097656 Z M 39.726562 -42.660156 L 39.726562 -44.386719 C 40.242188 -43.695312 40.242188 -43.179688 39.726562 -42.660156 Z M 39.726562 -42.660156 "/></g></g></g><g fill="#000000" fill-opacity="1"><g transform="translate(335.615652, 299.858241)"><g><path d="M 70.8125 -41.96875 C 69.777344 -46.460938 65.632812 -40.414062 64.769531 -39.378906 L 55.269531 -26.597656 L 45.941406 -14.335938 L 40.933594 -7.945312 C 40.414062 -7.253906 36.617188 -2.417969 36.960938 -2.417969 C 37.308594 -2.761719 37.824219 -2.761719 38.34375 -3.28125 C 35.753906 -0.519531 26.253906 8.117188 24.527344 6.046875 C 23.144531 4.316406 26.945312 -2.9375 27.460938 -4.664062 C 29.363281 -9.671875 31.089844 -14.855469 33.160156 -19.691406 C 35.40625 -24.699219 37.996094 -29.707031 40.070312 -34.714844 C 42.144531 -40.070312 39.035156 -41.96875 34.023438 -43.179688 C 31.78125 -43.695312 29.015625 -43.695312 26.425781 -44.042969 C 26.425781 -43.871094 26.597656 -43.871094 26.597656 -43.871094 C 28.84375 -43.523438 32.125 -43.351562 34.890625 -42.488281 C 30.742188 -43.695312 25.5625 -43.179688 22.28125 -44.042969 C 20.035156 -44.5625 18.652344 -44.5625 19 -47.152344 C 19.34375 -50.605469 22.972656 -54.234375 24.179688 -57.515625 C 24.179688 -57.34375 22.972656 -54.234375 23.144531 -54.234375 C 24.007812 -53.886719 25.390625 -58.722656 25.390625 -59.414062 C 25.214844 -60.277344 23.144531 -62.867188 22.972656 -61.832031 L 23.316406 -61.3125 C 15.027344 -67.015625 5.179688 -55.269531 6.910156 -46.804688 C 7.253906 -45.597656 7.945312 -44.90625 8.464844 -43.523438 C 8.808594 -42.488281 8.464844 -41.277344 9.5 -39.898438 C 13.125 -35.40625 19.691406 -35.234375 24.871094 -36.269531 C 24.007812 -35.0625 14.855469 -15.71875 15.371094 -15.542969 L 14.164062 -11.226562 C 13.988281 -11.398438 14.679688 -12.78125 14.335938 -12.78125 C 13.125 -12.953125 10.707031 -2.9375 10.535156 -2.074219 C 9.84375 2.074219 10.015625 5.699219 11.746094 9.5 C 12.78125 11.917969 13.988281 13.988281 16.234375 15.371094 C 18.308594 16.753906 20.898438 17.445312 23.316406 16.925781 C 24.179688 16.582031 27.460938 14.335938 26.597656 14.507812 L 27.808594 13.988281 C 27.632812 14.164062 27.460938 14.335938 27.460938 14.507812 C 27.980469 14.679688 35.925781 8.289062 36.960938 7.597656 C 42.488281 2.9375 46.980469 -2.761719 51.125 -8.464844 C 55.269531 -14.335938 59.585938 -20.207031 63.558594 -26.082031 C 65.460938 -28.84375 67.1875 -31.605469 68.570312 -34.542969 C 69.605469 -36.617188 71.332031 -39.550781 70.8125 -41.96875 Z M 19.171875 -21.242188 C 20.378906 -24.351562 21.761719 -27.289062 23.316406 -30.226562 C 23.664062 -30.742188 26.082031 -36.960938 27.289062 -37.308594 C 26.425781 -36.789062 22.796875 -28.324219 21.933594 -26.769531 L 18.652344 -19.171875 C 16.925781 -15.027344 15.027344 -10.707031 13.816406 -6.21875 C 15.027344 -11.398438 17.097656 -16.40625 19.171875 -21.242188 Z M 15.027344 11.917969 C 16.0625 13.300781 17.445312 14.679688 19.34375 15.371094 C 17.789062 14.855469 16.40625 13.988281 15.371094 12.953125 C 15.542969 12.953125 15.542969 13.125 15.542969 13.300781 C 14.507812 11.917969 13.125 8.980469 12.953125 8.464844 C 12.4375 6.390625 12.261719 3.972656 12.4375 1.898438 C 12.4375 0.171875 12.609375 -1.210938 12.953125 -2.761719 L 12.953125 -2.589844 C 12.609375 -0.34375 12.4375 1.898438 12.609375 4.316406 L 12.609375 5.179688 C 12.4375 5.007812 12.4375 4.835938 12.4375 4.835938 C 12.4375 4.835938 12.4375 5.007812 12.609375 5.355469 L 12.609375 5.527344 L 13.300781 9.152344 L 12.78125 6.910156 C 13.125 7.945312 13.988281 9.84375 14.855469 11.746094 L 14.679688 11.570312 C 14.679688 11.746094 14.855469 11.917969 15.027344 12.089844 Z M 19.863281 -45.078125 C 20.726562 -44.386719 22.28125 -44.214844 23.835938 -44.042969 C 22.453125 -44.214844 21.242188 -44.5625 20.378906 -45.25 C 20.378906 -45.25 19.34375 -46.117188 19.171875 -46.460938 C 19.171875 -46.117188 19.515625 -45.25 19.863281 -45.078125 Z M 37.996094 -31.605469 L 34.371094 -24.007812 L 37.996094 -31.78125 Z M 13.125 -3.28125 C 13.125 -3.109375 12.953125 -2.9375 12.953125 -2.761719 L 12.953125 -2.9375 C 12.953125 -3.109375 13.125 -3.109375 13.125 -3.28125 Z M 38.171875 -32.125 L 38.171875 -31.953125 L 37.996094 -31.953125 Z M 38.171875 -32.125 L 38.171875 -31.953125 L 37.996094 -31.953125 Z M 13.300781 -5.527344 C 13.300781 -5.699219 13.472656 -5.871094 13.472656 -6.21875 C 13.472656 -5.871094 13.300781 -5.699219 13.300781 -5.527344 Z M 13.988281 10.363281 C 13.988281 10.363281 14.164062 10.535156 14.164062 10.707031 C 14.164062 10.535156 13.988281 10.535156 13.988281 10.363281 Z M 19.34375 -46.804688 C 19.171875 -46.804688 19.171875 -46.632812 19.171875 -46.632812 Z M 19.34375 -46.804688 "/></g></g></g><g fill="#000000" fill-opacity="1"><g transform="translate(393.817632, 299.858241)"><g/></g></g><g fill="#000000" fill-opacity="1"><g transform="translate(442.175362, 299.858241)"><g><path d="M 107.429688 -120.382812 C 106.566406 -127.121094 93.785156 -127.636719 90.332031 -123.664062 C 89.8125 -123.148438 89.121094 -121.59375 88.085938 -120.730469 C 86.359375 -119.175781 87.050781 -119.863281 84.976562 -119.175781 C 80.140625 -117.792969 75.304688 -116.410156 70.46875 -114.855469 C 67.015625 -113.820312 63.042969 -113.128906 59.585938 -111.574219 C 57.515625 -110.710938 56.304688 -109.675781 54.058594 -108.984375 C 46.632812 -106.910156 38.6875 -105.355469 32.296875 -102.074219 C 27.980469 -99.828125 22.625 -98.277344 22.28125 -92.230469 C 22.28125 -90.503906 22.972656 -89.121094 23.835938 -87.566406 C 24.871094 -85.496094 26.253906 -84.804688 27.808594 -83.59375 L 31.433594 -80.3125 C 33.679688 -78.242188 37.480469 -75.304688 40.589844 -75.476562 C 40.761719 -75.476562 43.695312 -76.511719 43.871094 -76.859375 C 45.425781 -78.757812 40.070312 -82.730469 39.035156 -84.113281 C 37.132812 -86.53125 34.371094 -90.332031 35.234375 -93.613281 C 37.132812 -100.003906 49.398438 -102.25 54.921875 -103.800781 C 59.242188 -105.011719 63.386719 -107.257812 67.703125 -108.464844 C 72.539062 -109.847656 77.203125 -110.539062 82.039062 -112.4375 C 71.503906 -95.683594 64.941406 -76.339844 58.207031 -58.03125 C 51.125 -38.859375 44.386719 -19.34375 35.234375 -1.035156 C 33.160156 3.28125 27.808594 16.40625 21.070312 12.78125 C 17.617188 11.054688 15.890625 6.21875 14.679688 2.9375 C 12.78125 -1.726562 11.226562 -6.734375 9.84375 -11.570312 C 7.253906 -21.070312 6.21875 -30.570312 5.007812 -40.414062 C 4.664062 -42.144531 3.972656 -47.496094 1.210938 -46.632812 C -1.210938 -45.769531 0.691406 -32.296875 0.519531 -30.050781 C 0 -20.378906 0.691406 -10.535156 3.109375 -1.035156 C 5.355469 7.945312 9.84375 17.097656 18.308594 21.761719 C 22.109375 23.835938 26.769531 25.214844 31.089844 25.214844 C 35.578125 25.214844 38.171875 22.625 40.589844 19.34375 C 51.296875 5.527344 57.34375 -11.054688 63.90625 -27.117188 C 65.804688 -31.605469 66.839844 -35.925781 68.050781 -40.242188 C 69.257812 -45.078125 71.851562 -49.742188 73.75 -54.40625 C 77.375 -63.386719 81.003906 -72.367188 85.148438 -81.347656 L 92.402344 -96.03125 C 94.128906 -99.140625 94.304688 -101.902344 96.375 -104.667969 C 99.484375 -108.464844 102.59375 -112.09375 105.703125 -116.066406 C 106.566406 -117.273438 107.601562 -118.65625 107.429688 -120.382812 Z M 71.675781 -62.523438 C 68.394531 -55.097656 64.769531 -48.878906 61.832031 -41.277344 L 72.714844 -69.777344 C 74.269531 -74.09375 76.339844 -78.066406 78.414062 -82.214844 C 75.824219 -76.167969 74.441406 -68.394531 71.675781 -62.523438 Z M 71.675781 -62.523438 "/></g></g></g><g fill="#000000" fill-opacity="1"><g transform="translate(522.48376, 299.858241)"><g><path d="M 79.449219 -43.007812 C 79.449219 -43.007812 79.621094 -42.832031 79.449219 -43.179688 C 78.585938 -44.386719 77.375 -43.523438 76.167969 -43.179688 C 71.160156 -42.144531 65.976562 -40.933594 60.796875 -40.070312 C 62.695312 -46.289062 64.597656 -52.851562 65.285156 -59.242188 C 65.632812 -61.660156 65.804688 -64.25 65.285156 -66.667969 C 64.941406 -68.222656 64.421875 -69.777344 63.558594 -71.160156 C 63.558594 -71.160156 61.488281 -73.75 62.003906 -72.367188 L 61.832031 -72.539062 L 61.140625 -73.921875 L 61.832031 -73.230469 C 62.003906 -74.269531 59.070312 -76.167969 59.070312 -76.167969 C 54.75 -80.484375 48.878906 -83.765625 43.007812 -80.484375 C 39.378906 -78.414062 36.441406 -74.957031 34.023438 -71.503906 C 33.160156 -70.296875 32.296875 -68.914062 31.605469 -67.53125 C 30.917969 -66.148438 29.878906 -61.660156 28.84375 -60.96875 C 27.980469 -60.277344 25.390625 -60.105469 24.179688 -59.414062 C 22.453125 -58.722656 20.898438 -57.859375 19.515625 -56.824219 C 16.234375 -54.75 13.644531 -51.816406 11.226562 -48.878906 C 7.082031 -43.351562 5.007812 -37.132812 2.074219 -31.605469 C -3.453125 -21.070312 2.589844 -7.253906 12.78125 -2.246094 C 16.0625 -0.691406 19.863281 0 23.316406 -0.34375 C 26.945312 -0.863281 30.398438 -2.761719 33.160156 -4.835938 C 35.753906 -6.734375 41.453125 -10.191406 42.488281 -13.125 C 42.488281 -13.300781 42.144531 -13.125 41.625 -12.609375 L 46.632812 -18.480469 C 46.804688 -18.308594 45.425781 -16.582031 45.425781 -16.582031 C 46.632812 -16.0625 52.851562 -25.214844 53.542969 -25.90625 C 54.75 -27.980469 55.960938 -30.226562 57.34375 -32.296875 C 58.550781 -33.851562 58.207031 -33.679688 59.933594 -34.371094 C 59.761719 -34.199219 62.003906 -34.890625 62.351562 -34.890625 C 64.25 -35.234375 84.457031 -36.617188 79.449219 -43.007812 Z M 19.691406 -8.117188 L 19.515625 -8.117188 C 5.179688 -6.046875 21.761719 -36.441406 22.109375 -38.171875 L 21.070312 -36.617188 C 23.664062 -41.796875 26.082031 -45.941406 27.289062 -47.324219 C 29.1875 -38.6875 38.515625 -35.40625 46.117188 -34.371094 C 41.105469 -24.351562 31.78125 -10.363281 19.691406 -8.117188 Z M 53.714844 -55.960938 C 52.503906 -51.125 51.46875 -44.734375 48.878906 -40.414062 C 48.015625 -38.6875 48.535156 -39.207031 46.804688 -38.859375 C 45.769531 -38.515625 43.523438 -38.859375 42.488281 -39.035156 C 40.589844 -39.207031 38.34375 -39.550781 36.960938 -40.761719 C 34.542969 -42.832031 34.890625 -46.117188 35.234375 -49.050781 C 35.578125 -51.988281 36.441406 -54.75 37.480469 -57.515625 C 37.996094 -58.550781 41.277344 -64.078125 40.761719 -65.113281 C 40.589844 -65.632812 38.6875 -62.523438 38.515625 -62.351562 C 39.550781 -64.25 40.589844 -65.285156 41.453125 -66.496094 C 41.277344 -66.496094 41.453125 -66.667969 41.625 -67.015625 L 41.625 -66.839844 L 41.796875 -67.1875 C 41.796875 -67.1875 41.796875 -67.359375 41.96875 -67.359375 C 44.5625 -70.8125 50.953125 -78.585938 54.40625 -73.230469 C 56.996094 -68.742188 54.578125 -60.277344 53.714844 -55.960938 Z M 41.796875 -67.1875 L 41.96875 -67.359375 C 41.96875 -67.1875 41.796875 -67.1875 41.796875 -67.1875 Z M 41.796875 -67.1875 "/></g></g></g><g fill="#000000" fill-opacity="1"><g transform="translate(590.011866, 299.858241)"><g><path d="M 88.085938 -41.453125 C 87.394531 -46.460938 82.386719 -41.453125 80.832031 -40.070312 C 77.894531 -37.824219 74.785156 -35.925781 71.851562 -33.679688 C 67.878906 -30.917969 64.078125 -27.808594 60.277344 -24.699219 C 58.722656 -23.488281 49.222656 -14.679688 48.359375 -15.199219 C 51.125 -23.835938 55.960938 -32.46875 60.625 -40.589844 C 64.941406 -47.84375 56.132812 -54.058594 49.050781 -50.953125 C 46.980469 -50.085938 44.734375 -46.289062 43.351562 -44.386719 C 40.070312 -39.726562 36.960938 -34.714844 33.679688 -30.050781 L 29.015625 -22.972656 C 28.5 -22.28125 25.214844 -17.445312 25.734375 -17.445312 C 25.90625 -17.445312 26.082031 -17.617188 26.253906 -17.789062 C 22.796875 -13.125 17.789062 -7.253906 13.300781 -3.972656 C 7.082031 0.863281 10.707031 -13.644531 11.570312 -16.0625 C 14.164062 -23.835938 18.480469 -31.261719 23.144531 -37.996094 C 23.835938 -39.035156 33.335938 -51.125 36.441406 -54.058594 C 33.335938 -51.46875 24.007812 -39.898438 22.453125 -37.996094 C 27.980469 -45.941406 36.789062 -58.550781 47.152344 -60.277344 L 44.90625 -59.414062 C 46.980469 -59.761719 51.640625 -59.585938 51.640625 -59.585938 L 51.125 -60.105469 C 51.988281 -59.585938 52.503906 -58.894531 53.542969 -58.894531 C 57.859375 -59.070312 56.824219 -65.976562 54.921875 -68.050781 C 52.332031 -71.503906 46.117188 -72.886719 41.96875 -71.851562 C 40.761719 -71.503906 40.242188 -70.8125 38.859375 -70.640625 C 37.308594 -70.296875 36.097656 -70.640625 34.199219 -69.605469 C 30.742188 -67.878906 27.808594 -65.460938 25.042969 -62.695312 C 23.316406 -61.140625 6.734375 -43.351562 7.945312 -42.660156 C 8.289062 -42.660156 8.636719 -43.007812 8.808594 -43.179688 L 5.871094 -38.859375 C 5.699219 -39.035156 6.5625 -40.242188 6.390625 -40.242188 C 5.699219 -40.589844 2.246094 -34.890625 2.074219 -34.371094 C 0.34375 -31.605469 -1.035156 -28.5 -1.554688 -25.214844 C -2.246094 -21.589844 -2.417969 -17.617188 -2.417969 -13.988281 C -2.417969 -11.570312 -2.246094 -9.152344 -1.554688 -6.910156 C -1.382812 -6.5625 0.691406 -2.589844 0.34375 -4.316406 L 0.863281 -3.109375 C 0.691406 -3.109375 0.519531 -3.28125 0.34375 -3.453125 C -0.34375 -2.246094 6.21875 3.628906 7.425781 4.144531 C 10.015625 5.355469 12.4375 4.664062 15.027344 3.109375 C 20.726562 -0.34375 24.699219 -6.910156 28.671875 -12.4375 C 32.988281 -18.308594 37.824219 -24.351562 41.453125 -30.917969 L 37.652344 -17.445312 C 36.097656 -12.4375 35.234375 -5.007812 32.125 -1.035156 C 28.84375 2.9375 24.007812 6.390625 20.378906 9.84375 C 16.582031 13.300781 12.78125 16.753906 9.328125 20.726562 C 4.316406 26.425781 -0.34375 32.644531 -4.664062 38.859375 C -9.671875 46.117188 -13.125 53.886719 -9.671875 62.351562 C -6.5625 69.777344 0.519531 76.6875 9.152344 74.613281 C 16.582031 72.714844 19.34375 66.496094 22.625 60.625 C 32.988281 42.660156 38.171875 21.933594 44.042969 2.074219 C 44.90625 -0.863281 45.425781 -3.800781 47.496094 -6.046875 C 49.570312 -8.117188 52.160156 -10.015625 54.578125 -11.917969 C 59.414062 -16.234375 64.421875 -20.207031 69.605469 -24.351562 L 83.59375 -35.0625 C 85.839844 -36.789062 88.777344 -38.171875 88.085938 -41.453125 Z M 26.945312 17.273438 C 26.945312 17.097656 26.082031 19.515625 26.253906 19.171875 C 22.625 29.707031 19.171875 40.242188 14.335938 50.261719 C 11.917969 55.269531 0.519531 75.996094 -3.628906 60.796875 C -6.390625 51.125 2.9375 40.070312 8.289062 32.988281 C 14.855469 24.527344 21.589844 16.925781 29.363281 9.671875 C 28.671875 12.261719 27.808594 14.855469 26.945312 17.273438 Z M 26.253906 29.363281 C 25.214844 33.160156 24.007812 36.960938 22.453125 40.589844 C 20.898438 43.523438 18.824219 46.117188 17.273438 48.878906 C 20.378906 42.144531 23.664062 35.753906 26.253906 28.84375 Z M 17.617188 -34.542969 C 16.582031 -32.644531 15.027344 -30.917969 13.644531 -29.015625 C 15.027344 -32.125 16.40625 -34.890625 19 -37.652344 C 19.515625 -38.171875 20.378906 -39.035156 20.898438 -39.898438 Z M 17.445312 -30.050781 L 15.890625 -27.808594 C 16.925781 -29.707031 18.136719 -31.605469 19.515625 -33.507812 Z M 17.445312 -30.050781 "/></g></g></g><g fill="#000000" fill-opacity="1"><g transform="translate(665.484426, 299.858241)"><g><path d="M 55.960938 -37.996094 C 56.824219 -39.035156 57.167969 -40.933594 56.652344 -42.316406 C 55.269531 -46.117188 50.953125 -41.453125 49.222656 -40.070312 C 46.632812 -38.171875 43.695312 -36.441406 40.933594 -34.542969 C 32.644531 -29.015625 24.871094 -22.972656 17.097656 -16.753906 C 20.207031 -25.5625 25.90625 -33.335938 29.878906 -41.453125 C 33.851562 -49.398438 19.863281 -55.789062 15.542969 -49.398438 C 15.027344 -48.535156 14.855469 -46.460938 14.335938 -45.25 C 13.300781 -42.488281 12.4375 -39.378906 11.398438 -36.441406 C 9.5 -30.398438 7.597656 -24.179688 5.527344 -18.136719 L 2.246094 -7.945312 C 1.554688 -5.699219 1.035156 -3.972656 -0.519531 -2.417969 C -1.726562 -1.035156 -3.453125 0.171875 -4.835938 1.554688 C -10.535156 6.5625 -16.234375 11.746094 -21.417969 17.097656 C -25.214844 20.898438 -28.5 25.214844 -31.433594 29.363281 C -35.0625 34.542969 -39.207031 39.207031 -42.316406 44.734375 C -48.015625 54.921875 -50.953125 68.914062 -36.789062 74.09375 C -30.570312 76.339844 -23.835938 74.957031 -19 70.640625 C -15.027344 67.015625 -12.609375 61.3125 -10.015625 56.652344 C -6.734375 50.953125 -3.800781 45.25 -1.554688 39.035156 C 1.554688 31.433594 4.144531 23.488281 6.910156 15.71875 C 9.671875 8.289062 11.054688 -3.453125 17.273438 -8.636719 C 24.007812 -14.335938 30.917969 -19.863281 37.996094 -25.214844 C 43.523438 -29.535156 49.222656 -34.371094 55.441406 -37.824219 C 55.097656 -37.824219 54.921875 -37.996094 54.75 -38.34375 C 55.613281 -38.859375 55.269531 -38.34375 55.960938 -37.996094 Z M -11.398438 30.398438 L -11.398438 29.878906 C -11.746094 30.570312 -12.089844 31.953125 -12.261719 32.125 C -16.0625 41.625 -20.035156 50.953125 -25.5625 59.414062 C -27.289062 62.003906 -30.742188 67.1875 -34.542969 66.324219 C -38.6875 65.285156 -39.378906 59.242188 -38.859375 55.789062 C -37.308594 45.941406 -29.535156 37.308594 -23.488281 29.878906 C -17.273438 22.28125 -10.882812 15.371094 -3.453125 8.980469 L -11.054688 29.535156 C -11.054688 29.363281 -11.054688 29.535156 -11.398438 30.398438 Z M 24.351562 -62.695312 C 24.527344 -62.867188 24.871094 -62.003906 25.042969 -62.179688 C 26.253906 -62.695312 26.769531 -63.042969 27.980469 -63.90625 C 29.707031 -65.632812 31.089844 -67.703125 32.816406 -69.257812 C 33.335938 -69.777344 32.125 -69.433594 32.296875 -69.433594 C 33.507812 -70.8125 34.890625 -70.121094 36.441406 -72.367188 C 37.652344 -73.921875 37.996094 -77.203125 38.515625 -78.414062 L 38.859375 -78.414062 C 39.207031 -80.3125 40.414062 -80.140625 41.453125 -82.039062 C 42.316406 -83.765625 42.144531 -86.183594 41.453125 -88.085938 C 41.105469 -88.777344 40.761719 -89.46875 40.242188 -89.984375 C 37.824219 -92.574219 31.78125 -92.921875 28.324219 -92.058594 C 27.460938 -91.886719 26.253906 -91.710938 25.390625 -91.195312 C 24.699219 -90.847656 23.488281 -90.15625 23.316406 -89.121094 C 23.316406 -88.601562 24.007812 -85.667969 24.871094 -86.875 C 25.042969 -87.050781 24.871094 -87.394531 24.699219 -87.566406 C 26.425781 -86.359375 26.597656 -86.359375 26.425781 -83.941406 C 26.425781 -82.902344 24.527344 -74.613281 22.972656 -70.640625 L 24.527344 -73.40625 C 23.316406 -70.640625 22.109375 -68.050781 20.554688 -65.632812 C 21.589844 -68.050781 19.691406 -65.113281 19.691406 -64.769531 C 18.824219 -64.941406 18.652344 -63.730469 18.824219 -63.042969 C 19.515625 -59.242188 22.796875 -62.351562 24.351562 -62.695312 Z M -0.863281 17.445312 C -1.210938 20.207031 -3.453125 22.972656 -4.664062 25.734375 C -4.144531 24.351562 -3.628906 20.554688 -2.589844 19.691406 C -1.898438 19.171875 -1.554688 18.136719 -0.863281 17.445312 Z M -3.28125 31.78125 L -3.800781 32.816406 L -3.800781 32.644531 L -4.316406 33.851562 L -4.835938 34.714844 L -5.355469 36.097656 L -5.871094 37.652344 C -5.699219 36.789062 -5.699219 35.925781 -5.355469 35.0625 C -5.007812 33.335938 -3.972656 31.953125 -3.28125 30.570312 L -3.28125 31.433594 L -2.589844 29.363281 C -2.589844 29.1875 -2.589844 29.015625 -2.417969 28.84375 C -2.589844 29.878906 -2.9375 30.917969 -3.28125 31.78125 Z M -1.726562 27.117188 C -1.210938 25.214844 -0.691406 22.972656 0.34375 21.933594 L 0.691406 21.589844 L 0.171875 22.625 C -0.34375 24.179688 -1.035156 26.082031 -1.726562 27.632812 L -1.726562 27.460938 L -1.898438 27.460938 C -1.898438 27.289062 -1.726562 27.117188 -1.726562 27.117188 Z M 21.589844 -68.394531 C 21.933594 -68.222656 22.28125 -68.742188 22.625 -69.949219 C 22.109375 -69.085938 21.589844 -68.394531 21.589844 -68.394531 Z M -1.035156 25.5625 L -0.691406 24.527344 C -0.863281 24.871094 -1.035156 25.214844 -1.035156 25.5625 Z M -0.519531 23.835938 C -0.691406 24.007812 -0.691406 24.179688 -0.691406 24.527344 Z M -1.898438 27.808594 L -2.074219 27.808594 L -1.898438 27.632812 Z M 20.035156 -64.769531 L 20.035156 -64.597656 L 19.863281 -64.597656 C 19.863281 -64.597656 20.035156 -64.597656 20.035156 -64.769531 Z M 20.035156 -64.769531 "/></g></g></g><g fill="#000000" fill-opacity="1"><g transform="translate(709.697201, 299.858241)"><g><path d="M 87.914062 -41.625 C 87.738281 -45.425781 84.632812 -42.144531 83.59375 -40.761719 C 81.347656 -37.480469 79.277344 -34.023438 77.203125 -30.742188 C 72.539062 -23.664062 67.878906 -16.582031 62.523438 -9.84375 C 44.734375 12.089844 57.167969 -26.945312 55.789062 -26.597656 C 55.097656 -26.425781 54.578125 -23.835938 54.40625 -23.316406 C 55.789062 -29.535156 58.378906 -36.960938 61.660156 -43.007812 C 63.558594 -46.804688 65.804688 -49.914062 62.351562 -54.058594 C 55.960938 -61.832031 48.535156 -54.75 44.386719 -49.398438 C 42.660156 -55.960938 39.207031 -65.632812 30.742188 -65.632812 C 26.945312 -65.632812 24.699219 -63.730469 22.109375 -61.488281 C 20.554688 -60.449219 19.34375 -60.277344 17.960938 -59.070312 C 15.71875 -57.515625 14.164062 -55.097656 12.609375 -53.023438 C 6.734375 -44.386719 2.589844 -33.507812 0.691406 -23.488281 C -0.171875 -18.652344 -0.519531 -13.300781 0.863281 -8.464844 C 1.726562 -5.699219 4.835938 0.519531 8.808594 0 C 8.980469 0 8.636719 -0.171875 8.117188 -0.519531 C 10.535156 0.171875 13.300781 -0.171875 15.371094 -1.554688 C 15.542969 -1.210938 13.472656 -0.34375 13.472656 -0.34375 C 15.371094 2.589844 29.535156 -14.507812 30.570312 -16.0625 C 32.816406 -19.171875 34.371094 -22.453125 36.441406 -25.734375 C 37.996094 -28.152344 40.414062 -31.261719 42.144531 -33.851562 C 41.96875 -32.644531 41.96875 -31.089844 41.96875 -31.089844 C 38.859375 -21.242188 35.925781 -10.535156 40.070312 -0.34375 C 41.96875 4.835938 46.632812 9.671875 52.503906 8.636719 C 57.6875 7.773438 62.003906 2.761719 65.113281 -1.210938 C 68.914062 -5.699219 72.195312 -10.707031 75.476562 -15.890625 C 78.242188 -20.554688 80.832031 -25.214844 83.078125 -30.398438 C 84.457031 -33.679688 88.257812 -37.652344 87.914062 -41.625 Z M 38.34375 -40.414062 C 37.480469 -39.207031 36.617188 -37.996094 35.925781 -36.789062 L 31.433594 -30.398438 C 28.5 -26.082031 25.390625 -21.933594 22.109375 -17.960938 C 21.242188 -16.753906 17.097656 -11.398438 15.371094 -11.917969 C 12.78125 -12.78125 15.542969 -21.761719 15.890625 -23.144531 C 16.40625 -25.5625 25.5625 -52.160156 27.980469 -52.679688 C 24.871094 -52.851562 14.855469 -21.589844 14.335938 -19 C 15.71875 -27.460938 18.824219 -35.753906 22.28125 -43.523438 C 24.179688 -47.496094 28.5 -58.03125 34.199219 -58.03125 C 37.308594 -58.03125 37.996094 -51.640625 38.515625 -49.570312 C 38.34375 -49.914062 36.789062 -54.921875 36.617188 -54.75 C 35.753906 -54.058594 39.207031 -44.5625 39.207031 -43.179688 C 39.207031 -41.796875 39.207031 -41.796875 38.34375 -40.414062 Z M 42.316406 -31.953125 C 42.316406 -31.953125 42.832031 -34.371094 43.007812 -34.890625 L 43.871094 -36.097656 Z M 39.726562 -42.660156 L 39.726562 -44.386719 C 40.242188 -43.695312 40.242188 -43.179688 39.726562 -42.660156 Z M 39.726562 -42.660156 "/></g></g></g></svg>