<svg xmlns="http://www.w3.org/2000/svg" xmlns:xlink="http://www.w3.org/1999/xlink" width="500" zoomAndPan="magnify" viewBox="0 0 375 374.999991" height="500" preserveAspectRatio="xMidYMid meet" version="1.0"><defs><g/></defs><rect x="-37.5" width="450" fill="#ffffff" y="-37.499999" height="449.999989" fill-opacity="1"/><rect x="-37.5" width="450" fill="#ffffff" y="-37.499999" height="449.999989" fill-opacity="1"/><rect x="-37.5" width="450" fill="#ffffff" y="-37.499999" height="449.999989" fill-opacity="1"/><g fill="#ffffff" fill-opacity="1"><g transform="translate(44.003908, 199.866769)"><g><path d="M 42.894531 -45.542969 C 42.632812 -47.671875 41.792969 -51.160156 39.082031 -51.160156 C 37.015625 -51.160156 34.496094 -47.996094 33.203125 -46.640625 C 30.039062 -43.34375 27.132812 -39.664062 24.351562 -35.917969 C 18.476562 -27.972656 13.113281 -19.378906 9.042969 -10.335938 C 10.980469 -16.019531 12.597656 -21.898438 14.792969 -27.453125 C 14.859375 -27.710938 19.121094 -37.789062 20.089844 -39.46875 C 19.445312 -38.433594 17.507812 -34.300781 16.601562 -32.429688 C 18.28125 -36.175781 20.089844 -39.921875 21.964844 -43.539062 C 21.769531 -43.152344 21.511719 -42.503906 21.574219 -42.503906 C 21.832031 -42.441406 23.191406 -45.089844 22.996094 -45.152344 L 22.738281 -44.960938 C 23.125 -45.542969 23.382812 -45.863281 23.0625 -46.769531 C 22.609375 -47.867188 21.382812 -49.160156 20.21875 -49.351562 C 18.476562 -49.609375 17.3125 -47.929688 16.601562 -46.574219 C 16.214844 -45.800781 15.503906 -45.347656 14.988281 -44.441406 C 14.148438 -43.085938 13.566406 -41.601562 12.984375 -40.113281 C 12.660156 -39.46875 9.171875 -31.265625 9.367188 -31.199219 L 9.558594 -31.457031 C 9.300781 -30.878906 9.171875 -30.230469 8.914062 -29.648438 C 8.851562 -29.714844 9.109375 -30.167969 8.980469 -30.230469 C 8.398438 -30.359375 6.523438 -24.484375 6.460938 -24.03125 C 6.203125 -22.671875 5.878906 -21.445312 5.425781 -20.15625 C 5.101562 -19.316406 4.78125 -18.476562 4.585938 -17.570312 C 4.585938 -17.507812 4.328125 -16.148438 4.457031 -16.214844 L 4.457031 -15.890625 C 4.394531 -15.957031 4.394531 -16.085938 4.394531 -16.148438 C 4.199219 -16.085938 3.875 -13.953125 3.8125 -13.757812 C 3.359375 -12.660156 2.84375 -11.628906 2.519531 -10.464844 C 1.613281 -7.300781 1.226562 -4.070312 0.773438 -0.839844 C 0.453125 1.226562 -0.710938 4.910156 0.582031 6.78125 C 1.484375 8.074219 4.585938 9.300781 5.8125 7.6875 C 6.332031 7.105469 6.203125 6.007812 6.332031 5.425781 C 6.71875 2.195312 7.558594 -0.453125 8.785156 -3.488281 C 11.304688 -9.691406 14.40625 -15.695312 17.894531 -21.445312 C 20.800781 -26.097656 23.511719 -30.941406 26.9375 -35.269531 C 29.070312 -37.984375 31.199219 -40.695312 33.527344 -43.214844 C 34.042969 -43.796875 36.304688 -46.574219 37.335938 -46.1875 C 38.628906 -45.734375 37.402344 -41.277344 37.207031 -40.375 C 36.496094 -37.144531 35.59375 -33.914062 34.496094 -30.75 C 32.6875 -25.582031 31.007812 -20.285156 28.808594 -15.375 C 27.390625 -12.207031 25.773438 -9.109375 24.09375 -6.136719 C 22.671875 -3.746094 20.671875 0.386719 17.636719 1.164062 C 14.148438 2.003906 11.820312 -3.164062 10.660156 -5.683594 C 10.660156 -1.097656 13.371094 3.683594 18.28125 4.523438 C 23.253906 5.363281 27.519531 0.128906 30.039062 -3.421875 C 32.039062 -6.203125 33.847656 -9.300781 35.269531 -12.402344 C 35.59375 -13.179688 35.65625 -13.953125 35.851562 -14.664062 C 36.175781 -15.890625 37.078125 -17.054688 37.597656 -18.214844 C 39.015625 -21.445312 40.246094 -24.613281 41.214844 -27.972656 C 41.730469 -29.585938 42.183594 -31.199219 42.503906 -32.878906 C 42.632812 -33.527344 42.761719 -34.300781 42.828125 -34.945312 C 42.828125 -35.335938 42.570312 -35.917969 42.570312 -36.046875 C 42.503906 -37.597656 43.023438 -39.210938 43.085938 -40.824219 C 43.152344 -42.375 43.085938 -43.992188 42.894531 -45.542969 Z M 7.882812 -22.542969 C 8.074219 -24.09375 8.851562 -25.773438 9.429688 -27.261719 C 10.140625 -29.199219 10.851562 -31.007812 11.820312 -32.878906 C 13.046875 -35.335938 14.210938 -37.855469 15.632812 -40.246094 C 15.503906 -39.921875 15.4375 -39.273438 15.246094 -38.886719 C 14.988281 -38.304688 14.597656 -37.726562 14.339844 -37.078125 C 13.695312 -35.65625 13.113281 -34.238281 12.402344 -32.816406 C 11.5 -30.941406 10.660156 -29.132812 9.882812 -27.261719 C 9.429688 -26.226562 9.109375 -25.191406 8.71875 -24.160156 C 8.527344 -23.511719 8.332031 -22.15625 7.945312 -21.703125 C 7.816406 -21.574219 7.882812 -22.542969 7.882812 -22.542969 Z M 28.230469 -10.464844 C 28.035156 -10.140625 27.839844 -9.820312 27.710938 -9.496094 L 27.390625 -8.851562 C 27.324219 -8.851562 27.324219 -8.785156 27.324219 -8.71875 C 26.097656 -6.460938 24.742188 -4.132812 23.320312 -2.066406 C 23.125 -1.808594 19.054688 3.359375 18.476562 2.003906 C 18.410156 1.808594 19.765625 1.550781 19.832031 1.484375 C 20.734375 1.035156 21.511719 0.0664062 22.15625 -0.710938 C 23.707031 -2.714844 25.0625 -4.972656 26.292969 -7.171875 C 27.324219 -8.980469 28.292969 -10.789062 29.132812 -12.597656 L 28.617188 -11.371094 C 28.875 -11.886719 29.070312 -12.402344 29.261719 -12.917969 L 29.648438 -13.824219 L 29.585938 -13.5 C 29.714844 -13.824219 29.84375 -14.210938 30.039062 -14.535156 L 30.039062 -14.597656 C 30.359375 -15.246094 30.621094 -15.761719 30.683594 -15.761719 C 30.683594 -15.695312 28.488281 -10.917969 28.230469 -10.53125 Z M 32.945312 -17.375 C 32.621094 -16.085938 32.167969 -14.792969 31.589844 -13.628906 C 31.070312 -12.660156 30.167969 -11.691406 29.84375 -10.660156 C 30.621094 -12.984375 31.976562 -15.117188 32.945312 -17.441406 Z M 8.851562 -21.125 C 8.332031 -20.285156 8.527344 -19.316406 8.269531 -18.476562 C 8.074219 -18.085938 7.363281 -17.3125 7.234375 -16.796875 C 7.234375 -17.183594 7.363281 -17.699219 7.429688 -18.023438 C 7.492188 -18.667969 7.816406 -18.925781 8.140625 -19.445312 C 8.398438 -19.832031 8.527344 -21.125 9.042969 -21.316406 Z M 23.382812 -1.875 C 24.289062 -3.230469 25.191406 -4.652344 26.03125 -6.203125 C 25.191406 -4.585938 24.351562 -3.164062 23.382812 -1.875 Z M 16.535156 -41.859375 C 16.796875 -41.730469 16.730469 -41.601562 16.40625 -41.277344 C 16.277344 -41.40625 16.277344 -41.601562 16.535156 -41.859375 Z M 14.988281 -28.617188 L 14.988281 -28.550781 L 13.953125 -26.097656 L 15.632812 -30.230469 C 15.4375 -29.648438 15.246094 -29.132812 14.988281 -28.617188 Z M 26.613281 -7.363281 C 26.613281 -7.234375 26.550781 -7.171875 26.484375 -7.042969 Z M 29.328125 -13.046875 C 29.328125 -12.984375 29.328125 -12.984375 29.261719 -12.917969 C 29.261719 -12.984375 29.328125 -12.984375 29.328125 -13.046875 Z M 29.328125 -13.046875 "/></g></g></g><g fill="#ffffff" fill-opacity="1"><g transform="translate(83.276858, 199.866769)"><g><path d="M 32.878906 -15.566406 C 32.816406 -16.988281 31.652344 -15.761719 31.265625 -15.246094 C 30.425781 -14.019531 29.648438 -12.726562 28.875 -11.5 C 27.132812 -8.851562 25.386719 -6.203125 23.382812 -3.683594 C 16.730469 4.523438 21.382812 -10.078125 20.863281 -9.949219 C 20.605469 -9.882812 20.414062 -8.914062 20.347656 -8.71875 C 20.863281 -11.046875 21.832031 -13.824219 23.0625 -16.085938 C 23.773438 -17.507812 24.613281 -18.667969 23.320312 -20.21875 C 20.929688 -23.125 18.152344 -20.476562 16.601562 -18.476562 C 15.957031 -20.929688 14.664062 -24.546875 11.5 -24.546875 C 10.078125 -24.546875 9.238281 -23.835938 8.269531 -22.996094 C 7.6875 -22.609375 7.234375 -22.542969 6.71875 -22.09375 C 5.878906 -21.511719 5.296875 -20.605469 4.714844 -19.832031 C 2.519531 -16.601562 0.96875 -12.53125 0.257812 -8.785156 C -0.0664062 -6.976562 -0.195312 -4.972656 0.324219 -3.164062 C 0.644531 -2.132812 1.808594 0.195312 3.292969 0 C 3.359375 0 3.230469 -0.0664062 3.035156 -0.195312 C 3.941406 0.0664062 4.972656 -0.0664062 5.75 -0.582031 C 5.8125 -0.453125 5.039062 -0.128906 5.039062 -0.128906 C 5.75 0.96875 11.046875 -5.425781 11.433594 -6.007812 C 12.273438 -7.171875 12.855469 -8.398438 13.628906 -9.625 C 14.210938 -10.53125 15.117188 -11.691406 15.761719 -12.660156 C 15.695312 -12.207031 15.695312 -11.628906 15.695312 -11.628906 C 14.535156 -7.945312 13.4375 -3.941406 14.988281 -0.128906 C 15.695312 1.808594 17.441406 3.617188 19.636719 3.230469 C 21.574219 2.90625 23.191406 1.035156 24.351562 -0.453125 C 25.773438 -2.132812 27 -4.003906 28.230469 -5.941406 C 29.261719 -7.6875 30.230469 -9.429688 31.070312 -11.371094 C 31.589844 -12.597656 33.007812 -14.082031 32.878906 -15.566406 Z M 14.339844 -15.117188 C 14.019531 -14.664062 13.695312 -14.210938 13.4375 -13.757812 L 11.757812 -11.371094 C 10.660156 -9.753906 9.496094 -8.203125 8.269531 -6.71875 C 7.945312 -6.265625 6.394531 -4.261719 5.75 -4.457031 C 4.78125 -4.78125 5.8125 -8.140625 5.941406 -8.65625 C 6.136719 -9.558594 9.558594 -19.507812 10.464844 -19.703125 C 9.300781 -19.765625 5.554688 -8.074219 5.363281 -7.105469 C 5.878906 -10.269531 7.042969 -13.371094 8.332031 -16.277344 C 9.042969 -17.765625 10.660156 -21.703125 12.789062 -21.703125 C 13.953125 -21.703125 14.210938 -19.316406 14.40625 -18.539062 C 14.339844 -18.667969 13.757812 -20.542969 13.695312 -20.476562 C 13.371094 -20.21875 14.664062 -16.667969 14.664062 -16.148438 C 14.664062 -15.632812 14.664062 -15.632812 14.339844 -15.117188 Z M 15.828125 -11.949219 C 15.828125 -11.949219 16.019531 -12.855469 16.085938 -13.046875 L 16.40625 -13.5 Z M 14.859375 -15.957031 L 14.859375 -16.601562 C 15.050781 -16.34375 15.050781 -16.148438 14.859375 -15.957031 Z M 14.859375 -15.957031 "/></g></g></g><g fill="#ffffff" fill-opacity="1"><g transform="translate(111.439702, 199.866769)"><g><path d="M 32.039062 -15.890625 C 31.71875 -15.890625 31.265625 -15.246094 31.070312 -15.050781 C 30.167969 -14.148438 29.390625 -13.113281 28.617188 -12.144531 C 26.484375 -9.691406 24.351562 -7.171875 22.027344 -4.910156 C 21.445312 -4.394531 19.960938 -2.648438 19.121094 -3.230469 C 18.605469 -3.554688 19.054688 -5.621094 19.121094 -6.070312 C 19.25 -6.652344 20.414062 -9.691406 20.023438 -10.078125 C 19.832031 -10.207031 19.507812 -9.238281 19.445312 -9.171875 C 20.476562 -12.789062 22.542969 -16.925781 24.222656 -20.476562 C 25.191406 -22.414062 26.421875 -24.804688 24.804688 -26.808594 C 21.964844 -30.296875 18.410156 -25.839844 16.472656 -23.773438 C 15.632812 -22.867188 7.492188 -12.917969 7.621094 -12.855469 C 7.621094 -12.855469 8.203125 -13.566406 9.042969 -14.535156 C 7.816406 -12.917969 6.652344 -11.304688 5.554688 -9.625 C 6.265625 -12.273438 7.042969 -14.859375 7.882812 -17.441406 C 8.332031 -18.734375 8.71875 -20.089844 9.171875 -21.445312 C 9.691406 -22.867188 10.078125 -23.449219 11.175781 -24.484375 C 13.046875 -26.160156 14.859375 -27.972656 16.535156 -29.910156 C 17.183594 -30.683594 17.636719 -31.589844 18.28125 -32.296875 C 18.863281 -32.878906 19.703125 -33.398438 20.347656 -34.109375 C 23.644531 -37.984375 26.292969 -42.828125 28.488281 -47.351562 C 29.457031 -49.480469 30.359375 -51.679688 31.007812 -53.9375 C 31.136719 -54.457031 32.558594 -60.398438 32.234375 -60.398438 C 32.167969 -60.398438 32.167969 -60.335938 32.105469 -60.203125 C 32.167969 -61.238281 32.105469 -62.402344 31.71875 -63.433594 C 31.78125 -63.433594 32.105469 -62.464844 32.105469 -62.464844 C 32.492188 -62.722656 31.328125 -64.726562 31.070312 -64.984375 C 30.488281 -65.566406 29.648438 -65.890625 28.808594 -65.890625 C 27.132812 -66.019531 25.582031 -65.113281 24.289062 -64.144531 C 21.832031 -62.273438 20.089844 -59.496094 18.28125 -56.976562 C 17.246094 -55.554688 16.277344 -54.132812 15.375 -52.648438 C 14.726562 -51.679688 13.308594 -49.933594 13.308594 -48.769531 C 13.371094 -48.707031 13.4375 -48.707031 13.4375 -48.707031 L 12.660156 -47.222656 C 12.660156 -47.222656 13.046875 -48.382812 13.113281 -48.449219 C 12.789062 -48.253906 12.46875 -46.898438 12.46875 -46.832031 C 9.949219 -41.921875 7.300781 -37.207031 5.554688 -31.976562 C 3.554688 -26.097656 2.066406 -20.023438 0.96875 -13.953125 C 0.453125 -11.175781 -0.195312 -8.140625 0.0664062 -5.296875 C 0.0664062 -4.523438 0.128906 -3.617188 0.710938 -2.972656 C 1.421875 -2.066406 2.90625 -1.742188 3.746094 -2.648438 C 4.003906 -2.972656 4.003906 -3.164062 4.132812 -3.488281 L 5.296875 -5.554688 C 6.847656 -7.945312 8.71875 -10.140625 10.207031 -12.597656 C 10.398438 -12.984375 10.59375 -13.4375 10.851562 -13.757812 C 11.175781 -14.148438 11.304688 -13.953125 11.691406 -14.277344 C 12.789062 -15.179688 13.628906 -16.535156 14.535156 -17.636719 C 16.40625 -19.960938 18.28125 -22.609375 20.671875 -24.546875 L 18.796875 -20.023438 L 18.992188 -20.21875 L 18.023438 -18.023438 C 17.957031 -18.085938 18.214844 -18.667969 18.214844 -18.734375 C 17.957031 -18.734375 16.730469 -16.214844 16.601562 -15.957031 C 15.828125 -14.40625 14.988281 -12.855469 14.535156 -11.238281 C 14.148438 -9.691406 13.695312 -8.140625 13.242188 -6.589844 C 13.046875 -5.621094 12.855469 -4.652344 12.917969 -3.683594 C 12.917969 -3.421875 13.4375 -1.097656 13.628906 -1.292969 L 13.628906 -1.550781 C 13.757812 -1.164062 13.886719 -0.839844 14.082031 -0.515625 L 13.695312 -1.097656 C 13.5 -0.644531 15.246094 0.839844 15.4375 1.035156 C 16.40625 2.003906 17.375 2.648438 18.863281 2.714844 C 20.089844 2.777344 20.734375 2.324219 21.640625 1.484375 C 24.09375 -0.90625 25.839844 -4.199219 27.710938 -7.042969 C 28.746094 -8.527344 29.78125 -10.078125 30.75 -11.628906 C 31.007812 -11.949219 32.75 -15.566406 32.492188 -15.503906 C 32.878906 -15.566406 32.167969 -15.890625 32.039062 -15.890625 Z M 26.421875 -59.363281 L 26.421875 -59.429688 C 26.421875 -59.429688 26.484375 -59.429688 26.484375 -59.496094 L 26.484375 -59.429688 C 26.550781 -59.558594 26.613281 -59.6875 26.550781 -59.625 C 27.066406 -60.398438 28.359375 -62.722656 29.261719 -61.949219 C 30.167969 -61.175781 29.328125 -58.460938 29.070312 -57.492188 C 28.550781 -55.488281 27.777344 -53.550781 27 -51.679688 C 25.453125 -48.058594 23.511719 -44.636719 21.382812 -41.277344 C 20.347656 -39.664062 19.25 -38.046875 18.152344 -36.496094 C 17.570312 -35.722656 16.988281 -34.945312 16.34375 -34.171875 L 15.828125 -33.589844 L 16.988281 -34.753906 L 19.574219 -38.371094 C 20.996094 -40.308594 22.351562 -42.441406 23.644531 -44.574219 C 20.347656 -38.757812 16.34375 -33.269531 11.691406 -28.359375 L 13.628906 -33.460938 C 13.824219 -33.847656 15.179688 -37.660156 15.179688 -37.660156 C 15.050781 -37.597656 14.859375 -37.273438 14.664062 -36.949219 C 16.214844 -40.503906 18.214844 -44.183594 20.023438 -47.738281 C 22.027344 -51.613281 24.03125 -55.617188 26.355469 -59.300781 C 26.355469 -59.300781 26.421875 -59.300781 26.421875 -59.363281 Z M 10.207031 -27.710938 C 10.789062 -31.199219 12.402344 -34.496094 13.566406 -37.855469 C 14.597656 -40.695312 16.277344 -43.28125 17.570312 -45.992188 C 18.152344 -47.285156 24.351562 -59.105469 24.484375 -59.042969 C 25 -58.71875 17.054688 -43.539062 16.214844 -41.730469 C 15.503906 -40.375 14.859375 -39.082031 14.339844 -37.597656 C 13.886719 -36.175781 13.113281 -35.011719 12.597656 -33.65625 C 12.339844 -33.007812 9.753906 -26.226562 9.949219 -26.160156 C 9.820312 -26.160156 10.078125 -27.195312 10.140625 -27.519531 Z M 14.664062 -32.234375 C 14.792969 -32.363281 14.921875 -32.621094 15.117188 -32.816406 C 14.921875 -32.621094 14.792969 -32.429688 14.664062 -32.234375 Z M 26.421875 -59.363281 L 26.421875 -59.429688 L 26.484375 -59.429688 Z M 10.207031 -27.648438 C 10.207031 -27.582031 10.140625 -27.519531 10.140625 -27.519531 C 10.140625 -27.582031 10.207031 -27.582031 10.207031 -27.648438 Z M 10.207031 -27.648438 "/></g></g></g><g fill="#ffffff" fill-opacity="1"><g transform="translate(139.27957, 199.866769)"><g><path d="M 32.878906 -15.566406 C 32.816406 -16.988281 31.652344 -15.761719 31.265625 -15.246094 C 30.425781 -14.019531 29.648438 -12.726562 28.875 -11.5 C 27.132812 -8.851562 25.386719 -6.203125 23.382812 -3.683594 C 16.730469 4.523438 21.382812 -10.078125 20.863281 -9.949219 C 20.605469 -9.882812 20.414062 -8.914062 20.347656 -8.71875 C 20.863281 -11.046875 21.832031 -13.824219 23.0625 -16.085938 C 23.773438 -17.507812 24.613281 -18.667969 23.320312 -20.21875 C 20.929688 -23.125 18.152344 -20.476562 16.601562 -18.476562 C 15.957031 -20.929688 14.664062 -24.546875 11.5 -24.546875 C 10.078125 -24.546875 9.238281 -23.835938 8.269531 -22.996094 C 7.6875 -22.609375 7.234375 -22.542969 6.71875 -22.09375 C 5.878906 -21.511719 5.296875 -20.605469 4.714844 -19.832031 C 2.519531 -16.601562 0.96875 -12.53125 0.257812 -8.785156 C -0.0664062 -6.976562 -0.195312 -4.972656 0.324219 -3.164062 C 0.644531 -2.132812 1.808594 0.195312 3.292969 0 C 3.359375 0 3.230469 -0.0664062 3.035156 -0.195312 C 3.941406 0.0664062 4.972656 -0.0664062 5.75 -0.582031 C 5.8125 -0.453125 5.039062 -0.128906 5.039062 -0.128906 C 5.75 0.96875 11.046875 -5.425781 11.433594 -6.007812 C 12.273438 -7.171875 12.855469 -8.398438 13.628906 -9.625 C 14.210938 -10.53125 15.117188 -11.691406 15.761719 -12.660156 C 15.695312 -12.207031 15.695312 -11.628906 15.695312 -11.628906 C 14.535156 -7.945312 13.4375 -3.941406 14.988281 -0.128906 C 15.695312 1.808594 17.441406 3.617188 19.636719 3.230469 C 21.574219 2.90625 23.191406 1.035156 24.351562 -0.453125 C 25.773438 -2.132812 27 -4.003906 28.230469 -5.941406 C 29.261719 -7.6875 30.230469 -9.429688 31.070312 -11.371094 C 31.589844 -12.597656 33.007812 -14.082031 32.878906 -15.566406 Z M 14.339844 -15.117188 C 14.019531 -14.664062 13.695312 -14.210938 13.4375 -13.757812 L 11.757812 -11.371094 C 10.660156 -9.753906 9.496094 -8.203125 8.269531 -6.71875 C 7.945312 -6.265625 6.394531 -4.261719 5.75 -4.457031 C 4.78125 -4.78125 5.8125 -8.140625 5.941406 -8.65625 C 6.136719 -9.558594 9.558594 -19.507812 10.464844 -19.703125 C 9.300781 -19.765625 5.554688 -8.074219 5.363281 -7.105469 C 5.878906 -10.269531 7.042969 -13.371094 8.332031 -16.277344 C 9.042969 -17.765625 10.660156 -21.703125 12.789062 -21.703125 C 13.953125 -21.703125 14.210938 -19.316406 14.40625 -18.539062 C 14.339844 -18.667969 13.757812 -20.542969 13.695312 -20.476562 C 13.371094 -20.21875 14.664062 -16.667969 14.664062 -16.148438 C 14.664062 -15.632812 14.664062 -15.632812 14.339844 -15.117188 Z M 15.828125 -11.949219 C 15.828125 -11.949219 16.019531 -12.855469 16.085938 -13.046875 L 16.40625 -13.5 Z M 14.859375 -15.957031 L 14.859375 -16.601562 C 15.050781 -16.34375 15.050781 -16.148438 14.859375 -15.957031 Z M 14.859375 -15.957031 "/></g></g></g><g fill="#ffffff" fill-opacity="1"><g transform="translate(167.442414, 199.866769)"><g><path d="M 26.484375 -15.695312 C 26.097656 -17.375 24.546875 -15.117188 24.222656 -14.726562 L 20.671875 -9.949219 L 17.183594 -5.363281 L 15.308594 -2.972656 C 15.117188 -2.714844 13.695312 -0.90625 13.824219 -0.90625 C 13.953125 -1.035156 14.148438 -1.035156 14.339844 -1.226562 C 13.371094 -0.195312 9.820312 3.035156 9.171875 2.261719 C 8.65625 1.613281 10.078125 -1.097656 10.269531 -1.742188 C 10.980469 -3.617188 11.628906 -5.554688 12.402344 -7.363281 C 13.242188 -9.238281 14.210938 -11.109375 14.988281 -12.984375 C 15.761719 -14.988281 14.597656 -15.695312 12.726562 -16.148438 C 11.886719 -16.34375 10.851562 -16.34375 9.882812 -16.472656 C 9.882812 -16.40625 9.949219 -16.40625 9.949219 -16.40625 C 10.789062 -16.277344 12.015625 -16.214844 13.046875 -15.890625 C 11.5 -16.34375 9.558594 -16.148438 8.332031 -16.472656 C 7.492188 -16.667969 6.976562 -16.667969 7.105469 -17.636719 C 7.234375 -18.925781 8.589844 -20.285156 9.042969 -21.511719 C 9.042969 -21.445312 8.589844 -20.285156 8.65625 -20.285156 C 8.980469 -20.15625 9.496094 -21.964844 9.496094 -22.222656 C 9.429688 -22.542969 8.65625 -23.511719 8.589844 -23.125 L 8.71875 -22.933594 C 5.621094 -25.0625 1.9375 -20.671875 2.582031 -17.507812 C 2.714844 -17.054688 2.972656 -16.796875 3.164062 -16.277344 C 3.292969 -15.890625 3.164062 -15.4375 3.554688 -14.921875 C 4.910156 -13.242188 7.363281 -13.179688 9.300781 -13.566406 C 8.980469 -13.113281 5.554688 -5.878906 5.75 -5.8125 L 5.296875 -4.199219 C 5.230469 -4.261719 5.492188 -4.78125 5.363281 -4.78125 C 4.910156 -4.84375 4.003906 -1.097656 3.941406 -0.773438 C 3.683594 0.773438 3.746094 2.132812 4.394531 3.554688 C 4.78125 4.457031 5.230469 5.230469 6.070312 5.75 C 6.847656 6.265625 7.816406 6.523438 8.71875 6.332031 C 9.042969 6.203125 10.269531 5.363281 9.949219 5.425781 L 10.398438 5.230469 C 10.335938 5.296875 10.269531 5.363281 10.269531 5.425781 C 10.464844 5.492188 13.4375 3.101562 13.824219 2.84375 C 15.890625 1.097656 17.570312 -1.035156 19.121094 -3.164062 C 20.671875 -5.363281 22.285156 -7.558594 23.773438 -9.753906 C 24.484375 -10.789062 25.128906 -11.820312 25.644531 -12.917969 C 26.03125 -13.695312 26.679688 -14.792969 26.484375 -15.695312 Z M 7.171875 -7.945312 C 7.621094 -9.109375 8.140625 -10.207031 8.71875 -11.304688 C 8.851562 -11.5 9.753906 -13.824219 10.207031 -13.953125 C 9.882812 -13.757812 8.527344 -10.59375 8.203125 -10.011719 L 6.976562 -7.171875 C 6.332031 -5.621094 5.621094 -4.003906 5.167969 -2.324219 C 5.621094 -4.261719 6.394531 -6.136719 7.171875 -7.945312 Z M 5.621094 4.457031 C 6.007812 4.972656 6.523438 5.492188 7.234375 5.75 C 6.652344 5.554688 6.136719 5.230469 5.75 4.84375 C 5.8125 4.84375 5.8125 4.910156 5.8125 4.972656 C 5.425781 4.457031 4.910156 3.359375 4.84375 3.164062 C 4.652344 2.390625 4.585938 1.484375 4.652344 0.710938 C 4.652344 0.0664062 4.714844 -0.453125 4.84375 -1.035156 L 4.84375 -0.96875 C 4.714844 -0.128906 4.652344 0.710938 4.714844 1.613281 L 4.714844 1.9375 C 4.652344 1.875 4.652344 1.808594 4.652344 1.808594 C 4.652344 1.808594 4.652344 1.875 4.714844 2.003906 L 4.714844 2.066406 L 4.972656 3.421875 L 4.78125 2.582031 C 4.910156 2.972656 5.230469 3.683594 5.554688 4.394531 L 5.492188 4.328125 C 5.492188 4.394531 5.554688 4.457031 5.621094 4.523438 Z M 7.429688 -16.859375 C 7.75 -16.601562 8.332031 -16.535156 8.914062 -16.472656 C 8.398438 -16.535156 7.945312 -16.667969 7.621094 -16.925781 C 7.621094 -16.925781 7.234375 -17.246094 7.171875 -17.375 C 7.171875 -17.246094 7.300781 -16.925781 7.429688 -16.859375 Z M 14.210938 -11.820312 L 12.855469 -8.980469 L 14.210938 -11.886719 Z M 4.910156 -1.226562 C 4.910156 -1.164062 4.84375 -1.097656 4.84375 -1.035156 L 4.84375 -1.097656 C 4.84375 -1.164062 4.910156 -1.164062 4.910156 -1.226562 Z M 14.277344 -12.015625 L 14.277344 -11.949219 L 14.210938 -11.949219 Z M 14.277344 -12.015625 L 14.277344 -11.949219 L 14.210938 -11.949219 Z M 4.972656 -2.066406 C 4.972656 -2.132812 5.039062 -2.195312 5.039062 -2.324219 C 5.039062 -2.195312 4.972656 -2.132812 4.972656 -2.066406 Z M 5.230469 3.875 C 5.230469 3.875 5.296875 3.941406 5.296875 4.003906 C 5.296875 3.941406 5.230469 3.941406 5.230469 3.875 Z M 7.234375 -17.507812 C 7.171875 -17.507812 7.171875 -17.441406 7.171875 -17.441406 Z M 7.234375 -17.507812 "/></g></g></g><g fill="#ffffff" fill-opacity="1"><g transform="translate(189.210483, 199.866769)"><g/></g></g><g fill="#ffffff" fill-opacity="1"><g transform="translate(207.296713, 199.866769)"><g><path d="M 40.179688 -45.023438 C 39.855469 -47.542969 35.078125 -47.738281 33.785156 -46.25 C 33.589844 -46.058594 33.332031 -45.476562 32.945312 -45.152344 C 32.296875 -44.574219 32.558594 -44.832031 31.78125 -44.574219 C 29.972656 -44.054688 28.164062 -43.539062 26.355469 -42.957031 C 25.0625 -42.570312 23.578125 -42.3125 22.285156 -41.730469 C 21.511719 -41.40625 21.058594 -41.019531 20.21875 -40.761719 C 17.441406 -39.984375 14.46875 -39.40625 12.078125 -38.175781 C 10.464844 -37.335938 8.460938 -36.757812 8.332031 -34.496094 C 8.332031 -33.847656 8.589844 -33.332031 8.914062 -32.75 C 9.300781 -31.976562 9.820312 -31.71875 10.398438 -31.265625 L 11.757812 -30.039062 C 12.597656 -29.261719 14.019531 -28.164062 15.179688 -28.230469 C 15.246094 -28.230469 16.34375 -28.617188 16.40625 -28.746094 C 16.988281 -29.457031 14.988281 -30.941406 14.597656 -31.457031 C 13.886719 -32.363281 12.855469 -33.785156 13.179688 -35.011719 C 13.886719 -37.402344 18.476562 -38.242188 20.542969 -38.824219 C 22.15625 -39.273438 23.707031 -40.113281 25.320312 -40.566406 C 27.132812 -41.085938 28.875 -41.34375 30.683594 -42.054688 C 26.742188 -35.785156 24.289062 -28.550781 21.769531 -21.703125 C 19.121094 -14.535156 16.601562 -7.234375 13.179688 -0.386719 C 12.402344 1.226562 10.398438 6.136719 7.882812 4.78125 C 6.589844 4.132812 5.941406 2.324219 5.492188 1.097656 C 4.78125 -0.644531 4.199219 -2.519531 3.683594 -4.328125 C 2.714844 -7.882812 2.324219 -11.433594 1.875 -15.117188 C 1.742188 -15.761719 1.484375 -17.765625 0.453125 -17.441406 C -0.453125 -17.117188 0.257812 -12.078125 0.195312 -11.238281 C 0 -7.621094 0.257812 -3.941406 1.164062 -0.386719 C 2.003906 2.972656 3.683594 6.394531 6.847656 8.140625 C 8.269531 8.914062 10.011719 9.429688 11.628906 9.429688 C 13.308594 9.429688 14.277344 8.460938 15.179688 7.234375 C 19.183594 2.066406 21.445312 -4.132812 23.902344 -10.140625 C 24.613281 -11.820312 25 -13.4375 25.453125 -15.050781 C 25.902344 -16.859375 26.871094 -18.605469 27.582031 -20.347656 C 28.941406 -23.707031 30.296875 -27.066406 31.847656 -30.425781 L 34.558594 -35.917969 C 35.207031 -37.078125 35.269531 -38.113281 36.046875 -39.144531 C 37.207031 -40.566406 38.371094 -41.921875 39.535156 -43.410156 C 39.855469 -43.863281 40.246094 -44.378906 40.179688 -45.023438 Z M 26.808594 -23.382812 C 25.582031 -20.605469 24.222656 -18.28125 23.125 -15.4375 L 27.195312 -26.097656 C 27.777344 -27.710938 28.550781 -29.199219 29.328125 -30.75 C 28.359375 -28.488281 27.839844 -25.582031 26.808594 -23.382812 Z M 26.808594 -23.382812 "/></g></g></g><g fill="#ffffff" fill-opacity="1"><g transform="translate(237.332783, 199.866769)"><g><path d="M 29.714844 -16.085938 C 29.714844 -16.085938 29.78125 -16.019531 29.714844 -16.148438 C 29.390625 -16.601562 28.941406 -16.277344 28.488281 -16.148438 C 26.613281 -15.761719 24.675781 -15.308594 22.738281 -14.988281 C 23.449219 -17.3125 24.160156 -19.765625 24.417969 -22.15625 C 24.546875 -23.0625 24.613281 -24.03125 24.417969 -24.933594 C 24.289062 -25.515625 24.09375 -26.097656 23.773438 -26.613281 C 23.773438 -26.613281 22.996094 -27.582031 23.191406 -27.066406 L 23.125 -27.132812 L 22.867188 -27.648438 L 23.125 -27.390625 C 23.191406 -27.777344 22.09375 -28.488281 22.09375 -28.488281 C 20.476562 -30.101562 18.28125 -31.328125 16.085938 -30.101562 C 14.726562 -29.328125 13.628906 -28.035156 12.726562 -26.742188 C 12.402344 -26.292969 12.078125 -25.773438 11.820312 -25.257812 C 11.5625 -24.742188 11.175781 -23.0625 10.789062 -22.804688 C 10.464844 -22.542969 9.496094 -22.480469 9.042969 -22.222656 C 8.398438 -21.964844 7.816406 -21.640625 7.300781 -21.253906 C 6.070312 -20.476562 5.101562 -19.378906 4.199219 -18.28125 C 2.648438 -16.214844 1.875 -13.886719 0.773438 -11.820312 C -1.292969 -7.882812 0.96875 -2.714844 4.78125 -0.839844 C 6.007812 -0.257812 7.429688 0 8.71875 -0.128906 C 10.078125 -0.324219 11.371094 -1.035156 12.402344 -1.808594 C 13.371094 -2.519531 15.503906 -3.8125 15.890625 -4.910156 C 15.890625 -4.972656 15.761719 -4.910156 15.566406 -4.714844 L 17.441406 -6.910156 C 17.507812 -6.847656 16.988281 -6.203125 16.988281 -6.203125 C 17.441406 -6.007812 19.765625 -9.429688 20.023438 -9.691406 C 20.476562 -10.464844 20.929688 -11.304688 21.445312 -12.078125 C 21.898438 -12.660156 21.769531 -12.597656 22.414062 -12.855469 C 22.351562 -12.789062 23.191406 -13.046875 23.320312 -13.046875 C 24.03125 -13.179688 31.589844 -13.695312 29.714844 -16.085938 Z M 7.363281 -3.035156 L 7.300781 -3.035156 C 1.9375 -2.261719 8.140625 -13.628906 8.269531 -14.277344 L 7.882812 -13.695312 C 8.851562 -15.632812 9.753906 -17.183594 10.207031 -17.699219 C 10.917969 -14.46875 14.40625 -13.242188 17.246094 -12.855469 C 15.375 -9.109375 11.886719 -3.875 7.363281 -3.035156 Z M 20.089844 -20.929688 C 19.636719 -19.121094 19.25 -16.730469 18.28125 -15.117188 C 17.957031 -14.46875 18.152344 -14.664062 17.507812 -14.535156 C 17.117188 -14.40625 16.277344 -14.535156 15.890625 -14.597656 C 15.179688 -14.664062 14.339844 -14.792969 13.824219 -15.246094 C 12.917969 -16.019531 13.046875 -17.246094 13.179688 -18.34375 C 13.308594 -19.445312 13.628906 -20.476562 14.019531 -21.511719 C 14.210938 -21.898438 15.4375 -23.964844 15.246094 -24.351562 C 15.179688 -24.546875 14.46875 -23.382812 14.40625 -23.320312 C 14.792969 -24.03125 15.179688 -24.417969 15.503906 -24.871094 C 15.4375 -24.871094 15.503906 -24.933594 15.566406 -25.0625 L 15.566406 -25 L 15.632812 -25.128906 C 15.632812 -25.128906 15.632812 -25.191406 15.695312 -25.191406 C 16.667969 -26.484375 19.054688 -29.390625 20.347656 -27.390625 C 21.316406 -25.710938 20.414062 -22.542969 20.089844 -20.929688 Z M 15.632812 -25.128906 L 15.695312 -25.191406 C 15.695312 -25.128906 15.632812 -25.128906 15.632812 -25.128906 Z M 15.632812 -25.128906 "/></g></g></g><g fill="#ffffff" fill-opacity="1"><g transform="translate(262.588908, 199.866769)"><g><path d="M 32.945312 -15.503906 C 32.6875 -17.375 30.8125 -15.503906 30.230469 -14.988281 C 29.132812 -14.148438 27.972656 -13.4375 26.871094 -12.597656 C 25.386719 -11.5625 23.964844 -10.398438 22.542969 -9.238281 C 21.964844 -8.785156 18.410156 -5.492188 18.085938 -5.683594 C 19.121094 -8.914062 20.929688 -12.144531 22.671875 -15.179688 C 24.289062 -17.894531 20.996094 -20.21875 18.34375 -19.054688 C 17.570312 -18.734375 16.730469 -17.3125 16.214844 -16.601562 C 14.988281 -14.859375 13.824219 -12.984375 12.597656 -11.238281 L 10.851562 -8.589844 C 10.660156 -8.332031 9.429688 -6.523438 9.625 -6.523438 C 9.691406 -6.523438 9.753906 -6.589844 9.820312 -6.652344 C 8.527344 -4.910156 6.652344 -2.714844 4.972656 -1.484375 C 2.648438 0.324219 4.003906 -5.101562 4.328125 -6.007812 C 5.296875 -8.914062 6.910156 -11.691406 8.65625 -14.210938 C 8.914062 -14.597656 12.46875 -19.121094 13.628906 -20.21875 C 12.46875 -19.25 8.980469 -14.921875 8.398438 -14.210938 C 10.464844 -17.183594 13.757812 -21.898438 17.636719 -22.542969 L 16.796875 -22.222656 C 17.570312 -22.351562 19.316406 -22.285156 19.316406 -22.285156 L 19.121094 -22.480469 C 19.445312 -22.285156 19.636719 -22.027344 20.023438 -22.027344 C 21.640625 -22.09375 21.253906 -24.675781 20.542969 -25.453125 C 19.574219 -26.742188 17.246094 -27.261719 15.695312 -26.871094 C 15.246094 -26.742188 15.050781 -26.484375 14.535156 -26.421875 C 13.953125 -26.292969 13.5 -26.421875 12.789062 -26.03125 C 11.5 -25.386719 10.398438 -24.484375 9.367188 -23.449219 C 8.71875 -22.867188 2.519531 -16.214844 2.972656 -15.957031 C 3.101562 -15.957031 3.230469 -16.085938 3.292969 -16.148438 L 2.195312 -14.535156 C 2.132812 -14.597656 2.453125 -15.050781 2.390625 -15.050781 C 2.132812 -15.179688 0.839844 -13.046875 0.773438 -12.855469 C 0.128906 -11.820312 -0.386719 -10.660156 -0.582031 -9.429688 C -0.839844 -8.074219 -0.90625 -6.589844 -0.90625 -5.230469 C -0.90625 -4.328125 -0.839844 -3.421875 -0.582031 -2.582031 C -0.515625 -2.453125 0.257812 -0.96875 0.128906 -1.613281 L 0.324219 -1.164062 C 0.257812 -1.164062 0.195312 -1.226562 0.128906 -1.292969 C -0.128906 -0.839844 2.324219 1.355469 2.777344 1.550781 C 3.746094 2.003906 4.652344 1.742188 5.621094 1.164062 C 7.75 -0.128906 9.238281 -2.582031 10.722656 -4.652344 C 12.339844 -6.847656 14.148438 -9.109375 15.503906 -11.5625 L 14.082031 -6.523438 C 13.5 -4.652344 13.179688 -1.875 12.015625 -0.386719 C 10.789062 1.097656 8.980469 2.390625 7.621094 3.683594 C 6.203125 4.972656 4.78125 6.265625 3.488281 7.75 C 1.613281 9.882812 -0.128906 12.207031 -1.742188 14.535156 C -3.617188 17.246094 -4.910156 20.15625 -3.617188 23.320312 C -2.453125 26.097656 0.195312 28.679688 3.421875 27.90625 C 6.203125 27.195312 7.234375 24.871094 8.460938 22.671875 C 12.339844 15.957031 14.277344 8.203125 16.472656 0.773438 C 16.796875 -0.324219 16.988281 -1.421875 17.765625 -2.261719 C 18.539062 -3.035156 19.507812 -3.746094 20.414062 -4.457031 C 22.222656 -6.070312 24.09375 -7.558594 26.03125 -9.109375 L 31.265625 -13.113281 C 32.105469 -13.757812 33.203125 -14.277344 32.945312 -15.503906 Z M 10.078125 6.460938 C 10.078125 6.394531 9.753906 7.300781 9.820312 7.171875 C 8.460938 11.109375 7.171875 15.050781 5.363281 18.796875 C 4.457031 20.671875 0.195312 28.421875 -1.355469 22.738281 C -2.390625 19.121094 1.097656 14.988281 3.101562 12.339844 C 5.554688 9.171875 8.074219 6.332031 10.980469 3.617188 C 10.722656 4.585938 10.398438 5.554688 10.078125 6.460938 Z M 9.820312 10.980469 C 9.429688 12.402344 8.980469 13.824219 8.398438 15.179688 C 7.816406 16.277344 7.042969 17.246094 6.460938 18.28125 C 7.621094 15.761719 8.851562 13.371094 9.820312 10.789062 Z M 6.589844 -12.917969 C 6.203125 -12.207031 5.621094 -11.5625 5.101562 -10.851562 C 5.621094 -12.015625 6.136719 -13.046875 7.105469 -14.082031 C 7.300781 -14.277344 7.621094 -14.597656 7.816406 -14.921875 Z M 6.523438 -11.238281 L 5.941406 -10.398438 C 6.332031 -11.109375 6.78125 -11.820312 7.300781 -12.53125 Z M 6.523438 -11.238281 "/></g></g></g><g fill="#ffffff" fill-opacity="1"><g transform="translate(290.816331, 199.866769)"><g><path d="M 20.929688 -14.210938 C 21.253906 -14.597656 21.382812 -15.308594 21.1875 -15.828125 C 20.671875 -17.246094 19.054688 -15.503906 18.410156 -14.988281 C 17.441406 -14.277344 16.34375 -13.628906 15.308594 -12.917969 C 12.207031 -10.851562 9.300781 -8.589844 6.394531 -6.265625 C 7.558594 -9.558594 9.691406 -12.46875 11.175781 -15.503906 C 12.660156 -18.476562 7.429688 -20.863281 5.8125 -18.476562 C 5.621094 -18.152344 5.554688 -17.375 5.363281 -16.925781 C 4.972656 -15.890625 4.652344 -14.726562 4.261719 -13.628906 C 3.554688 -11.371094 2.84375 -9.042969 2.066406 -6.78125 L 0.839844 -2.972656 C 0.582031 -2.132812 0.386719 -1.484375 -0.195312 -0.90625 C -0.644531 -0.386719 -1.292969 0.0664062 -1.808594 0.582031 C -3.941406 2.453125 -6.070312 4.394531 -8.011719 6.394531 C -9.429688 7.816406 -10.660156 9.429688 -11.757812 10.980469 C -13.113281 12.917969 -14.664062 14.664062 -15.828125 16.730469 C -17.957031 20.542969 -19.054688 25.773438 -13.757812 27.710938 C -11.433594 28.550781 -8.914062 28.035156 -7.105469 26.421875 C -5.621094 25.0625 -4.714844 22.933594 -3.746094 21.1875 C -2.519531 19.054688 -1.421875 16.925781 -0.582031 14.597656 C 0.582031 11.757812 1.550781 8.785156 2.582031 5.878906 C 3.617188 3.101562 4.132812 -1.292969 6.460938 -3.230469 C 8.980469 -5.363281 11.5625 -7.429688 14.210938 -9.429688 C 16.277344 -11.046875 18.410156 -12.855469 20.734375 -14.148438 C 20.605469 -14.148438 20.542969 -14.210938 20.476562 -14.339844 C 20.800781 -14.535156 20.671875 -14.339844 20.929688 -14.210938 Z M -4.261719 11.371094 L -4.261719 11.175781 C -4.394531 11.433594 -4.523438 11.949219 -4.585938 12.015625 C -6.007812 15.566406 -7.492188 19.054688 -9.558594 22.222656 C -10.207031 23.191406 -11.5 25.128906 -12.917969 24.804688 C -14.46875 24.417969 -14.726562 22.15625 -14.535156 20.863281 C -13.953125 17.183594 -11.046875 13.953125 -8.785156 11.175781 C -6.460938 8.332031 -4.070312 5.75 -1.292969 3.359375 L -4.132812 11.046875 C -4.132812 10.980469 -4.132812 11.046875 -4.261719 11.371094 Z M 9.109375 -23.449219 C 9.171875 -23.511719 9.300781 -23.191406 9.367188 -23.253906 C 9.820312 -23.449219 10.011719 -23.578125 10.464844 -23.902344 C 11.109375 -24.546875 11.628906 -25.320312 12.273438 -25.902344 C 12.46875 -26.097656 12.015625 -25.96875 12.078125 -25.96875 C 12.53125 -26.484375 13.046875 -26.226562 13.628906 -27.066406 C 14.082031 -27.648438 14.210938 -28.875 14.40625 -29.328125 L 14.535156 -29.328125 C 14.664062 -30.039062 15.117188 -29.972656 15.503906 -30.683594 C 15.828125 -31.328125 15.761719 -32.234375 15.503906 -32.945312 C 15.375 -33.203125 15.246094 -33.460938 15.050781 -33.65625 C 14.148438 -34.625 11.886719 -34.753906 10.59375 -34.429688 C 10.269531 -34.367188 9.820312 -34.300781 9.496094 -34.109375 C 9.238281 -33.976562 8.785156 -33.71875 8.71875 -33.332031 C 8.71875 -33.136719 8.980469 -32.039062 9.300781 -32.492188 C 9.367188 -32.558594 9.300781 -32.6875 9.238281 -32.75 C 9.882812 -32.296875 9.949219 -32.296875 9.882812 -31.394531 C 9.882812 -31.007812 9.171875 -27.90625 8.589844 -26.421875 L 9.171875 -27.453125 C 8.71875 -26.421875 8.269531 -25.453125 7.6875 -24.546875 C 8.074219 -25.453125 7.363281 -24.351562 7.363281 -24.222656 C 7.042969 -24.289062 6.976562 -23.835938 7.042969 -23.578125 C 7.300781 -22.15625 8.527344 -23.320312 9.109375 -23.449219 Z M -0.324219 6.523438 C -0.453125 7.558594 -1.292969 8.589844 -1.742188 9.625 C -1.550781 9.109375 -1.355469 7.6875 -0.96875 7.363281 C -0.710938 7.171875 -0.582031 6.78125 -0.324219 6.523438 Z M -1.226562 11.886719 L -1.421875 12.273438 L -1.421875 12.207031 L -1.613281 12.660156 L -1.808594 12.984375 L -2.003906 13.5 L -2.195312 14.082031 C -2.132812 13.757812 -2.132812 13.4375 -2.003906 13.113281 C -1.875 12.46875 -1.484375 11.949219 -1.226562 11.433594 L -1.226562 11.757812 L -0.96875 10.980469 C -0.96875 10.917969 -0.96875 10.851562 -0.90625 10.789062 C -0.96875 11.175781 -1.097656 11.5625 -1.226562 11.886719 Z M -0.644531 10.140625 C -0.453125 9.429688 -0.257812 8.589844 0.128906 8.203125 L 0.257812 8.074219 L 0.0664062 8.460938 C -0.128906 9.042969 -0.386719 9.753906 -0.644531 10.335938 L -0.644531 10.269531 L -0.710938 10.269531 C -0.710938 10.207031 -0.644531 10.140625 -0.644531 10.140625 Z M 8.074219 -25.582031 C 8.203125 -25.515625 8.332031 -25.710938 8.460938 -26.160156 C 8.269531 -25.839844 8.074219 -25.582031 8.074219 -25.582031 Z M -0.386719 9.558594 L -0.257812 9.171875 C -0.324219 9.300781 -0.386719 9.429688 -0.386719 9.558594 Z M -0.195312 8.914062 C -0.257812 8.980469 -0.257812 9.042969 -0.257812 9.171875 Z M -0.710938 10.398438 L -0.773438 10.398438 L -0.710938 10.335938 Z M 7.492188 -24.222656 L 7.492188 -24.160156 L 7.429688 -24.160156 C 7.429688 -24.160156 7.492188 -24.160156 7.492188 -24.222656 Z M 7.492188 -24.222656 "/></g></g></g><g fill="#ffffff" fill-opacity="1"><g transform="translate(307.35231, 199.866769)"><g><path d="M 32.878906 -15.566406 C 32.816406 -16.988281 31.652344 -15.761719 31.265625 -15.246094 C 30.425781 -14.019531 29.648438 -12.726562 28.875 -11.5 C 27.132812 -8.851562 25.386719 -6.203125 23.382812 -3.683594 C 16.730469 4.523438 21.382812 -10.078125 20.863281 -9.949219 C 20.605469 -9.882812 20.414062 -8.914062 20.347656 -8.71875 C 20.863281 -11.046875 21.832031 -13.824219 23.0625 -16.085938 C 23.773438 -17.507812 24.613281 -18.667969 23.320312 -20.21875 C 20.929688 -23.125 18.152344 -20.476562 16.601562 -18.476562 C 15.957031 -20.929688 14.664062 -24.546875 11.5 -24.546875 C 10.078125 -24.546875 9.238281 -23.835938 8.269531 -22.996094 C 7.6875 -22.609375 7.234375 -22.542969 6.71875 -22.09375 C 5.878906 -21.511719 5.296875 -20.605469 4.714844 -19.832031 C 2.519531 -16.601562 0.96875 -12.53125 0.257812 -8.785156 C -0.0664062 -6.976562 -0.195312 -4.972656 0.324219 -3.164062 C 0.644531 -2.132812 1.808594 0.195312 3.292969 0 C 3.359375 0 3.230469 -0.0664062 3.035156 -0.195312 C 3.941406 0.0664062 4.972656 -0.0664062 5.75 -0.582031 C 5.8125 -0.453125 5.039062 -0.128906 5.039062 -0.128906 C 5.75 0.96875 11.046875 -5.425781 11.433594 -6.007812 C 12.273438 -7.171875 12.855469 -8.398438 13.628906 -9.625 C 14.210938 -10.53125 15.117188 -11.691406 15.761719 -12.660156 C 15.695312 -12.207031 15.695312 -11.628906 15.695312 -11.628906 C 14.535156 -7.945312 13.4375 -3.941406 14.988281 -0.128906 C 15.695312 1.808594 17.441406 3.617188 19.636719 3.230469 C 21.574219 2.90625 23.191406 1.035156 24.351562 -0.453125 C 25.773438 -2.132812 27 -4.003906 28.230469 -5.941406 C 29.261719 -7.6875 30.230469 -9.429688 31.070312 -11.371094 C 31.589844 -12.597656 33.007812 -14.082031 32.878906 -15.566406 Z M 14.339844 -15.117188 C 14.019531 -14.664062 13.695312 -14.210938 13.4375 -13.757812 L 11.757812 -11.371094 C 10.660156 -9.753906 9.496094 -8.203125 8.269531 -6.71875 C 7.945312 -6.265625 6.394531 -4.261719 5.75 -4.457031 C 4.78125 -4.78125 5.8125 -8.140625 5.941406 -8.65625 C 6.136719 -9.558594 9.558594 -19.507812 10.464844 -19.703125 C 9.300781 -19.765625 5.554688 -8.074219 5.363281 -7.105469 C 5.878906 -10.269531 7.042969 -13.371094 8.332031 -16.277344 C 9.042969 -17.765625 10.660156 -21.703125 12.789062 -21.703125 C 13.953125 -21.703125 14.210938 -19.316406 14.40625 -18.539062 C 14.339844 -18.667969 13.757812 -20.542969 13.695312 -20.476562 C 13.371094 -20.21875 14.664062 -16.667969 14.664062 -16.148438 C 14.664062 -15.632812 14.664062 -15.632812 14.339844 -15.117188 Z M 15.828125 -11.949219 C 15.828125 -11.949219 16.019531 -12.855469 16.085938 -13.046875 L 16.40625 -13.5 Z M 14.859375 -15.957031 L 14.859375 -16.601562 C 15.050781 -16.34375 15.050781 -16.148438 14.859375 -15.957031 Z M 14.859375 -15.957031 "/></g></g></g></svg>